<mxfile host="Electron" modified="2024-04-13T16:20:12.808Z" agent="Mozilla/5.0 (Windows NT 10.0; Win64; x64) AppleWebKit/537.36 (KHTML, like Gecko) draw.io/22.1.2 Chrome/114.0.5735.289 Electron/25.9.4 Safari/537.36" etag="Z5CcnvzEld4lVIaavXlJ" version="22.1.2" type="device">
  <diagram name="第 1 页" id="Rf20-n03IDKqyPzWcTtE">
    <mxGraphModel dx="941" dy="644" grid="1" gridSize="10" guides="1" tooltips="1" connect="1" arrows="1" fold="1" page="1" pageScale="1" pageWidth="827" pageHeight="1169" math="0" shadow="0">
      <root>
        <mxCell id="0" />
        <mxCell id="1" parent="0" />
        <mxCell id="IN3NJvSUdKqpW9-PHNFK-2" value="" style="shape=image;verticalLabelPosition=bottom;labelBackgroundColor=default;verticalAlign=top;aspect=fixed;imageAspect=0;image=data:image/svg+xml,PHN2ZyB4bWxucz0iaHR0cDovL3d3dy53My5vcmcvMjAwMC9zdmciIHhtbG5zOnhsaW5rPSJodHRwOi8vd3d3LnczLm9yZy8xOTk5L3hsaW5rIiB2ZXJzaW9uPSIxLjEiIHZpZXdCb3g9IjAgMCA0NjAuOCAzNDUuNiIgaGVpZ2h0PSIzNDUuNnB0IiB3aWR0aD0iNDYwLjhwdCI+JiN4YTsgPG1ldGFkYXRhPiYjeGE7ICAmI3hhOyAgICYjeGE7ICAgICYjeGE7ICAgIDIwMjQtMDQtMTRUMDA6MTk6MjIuNTEyNjM2JiN4YTsgICAgaW1hZ2Uvc3ZnK3htbCYjeGE7ICAgICYjeGE7ICAgICAmI3hhOyAgICAgIE1hdHBsb3RsaWIgdjMuNy41LCBodHRwczovL21hdHBsb3RsaWIub3JnLyYjeGE7ICAgICAmI3hhOyAgICAmI3hhOyAgICYjeGE7ICAmI3hhOyA8L21ldGFkYXRhPiYjeGE7IDxkZWZzPiYjeGE7ICA8c3R5bGUgdHlwZT0idGV4dC9jc3MiPip7c3Ryb2tlLWxpbmVqb2luOiByb3VuZDsgc3Ryb2tlLWxpbmVjYXA6IGJ1dHR9PC9zdHlsZT4mI3hhOyA8L2RlZnM+JiN4YTsgPGcgaWQ9ImZpZ3VyZV8xIj4mI3hhOyAgPGcgaWQ9InBhdGNoXzEiPiYjeGE7ICAgPHBhdGggc3R5bGU9ImZpbGw6ICNmZmZmZmYiIGQ9Ik0gMCAzNDUuNiAmIzEwO0wgNDYwLjggMzQ1LjYgJiMxMDtMIDQ2MC44IDAgJiMxMDtMIDAgMCAmIzEwO3oiLz4mI3hhOyAgPC9nPiYjeGE7ICA8ZyBpZD0iYXhlc18xIj4mI3hhOyAgIDxnIGlkPSJwYXRjaF8yIj4mI3hhOyAgICA8cGF0aCBzdHlsZT0iZmlsbDogI2ZmZmZmZiIgZD0iTSA1Ny42IDMwNy41ODQgJiMxMDtMIDQxNC43MiAzMDcuNTg0ICYjMTA7TCA0MTQuNzIgNDEuNDcyICYjMTA7TCA1Ny42IDQxLjQ3MiAmIzEwO3oiLz4mI3hhOyAgIDwvZz4mI3hhOyAgIDxnIGlkPSJwYXRjaF8zIj4mI3hhOyAgICA8cGF0aCBzdHlsZT0iZmlsbDogI2RiMzEyNCIgY2xpcC1wYXRoPSJ1cmwoI3A1ZjE3ODBjYzY1KSIgZD0iTSA3My44MzI3MjcgMzA3LjU4NCAmIzEwO0wgODYuMzE5NDQxIDMwNy41ODQgJiMxMDtMIDg2LjMxOTQ0MSAzMDMuMDEyOTExICYjMTA7TCA3My44MzI3MjcgMzAzLjAxMjkxMSAmIzEwO3oiLz4mI3hhOyAgIDwvZz4mI3hhOyAgIDxnIGlkPSJwYXRjaF80Ij4mI3hhOyAgICA8cGF0aCBzdHlsZT0iZmlsbDogI2RiMzEyNCIgY2xpcC1wYXRoPSJ1cmwoI3A1ZjE3ODBjYzY1KSIgZD0iTSAxMzYuMjY2Mjk0IDMwNy41ODQgJiMxMDtMIDE0OC43NTMwMDcgMzA3LjU4NCAmIzEwO0wgMTQ4Ljc1MzAwNyAyNDkuNTk3OTM0ICYjMTA7TCAxMzYuMjY2Mjk0IDI0OS41OTc5MzQgJiMxMDt6Ii8+JiN4YTsgICA8L2c+JiN4YTsgICA8ZyBpZD0icGF0Y2hfNSI+JiN4YTsgICAgPHBhdGggc3R5bGU9ImZpbGw6ICNkYjMxMjQiIGNsaXAtcGF0aD0idXJsKCNwNWYxNzgwY2M2NSkiIGQ9Ik0gMTk4LjY5OTg2IDMwNy41ODQgJiMxMDtMIDIxMS4xODY1NzMgMzA3LjU4NCAmIzEwO0wgMjExLjE4NjU3MyAxOTUuMzExNTI3ICYjMTA7TCAxOTguNjk5ODYgMTk1LjMxMTUyNyAmIzEwO3oiLz4mI3hhOyAgIDwvZz4mI3hhOyAgIDxnIGlkPSJwYXRjaF82Ij4mI3hhOyAgICA8cGF0aCBzdHlsZT0iZmlsbDogI2RiMzEyNCIgY2xpcC1wYXRoPSJ1cmwoI3A1ZjE3ODBjYzY1KSIgZD0iTSAyNjEuMTMzNDI3IDMwNy41ODQgJiMxMDtMIDI3My42MjAxNCAzMDcuNTg0ICYjMTA7TCAyNzMuNjIwMTQgMTQ2LjA1OTU4OSAmIzEwO0wgMjYxLjEzMzQyNyAxNDYuMDU5NTg5ICYjMTA7eiIvPiYjeGE7ICAgPC9nPiYjeGE7ICAgPGcgaWQ9InBhdGNoXzciPiYjeGE7ICAgIDxwYXRoIHN0eWxlPSJmaWxsOiAjZGIzMTI0IiBjbGlwLXBhdGg9InVybCgjcDVmMTc4MGNjNjUpIiBkPSJNIDMyMy41NjY5OTMgMzA3LjU4NCAmIzEwO0wgMzM2LjA1MzcwNiAzMDcuNTg0ICYjMTA7TCAzMzYuMDUzNzA2IDg4LjkwNjIyMyAmIzEwO0wgMzIzLjU2Njk5MyA4OC45MDYyMjMgJiMxMDt6Ii8+JiN4YTsgICA8L2c+JiN4YTsgICA8ZyBpZD0icGF0Y2hfOCI+JiN4YTsgICAgPHBhdGggc3R5bGU9ImZpbGw6ICNkYjMxMjQiIGNsaXAtcGF0aD0idXJsKCNwNWYxNzgwY2M2NSkiIGQ9Ik0gMzg2LjAwMDU1OSAzMDcuNTg0ICYjMTA7TCAzOTguNDg3MjczIDMwNy41ODQgJiMxMDtMIDM5OC40ODcyNzMgNTQuMTQ0ICYjMTA7TCAzODYuMDAwNTU5IDU0LjE0NCAmIzEwO3oiLz4mI3hhOyAgIDwvZz4mI3hhOyAgIDxnIGlkPSJtYXRwbG90bGliLmF4aXNfMSI+JiN4YTsgICAgPGcgaWQ9Inh0aWNrXzEiPiYjeGE7ICAgICA8ZyBpZD0ibGluZTJkXzEiPiYjeGE7ICAgICAgPGRlZnM+JiN4YTsgICAgICAgPHBhdGggc3R5bGU9InN0cm9rZTogIzAwMDAwMDsgc3Ryb2tlLXdpZHRoOiAwLjgiIGQ9Ik0gMCAwICYjMTA7TCAwIDMuNSIgaWQ9Im1mMjk4MDBmY2FiIi8+JiN4YTsgICAgICA8L2RlZnM+JiN4YTsgICAgICA8Zz4mI3hhOyAgICAgICA8dXNlIHN0eWxlPSJzdHJva2U6ICMwMDAwMDA7IHN0cm9rZS13aWR0aDogMC44IiB5PSIzMDcuNTg0IiB4PSI4MC4wNzYwODQiIHhsaW5rOmhyZWY9IiNtZjI5ODAwZmNhYiIvPiYjeGE7ICAgICAgPC9nPiYjeGE7ICAgICA8L2c+JiN4YTsgICAgIDxnIGlkPSJ0ZXh0XzEiPiYjeGE7ICAgICAgJiN4YTsgICAgICA8ZyB0cmFuc2Zvcm09InRyYW5zbGF0ZSg3Mi41ODA3NzEgMzIyLjE4MjQzNykgc2NhbGUoMC4xIC0wLjEpIj4mI3hhOyAgICAgICA8ZGVmcz4mI3hhOyAgICAgICAgPHBhdGggdHJhbnNmb3JtPSJzY2FsZSgwLjAxNTYyNSkiIGQ9Ik0gNzk0IDUzMSAmIzEwO0wgMTgyNSA1MzEgJiMxMDtMIDE4MjUgNDA5MSAmIzEwO0wgNzAzIDM4NjYgJiMxMDtMIDcwMyA0NDQxICYjMTA7TCAxODE5IDQ2NjYgJiMxMDtMIDI0NTAgNDY2NiAmIzEwO0wgMjQ1MCA1MzEgJiMxMDtMIDM0ODEgNTMxICYjMTA7TCAzNDgxIDAgJiMxMDtMIDc5NCAwICYjMTA7TCA3OTQgNTMxICYjMTA7eiIgaWQ9IkRlamFWdVNhbnMtMzEiLz4mI3hhOyAgICAgICAgPHBhdGggdHJhbnNmb3JtPSJzY2FsZSgwLjAxNTYyNSkiIGQ9Ik0gNjI4IDQ2NjYgJiMxMDtMIDE1NjkgNDY2NiAmIzEwO0wgMjc1OSAxNDkxICYjMTA7TCAzOTU2IDQ2NjYgJiMxMDtMIDQ4OTcgNDY2NiAmIzEwO0wgNDg5NyAwICYjMTA7TCA0MjgxIDAgJiMxMDtMIDQyODEgNDA5NyAmIzEwO0wgMzA3OCA4OTcgJiMxMDtMIDI0NDQgODk3ICYjMTA7TCAxMjQxIDQwOTcgJiMxMDtMIDEyNDEgMCAmIzEwO0wgNjI4IDAgJiMxMDtMIDYyOCA0NjY2ICYjMTA7eiIgaWQ9IkRlamFWdVNhbnMtNGQiLz4mI3hhOyAgICAgICA8L2RlZnM+JiN4YTsgICAgICAgPHVzZSB4bGluazpocmVmPSIjRGVqYVZ1U2Fucy0zMSIvPiYjeGE7ICAgICAgIDx1c2UgeD0iNjMuNjIzMDQ3IiB4bGluazpocmVmPSIjRGVqYVZ1U2Fucy00ZCIvPiYjeGE7ICAgICAgPC9nPiYjeGE7ICAgICA8L2c+JiN4YTsgICAgPC9nPiYjeGE7ICAgIDxnIGlkPSJ4dGlja18yIj4mI3hhOyAgICAgPGcgaWQ9ImxpbmUyZF8yIj4mI3hhOyAgICAgIDxnPiYjeGE7ICAgICAgIDx1c2Ugc3R5bGU9InN0cm9rZTogIzAwMDAwMDsgc3Ryb2tlLXdpZHRoOiAwLjgiIHk9IjMwNy41ODQiIHg9IjE0Mi41MDk2NSIgeGxpbms6aHJlZj0iI21mMjk4MDBmY2FiIi8+JiN4YTsgICAgICA8L2c+JiN4YTsgICAgIDwvZz4mI3hhOyAgICAgPGcgaWQ9InRleHRfMiI+JiN4YTsgICAgICAmI3hhOyAgICAgIDxnIHRyYW5zZm9ybT0idHJhbnNsYXRlKDEzMS44MzMwODggMzIyLjE4MjQzNykgc2NhbGUoMC4xIC0wLjEpIj4mI3hhOyAgICAgICA8ZGVmcz4mI3hhOyAgICAgICAgPHBhdGggdHJhbnNmb3JtPSJzY2FsZSgwLjAxNTYyNSkiIGQ9Ik0gMTIyOCA1MzEgJiMxMDtMIDM0MzEgNTMxICYjMTA7TCAzNDMxIDAgJiMxMDtMIDQ2OSAwICYjMTA7TCA0NjkgNTMxICYjMTA7USA4MjggOTAzIDE0NDggMTUyOSAmIzEwO1EgMjA2OSAyMTU2IDIyMjggMjMzOCAmIzEwO1EgMjUzMSAyNjc4IDI2NTEgMjkxNCAmIzEwO1EgMjc3MiAzMTUwIDI3NzIgMzM3OCAmIzEwO1EgMjc3MiAzNzUwIDI1MTEgMzk4NCAmIzEwO1EgMjI1MCA0MjE5IDE4MzEgNDIxOSAmIzEwO1EgMTUzNCA0MjE5IDEyMDQgNDExNiAmIzEwO1EgODc1IDQwMTMgNTAwIDM4MDMgJiMxMDtMIDUwMCA0NDQxICYjMTA7USA4ODEgNDU5NCAxMjEyIDQ2NzIgJiMxMDtRIDE1NDQgNDc1MCAxODE5IDQ3NTAgJiMxMDtRIDI1NDQgNDc1MCAyOTc1IDQzODcgJiMxMDtRIDM0MDYgNDAyNSAzNDA2IDM0MTkgJiMxMDtRIDM0MDYgMzEzMSAzMjk4IDI4NzMgJiMxMDtRIDMxOTEgMjYxNiAyOTA2IDIyNjYgJiMxMDtRIDI4MjggMjE3NSAyNDA5IDE3NDIgJiMxMDtRIDE5OTEgMTMwOSAxMjI4IDUzMSAmIzEwO3oiIGlkPSJEZWphVnVTYW5zLTMyIi8+JiN4YTsgICAgICAgIDxwYXRoIHRyYW5zZm9ybT0ic2NhbGUoMC4wMTU2MjUpIiBkPSJNIDIwMzQgNDI1MCAmIzEwO1EgMTU0NyA0MjUwIDEzMDEgMzc3MCAmIzEwO1EgMTA1NiAzMjkxIDEwNTYgMjMyOCAmIzEwO1EgMTA1NiAxMzY5IDEzMDEgODg5ICYjMTA7USAxNTQ3IDQwOSAyMDM0IDQwOSAmIzEwO1EgMjUyNSA0MDkgMjc3MCA4ODkgJiMxMDtRIDMwMTYgMTM2OSAzMDE2IDIzMjggJiMxMDtRIDMwMTYgMzI5MSAyNzcwIDM3NzAgJiMxMDtRIDI1MjUgNDI1MCAyMDM0IDQyNTAgJiMxMDt6JiMxMDtNIDIwMzQgNDc1MCAmIzEwO1EgMjgxOSA0NzUwIDMyMzMgNDEyOSAmIzEwO1EgMzY0NyAzNTA5IDM2NDcgMjMyOCAmIzEwO1EgMzY0NyAxMTUwIDMyMzMgNTI5ICYjMTA7USAyODE5IC05MSAyMDM0IC05MSAmIzEwO1EgMTI1MCAtOTEgODM2IDUyOSAmIzEwO1EgNDIyIDExNTAgNDIyIDIzMjggJiMxMDtRIDQyMiAzNTA5IDgzNiA0MTI5ICYjMTA7USAxMjUwIDQ3NTAgMjAzNCA0NzUwICYjMTA7eiIgaWQ9IkRlamFWdVNhbnMtMzAiLz4mI3hhOyAgICAgICA8L2RlZnM+JiN4YTsgICAgICAgPHVzZSB4bGluazpocmVmPSIjRGVqYVZ1U2Fucy0zMiIvPiYjeGE7ICAgICAgIDx1c2UgeD0iNjMuNjIzMDQ3IiB4bGluazpocmVmPSIjRGVqYVZ1U2Fucy0zMCIvPiYjeGE7ICAgICAgIDx1c2UgeD0iMTI3LjI0NjA5NCIgeGxpbms6aHJlZj0iI0RlamFWdVNhbnMtNGQiLz4mI3hhOyAgICAgIDwvZz4mI3hhOyAgICAgPC9nPiYjeGE7ICAgIDwvZz4mI3hhOyAgICA8ZyBpZD0ieHRpY2tfMyI+JiN4YTsgICAgIDxnIGlkPSJsaW5lMmRfMyI+JiN4YTsgICAgICA8Zz4mI3hhOyAgICAgICA8dXNlIHN0eWxlPSJzdHJva2U6ICMwMDAwMDA7IHN0cm9rZS13aWR0aDogMC44IiB5PSIzMDcuNTg0IiB4PSIyMDQuOTQzMjE3IiB4bGluazpocmVmPSIjbWYyOTgwMGZjYWIiLz4mI3hhOyAgICAgIDwvZz4mI3hhOyAgICAgPC9nPiYjeGE7ICAgICA8ZyBpZD0idGV4dF8zIj4mI3hhOyAgICAgICYjeGE7ICAgICAgPGcgdHJhbnNmb3JtPSJ0cmFuc2xhdGUoMTk0LjI2NjY1NCAzMjIuMTgyNDM3KSBzY2FsZSgwLjEgLTAuMSkiPiYjeGE7ICAgICAgIDxkZWZzPiYjeGE7ICAgICAgICA8cGF0aCB0cmFuc2Zvcm09InNjYWxlKDAuMDE1NjI1KSIgZD0iTSAyNDE5IDQxMTYgJiMxMDtMIDgyNSAxNjI1ICYjMTA7TCAyNDE5IDE2MjUgJiMxMDtMIDI0MTkgNDExNiAmIzEwO3omIzEwO00gMjI1MyA0NjY2ICYjMTA7TCAzMDQ3IDQ2NjYgJiMxMDtMIDMwNDcgMTYyNSAmIzEwO0wgMzcxMyAxNjI1ICYjMTA7TCAzNzEzIDExMDAgJiMxMDtMIDMwNDcgMTEwMCAmIzEwO0wgMzA0NyAwICYjMTA7TCAyNDE5IDAgJiMxMDtMIDI0MTkgMTEwMCAmIzEwO0wgMzEzIDExMDAgJiMxMDtMIDMxMyAxNzA5ICYjMTA7TCAyMjUzIDQ2NjYgJiMxMDt6IiBpZD0iRGVqYVZ1U2Fucy0zNCIvPiYjeGE7ICAgICAgIDwvZGVmcz4mI3hhOyAgICAgICA8dXNlIHhsaW5rOmhyZWY9IiNEZWphVnVTYW5zLTM0Ii8+JiN4YTsgICAgICAgPHVzZSB4PSI2My42MjMwNDciIHhsaW5rOmhyZWY9IiNEZWphVnVTYW5zLTMwIi8+JiN4YTsgICAgICAgPHVzZSB4PSIxMjcuMjQ2MDk0IiB4bGluazpocmVmPSIjRGVqYVZ1U2Fucy00ZCIvPiYjeGE7ICAgICAgPC9nPiYjeGE7ICAgICA8L2c+JiN4YTsgICAgPC9nPiYjeGE7ICAgIDxnIGlkPSJ4dGlja180Ij4mI3hhOyAgICAgPGcgaWQ9ImxpbmUyZF80Ij4mI3hhOyAgICAgIDxnPiYjeGE7ICAgICAgIDx1c2Ugc3R5bGU9InN0cm9rZTogIzAwMDAwMDsgc3Ryb2tlLXdpZHRoOiAwLjgiIHk9IjMwNy41ODQiIHg9IjI2Ny4zNzY3ODMiIHhsaW5rOmhyZWY9IiNtZjI5ODAwZmNhYiIvPiYjeGE7ICAgICAgPC9nPiYjeGE7ICAgICA8L2c+JiN4YTsgICAgIDxnIGlkPSJ0ZXh0XzQiPiYjeGE7ICAgICAgJiN4YTsgICAgICA8ZyB0cmFuc2Zvcm09InRyYW5zbGF0ZSgyNTYuNzAwMjIxIDMyMi4xODI0MzcpIHNjYWxlKDAuMSAtMC4xKSI+JiN4YTsgICAgICAgPGRlZnM+JiN4YTsgICAgICAgIDxwYXRoIHRyYW5zZm9ybT0ic2NhbGUoMC4wMTU2MjUpIiBkPSJNIDIxMTMgMjU4NCAmIzEwO1EgMTY4OCAyNTg0IDE0MzkgMjI5MyAmIzEwO1EgMTE5MSAyMDAzIDExOTEgMTQ5NyAmIzEwO1EgMTE5MSA5OTQgMTQzOSA3MDEgJiMxMDtRIDE2ODggNDA5IDIxMTMgNDA5ICYjMTA7USAyNTM4IDQwOSAyNzg2IDcwMSAmIzEwO1EgMzAzNCA5OTQgMzAzNCAxNDk3ICYjMTA7USAzMDM0IDIwMDMgMjc4NiAyMjkzICYjMTA7USAyNTM4IDI1ODQgMjExMyAyNTg0ICYjMTA7eiYjMTA7TSAzMzY2IDQ1NjMgJiMxMDtMIDMzNjYgMzk4OCAmIzEwO1EgMzEyOCA0MTAwIDI4ODYgNDE1OSAmIzEwO1EgMjY0NCA0MjE5IDI0MDYgNDIxOSAmIzEwO1EgMTc4MSA0MjE5IDE0NTEgMzc5NyAmIzEwO1EgMTEyMiAzMzc1IDEwNzUgMjUyMiAmIzEwO1EgMTI1OSAyNzk0IDE1MzcgMjkzOSAmIzEwO1EgMTgxNiAzMDg0IDIxNTAgMzA4NCAmIzEwO1EgMjg1MyAzMDg0IDMyNjEgMjY1NyAmIzEwO1EgMzY2OSAyMjMxIDM2NjkgMTQ5NyAmIzEwO1EgMzY2OSA3NzggMzI0NCAzNDMgJiMxMDtRIDI4MTkgLTkxIDIxMTMgLTkxICYjMTA7USAxMzAzIC05MSA4NzUgNTI5ICYjMTA7USA0NDcgMTE1MCA0NDcgMjMyOCAmIzEwO1EgNDQ3IDM0MzQgOTcyIDQwOTIgJiMxMDtRIDE0OTcgNDc1MCAyMzgxIDQ3NTAgJiMxMDtRIDI2MTkgNDc1MCAyODYxIDQ3MDMgJiMxMDtRIDMxMDMgNDY1NiAzMzY2IDQ1NjMgJiMxMDt6IiBpZD0iRGVqYVZ1U2Fucy0zNiIvPiYjeGE7ICAgICAgIDwvZGVmcz4mI3hhOyAgICAgICA8dXNlIHhsaW5rOmhyZWY9IiNEZWphVnVTYW5zLTM2Ii8+JiN4YTsgICAgICAgPHVzZSB4PSI2My42MjMwNDciIHhsaW5rOmhyZWY9IiNEZWphVnVTYW5zLTMwIi8+JiN4YTsgICAgICAgPHVzZSB4PSIxMjcuMjQ2MDk0IiB4bGluazpocmVmPSIjRGVqYVZ1U2Fucy00ZCIvPiYjeGE7ICAgICAgPC9nPiYjeGE7ICAgICA8L2c+JiN4YTsgICAgPC9nPiYjeGE7ICAgIDxnIGlkPSJ4dGlja181Ij4mI3hhOyAgICAgPGcgaWQ9ImxpbmUyZF81Ij4mI3hhOyAgICAgIDxnPiYjeGE7ICAgICAgIDx1c2Ugc3R5bGU9InN0cm9rZTogIzAwMDAwMDsgc3Ryb2tlLXdpZHRoOiAwLjgiIHk9IjMwNy41ODQiIHg9IjMyOS44MTAzNSIgeGxpbms6aHJlZj0iI21mMjk4MDBmY2FiIi8+JiN4YTsgICAgICA8L2c+JiN4YTsgICAgIDwvZz4mI3hhOyAgICAgPGcgaWQ9InRleHRfNSI+JiN4YTsgICAgICAmI3hhOyAgICAgIDxnIHRyYW5zZm9ybT0idHJhbnNsYXRlKDMxOS4xMzM3ODcgMzIyLjE4MjQzNykgc2NhbGUoMC4xIC0wLjEpIj4mI3hhOyAgICAgICA8ZGVmcz4mI3hhOyAgICAgICAgPHBhdGggdHJhbnNmb3JtPSJzY2FsZSgwLjAxNTYyNSkiIGQ9Ik0gMjAzNCAyMjE2ICYjMTA7USAxNTg0IDIyMTYgMTMyNiAxOTc1ICYjMTA7USAxMDY5IDE3MzQgMTA2OSAxMzEzICYjMTA7USAxMDY5IDg5MSAxMzI2IDY1MCAmIzEwO1EgMTU4NCA0MDkgMjAzNCA0MDkgJiMxMDtRIDI0ODQgNDA5IDI3NDMgNjUxICYjMTA7USAzMDAzIDg5NCAzMDAzIDEzMTMgJiMxMDtRIDMwMDMgMTczNCAyNzQ1IDE5NzUgJiMxMDtRIDI0ODggMjIxNiAyMDM0IDIyMTYgJiMxMDt6JiMxMDtNIDE0MDMgMjQ4NCAmIzEwO1EgOTk3IDI1ODQgNzcwIDI4NjIgJiMxMDtRIDU0NCAzMTQxIDU0NCAzNTQxICYjMTA7USA1NDQgNDEwMCA5NDIgNDQyNSAmIzEwO1EgMTM0MSA0NzUwIDIwMzQgNDc1MCAmIzEwO1EgMjczMSA0NzUwIDMxMjggNDQyNSAmIzEwO1EgMzUyNSA0MTAwIDM1MjUgMzU0MSAmIzEwO1EgMzUyNSAzMTQxIDMyOTggMjg2MiAmIzEwO1EgMzA3MiAyNTg0IDI2NjkgMjQ4NCAmIzEwO1EgMzEyNSAyMzc4IDMzNzkgMjA2OCAmIzEwO1EgMzYzNCAxNzU5IDM2MzQgMTMxMyAmIzEwO1EgMzYzNCA2MzQgMzIyMCAyNzEgJiMxMDtRIDI4MDYgLTkxIDIwMzQgLTkxICYjMTA7USAxMjYzIC05MSA4NDggMjcxICYjMTA7USA0MzQgNjM0IDQzNCAxMzEzICYjMTA7USA0MzQgMTc1OSA2OTAgMjA2OCAmIzEwO1EgOTQ3IDIzNzggMTQwMyAyNDg0ICYjMTA7eiYjMTA7TSAxMTcyIDM0ODEgJiMxMDtRIDExNzIgMzExOSAxMzk4IDI5MTYgJiMxMDtRIDE2MjUgMjcxMyAyMDM0IDI3MTMgJiMxMDtRIDI0NDEgMjcxMyAyNjcwIDI5MTYgJiMxMDtRIDI5MDAgMzExOSAyOTAwIDM0ODEgJiMxMDtRIDI5MDAgMzg0NCAyNjcwIDQwNDcgJiMxMDtRIDI0NDEgNDI1MCAyMDM0IDQyNTAgJiMxMDtRIDE2MjUgNDI1MCAxMzk4IDQwNDcgJiMxMDtRIDExNzIgMzg0NCAxMTcyIDM0ODEgJiMxMDt6IiBpZD0iRGVqYVZ1U2Fucy0zOCIvPiYjeGE7ICAgICAgIDwvZGVmcz4mI3hhOyAgICAgICA8dXNlIHhsaW5rOmhyZWY9IiNEZWphVnVTYW5zLTM4Ii8+JiN4YTsgICAgICAgPHVzZSB4PSI2My42MjMwNDciIHhsaW5rOmhyZWY9IiNEZWphVnVTYW5zLTMwIi8+JiN4YTsgICAgICAgPHVzZSB4PSIxMjcuMjQ2MDk0IiB4bGluazpocmVmPSIjRGVqYVZ1U2Fucy00ZCIvPiYjeGE7ICAgICAgPC9nPiYjeGE7ICAgICA8L2c+JiN4YTsgICAgPC9nPiYjeGE7ICAgIDxnIGlkPSJ4dGlja182Ij4mI3hhOyAgICAgPGcgaWQ9ImxpbmUyZF82Ij4mI3hhOyAgICAgIDxnPiYjeGE7ICAgICAgIDx1c2Ugc3R5bGU9InN0cm9rZTogIzAwMDAwMDsgc3Ryb2tlLXdpZHRoOiAwLjgiIHk9IjMwNy41ODQiIHg9IjM5Mi4yNDM5MTYiIHhsaW5rOmhyZWY9IiNtZjI5ODAwZmNhYiIvPiYjeGE7ICAgICAgPC9nPiYjeGE7ICAgICA8L2c+JiN4YTsgICAgIDxnIGlkPSJ0ZXh0XzYiPiYjeGE7ICAgICAgJiN4YTsgICAgICA8ZyB0cmFuc2Zvcm09InRyYW5zbGF0ZSgzNzguMzg2MTA0IDMyMi4xODI0MzcpIHNjYWxlKDAuMSAtMC4xKSI+JiN4YTsgICAgICAgPHVzZSB4bGluazpocmVmPSIjRGVqYVZ1U2Fucy0zMSIvPiYjeGE7ICAgICAgIDx1c2UgeD0iNjMuNjIzMDQ3IiB4bGluazpocmVmPSIjRGVqYVZ1U2Fucy0zMCIvPiYjeGE7ICAgICAgIDx1c2UgeD0iMTI3LjI0NjA5NCIgeGxpbms6aHJlZj0iI0RlamFWdVNhbnMtMzAiLz4mI3hhOyAgICAgICA8dXNlIHg9IjE5MC44NjkxNDEiIHhsaW5rOmhyZWY9IiNEZWphVnVTYW5zLTRkIi8+JiN4YTsgICAgICA8L2c+JiN4YTsgICAgIDwvZz4mI3hhOyAgICA8L2c+JiN4YTsgICAgPGcgaWQ9InRleHRfNyI+JiN4YTsgICAgICYjeGE7ICAgICA8ZyB0cmFuc2Zvcm09InRyYW5zbGF0ZSgxNjMuMjcxNzE5IDMzNS44NjA1NjIpIHNjYWxlKDAuMSAtMC4xKSI+JiN4YTsgICAgICA8ZGVmcz4mI3hhOyAgICAgICA8cGF0aCB0cmFuc2Zvcm09InNjYWxlKDAuMDE1NjI1KSIgZD0iTSA2MjggNDY2NiAmIzEwO0wgMzMwOSA0NjY2ICYjMTA7TCAzMzA5IDQxMzQgJiMxMDtMIDEyNTkgNDEzNCAmIzEwO0wgMTI1OSAyNzU5ICYjMTA7TCAzMTA5IDI3NTkgJiMxMDtMIDMxMDkgMjIyOCAmIzEwO0wgMTI1OSAyMjI4ICYjMTA7TCAxMjU5IDAgJiMxMDtMIDYyOCAwICYjMTA7TCA2MjggNDY2NiAmIzEwO3oiIGlkPSJEZWphVnVTYW5zLTQ2Ii8+JiN4YTsgICAgICAgPHBhdGggdHJhbnNmb3JtPSJzY2FsZSgwLjAxNTYyNSkiIGQ9Ik0gNjAzIDM1MDAgJiMxMDtMIDExNzggMzUwMCAmIzEwO0wgMTE3OCAwICYjMTA7TCA2MDMgMCAmIzEwO0wgNjAzIDM1MDAgJiMxMDt6JiMxMDtNIDYwMyA0ODYzICYjMTA7TCAxMTc4IDQ4NjMgJiMxMDtMIDExNzggNDEzNCAmIzEwO0wgNjAzIDQxMzQgJiMxMDtMIDYwMyA0ODYzICYjMTA7eiIgaWQ9IkRlamFWdVNhbnMtNjkiLz4mI3hhOyAgICAgICA8cGF0aCB0cmFuc2Zvcm09InNjYWxlKDAuMDE1NjI1KSIgZD0iTSA2MDMgNDg2MyAmIzEwO0wgMTE3OCA0ODYzICYjMTA7TCAxMTc4IDAgJiMxMDtMIDYwMyAwICYjMTA7TCA2MDMgNDg2MyAmIzEwO3oiIGlkPSJEZWphVnVTYW5zLTZjIi8+JiN4YTsgICAgICAgPHBhdGggdHJhbnNmb3JtPSJzY2FsZSgwLjAxNTYyNSkiIGQ9Ik0gMzU5NyAxODk0ICYjMTA7TCAzNTk3IDE2MTMgJiMxMDtMIDk1MyAxNjEzICYjMTA7USA5OTEgMTAxOSAxMzExIDcwOCAmIzEwO1EgMTYzMSAzOTcgMjIwMyAzOTcgJiMxMDtRIDI1MzQgMzk3IDI4NDUgNDc4ICYjMTA7USAzMTU2IDU1OSAzNDYzIDcyMiAmIzEwO0wgMzQ2MyAxNzggJiMxMDtRIDMxNTMgNDcgMjgyOCAtMjIgJiMxMDtRIDI1MDMgLTkxIDIxNjkgLTkxICYjMTA7USAxMzMxIC05MSA4NDIgMzk2ICYjMTA7USAzNTMgODg0IDM1MyAxNzE2ICYjMTA7USAzNTMgMjU3NSA4MTcgMzA3OSAmIzEwO1EgMTI4MSAzNTg0IDIwNjkgMzU4NCAmIzEwO1EgMjc3NSAzNTg0IDMxODYgMzEyOSAmIzEwO1EgMzU5NyAyNjc1IDM1OTcgMTg5NCAmIzEwO3omIzEwO00gMzAyMiAyMDYzICYjMTA7USAzMDE2IDI1MzQgMjc1OCAyODE1ICYjMTA7USAyNTAwIDMwOTcgMjA3NSAzMDk3ICYjMTA7USAxNTk0IDMwOTcgMTMwNSAyODI1ICYjMTA7USAxMDE2IDI1NTMgOTcyIDIwNTkgJiMxMDtMIDMwMjIgMjA2MyAmIzEwO3oiIGlkPSJEZWphVnVTYW5zLTY1Ii8+JiN4YTsgICAgICAgPHBhdGggdHJhbnNmb3JtPSJzY2FsZSgwLjAxNTYyNSkiIGlkPSJEZWphVnVTYW5zLTIwIi8+JiN4YTsgICAgICAgPHBhdGggdHJhbnNmb3JtPSJzY2FsZSgwLjAxNTYyNSkiIGQ9Ik0gMjgzNCAzMzk3ICYjMTA7TCAyODM0IDI4NTMgJiMxMDtRIDI1OTEgMjk3OCAyMzI4IDMwNDAgJiMxMDtRIDIwNjYgMzEwMyAxNzg0IDMxMDMgJiMxMDtRIDEzNTYgMzEwMyAxMTQyIDI5NzIgJiMxMDtRIDkyOCAyODQxIDkyOCAyNTc4ICYjMTA7USA5MjggMjM3OCAxMDgxIDIyNjQgJiMxMDtRIDEyMzQgMjE1MCAxNjk3IDIwNDcgJiMxMDtMIDE4OTQgMjAwMyAmIzEwO1EgMjUwNiAxODcyIDI3NjQgMTYzMyAmIzEwO1EgMzAyMiAxMzk0IDMwMjIgOTY2ICYjMTA7USAzMDIyIDQ3OCAyNjM2IDE5MyAmIzEwO1EgMjI1MCAtOTEgMTU3NSAtOTEgJiMxMDtRIDEyOTQgLTkxIDk4OSAtMzYgJiMxMDtRIDY4NCAxOSAzNDcgMTI4ICYjMTA7TCAzNDcgNzIyICYjMTA7USA2NjYgNTU2IDk3NSA0NzMgJiMxMDtRIDEyODQgMzkxIDE1ODggMzkxICYjMTA7USAxOTk0IDM5MSAyMjEyIDUzMCAmIzEwO1EgMjQzMSA2NjkgMjQzMSA5MjIgJiMxMDtRIDI0MzEgMTE1NiAyMjczIDEyODEgJiMxMDtRIDIxMTYgMTQwNiAxNTgxIDE1MjIgJiMxMDtMIDEzODEgMTU2OSAmIzEwO1EgODQ3IDE2ODEgNjA5IDE5MTQgJiMxMDtRIDM3MiAyMTQ3IDM3MiAyNTUzICYjMTA7USAzNzIgMzA0NyA3MjIgMzMxNSAmIzEwO1EgMTA3MiAzNTg0IDE3MTYgMzU4NCAmIzEwO1EgMjAzNCAzNTg0IDIzMTUgMzUzNyAmIzEwO1EgMjU5NyAzNDkxIDI4MzQgMzM5NyAmIzEwO3oiIGlkPSJEZWphVnVTYW5zLTczIi8+JiN4YTsgICAgICAgPHBhdGggdHJhbnNmb3JtPSJzY2FsZSgwLjAxNTYyNSkiIGQ9Ik0gMzUzIDM1MDAgJiMxMDtMIDMwODQgMzUwMCAmIzEwO0wgMzA4NCAyOTc1ICYjMTA7TCA5MjIgNDU5ICYjMTA7TCAzMDg0IDQ1OSAmIzEwO0wgMzA4NCAwICYjMTA7TCAyNzUgMCAmIzEwO0wgMjc1IDUyNSAmIzEwO0wgMjQzOCAzMDQxICYjMTA7TCAzNTMgMzA0MSAmIzEwO0wgMzUzIDM1MDAgJiMxMDt6IiBpZD0iRGVqYVZ1U2Fucy03YSIvPiYjeGE7ICAgICAgIDxwYXRoIHRyYW5zZm9ybT0ic2NhbGUoMC4wMTU2MjUpIiBkPSJNIDM1MTMgMjExMyAmIzEwO0wgMzUxMyAwICYjMTA7TCAyOTM4IDAgJiMxMDtMIDI5MzggMjA5NCAmIzEwO1EgMjkzOCAyNTkxIDI3NDQgMjgzNyAmIzEwO1EgMjU1MCAzMDg0IDIxNjMgMzA4NCAmIzEwO1EgMTY5NyAzMDg0IDE0MjggMjc4NyAmIzEwO1EgMTE1OSAyNDkxIDExNTkgMTk3OCAmIzEwO0wgMTE1OSAwICYjMTA7TCA1ODEgMCAmIzEwO0wgNTgxIDM1MDAgJiMxMDtMIDExNTkgMzUwMCAmIzEwO0wgMTE1OSAyOTU2ICYjMTA7USAxMzY2IDMyNzIgMTY0NSAzNDI4ICYjMTA7USAxOTI1IDM1ODQgMjI5MSAzNTg0ICYjMTA7USAyODk0IDM1ODQgMzIwMyAzMjExICYjMTA7USAzNTEzIDI4MzggMzUxMyAyMTEzICYjMTA7eiIgaWQ9IkRlamFWdVNhbnMtNmUiLz4mI3hhOyAgICAgICA8cGF0aCB0cmFuc2Zvcm09InNjYWxlKDAuMDE1NjI1KSIgZD0iTSAxMTcyIDQ0OTQgJiMxMDtMIDExNzIgMzUwMCAmIzEwO0wgMjM1NiAzNTAwICYjMTA7TCAyMzU2IDMwNTMgJiMxMDtMIDExNzIgMzA1MyAmIzEwO0wgMTE3MiAxMTUzICYjMTA7USAxMTcyIDcyNSAxMjg5IDYwMyAmIzEwO1EgMTQwNiA0ODEgMTc2NiA0ODEgJiMxMDtMIDIzNTYgNDgxICYjMTA7TCAyMzU2IDAgJiMxMDtMIDE3NjYgMCAmIzEwO1EgMTEwMCAwIDg0NyAyNDggJiMxMDtRIDU5NCA0OTcgNTk0IDExNTMgJiMxMDtMIDU5NCAzMDUzICYjMTA7TCAxNzIgMzA1MyAmIzEwO0wgMTcyIDM1MDAgJiMxMDtMIDU5NCAzNTAwICYjMTA7TCA1OTQgNDQ5NCAmIzEwO0wgMTE3MiA0NDk0ICYjMTA7eiIgaWQ9IkRlamFWdVNhbnMtNzQiLz4mI3hhOyAgICAgICA8cGF0aCB0cmFuc2Zvcm09InNjYWxlKDAuMDE1NjI1KSIgZD0iTSAzNTEzIDIxMTMgJiMxMDtMIDM1MTMgMCAmIzEwO0wgMjkzOCAwICYjMTA7TCAyOTM4IDIwOTQgJiMxMDtRIDI5MzggMjU5MSAyNzQ0IDI4MzcgJiMxMDtRIDI1NTAgMzA4NCAyMTYzIDMwODQgJiMxMDtRIDE2OTcgMzA4NCAxNDI4IDI3ODcgJiMxMDtRIDExNTkgMjQ5MSAxMTU5IDE5NzggJiMxMDtMIDExNTkgMCAmIzEwO0wgNTgxIDAgJiMxMDtMIDU4MSA0ODYzICYjMTA7TCAxMTU5IDQ4NjMgJiMxMDtMIDExNTkgMjk1NiAmIzEwO1EgMTM2NiAzMjcyIDE2NDUgMzQyOCAmIzEwO1EgMTkyNSAzNTg0IDIyOTEgMzU4NCAmIzEwO1EgMjg5NCAzNTg0IDMyMDMgMzIxMSAmIzEwO1EgMzUxMyAyODM4IDM1MTMgMjExMyAmIzEwO3oiIGlkPSJEZWphVnVTYW5zLTY4Ii8+JiN4YTsgICAgICAgPHBhdGggdHJhbnNmb3JtPSJzY2FsZSgwLjAxNTYyNSkiIGQ9Ik0gMzMyOCAyODI4ICYjMTA7USAzNTQ0IDMyMTYgMzg0NCAzNDAwICYjMTA7USA0MTQ0IDM1ODQgNDU1MCAzNTg0ICYjMTA7USA1MDk3IDM1ODQgNTM5NCAzMjAxICYjMTA7USA1NjkxIDI4MTkgNTY5MSAyMTEzICYjMTA7TCA1NjkxIDAgJiMxMDtMIDUxMTMgMCAmIzEwO0wgNTExMyAyMDk0ICYjMTA7USA1MTEzIDI1OTcgNDkzNCAyODQwICYjMTA7USA0NzU2IDMwODQgNDM5MSAzMDg0ICYjMTA7USAzOTQ0IDMwODQgMzY4NCAyNzg3ICYjMTA7USAzNDI1IDI0OTEgMzQyNSAxOTc4ICYjMTA7TCAzNDI1IDAgJiMxMDtMIDI4NDcgMCAmIzEwO0wgMjg0NyAyMDk0ICYjMTA7USAyODQ3IDI2MDAgMjY2OSAyODQyICYjMTA7USAyNDkxIDMwODQgMjExOSAzMDg0ICYjMTA7USAxNjc4IDMwODQgMTQxOCAyNzg2ICYjMTA7USAxMTU5IDI0ODggMTE1OSAxOTc4ICYjMTA7TCAxMTU5IDAgJiMxMDtMIDU4MSAwICYjMTA7TCA1ODEgMzUwMCAmIzEwO0wgMTE1OSAzNTAwICYjMTA7TCAxMTU5IDI5NTYgJiMxMDtRIDEzNTYgMzI3OCAxNjMxIDM0MzEgJiMxMDtRIDE5MDYgMzU4NCAyMjg0IDM1ODQgJiMxMDtRIDI2NjYgMzU4NCAyOTMzIDMzOTAgJiMxMDtRIDMyMDAgMzE5NyAzMzI4IDI4MjggJiMxMDt6IiBpZD0iRGVqYVZ1U2Fucy02ZCIvPiYjeGE7ICAgICAgIDxwYXRoIHRyYW5zZm9ybT0ic2NhbGUoMC4wMTU2MjUpIiBkPSJNIDIxOTQgMTc1OSAmIzEwO1EgMTQ5NyAxNzU5IDEyMjggMTYwMCAmIzEwO1EgOTU5IDE0NDEgOTU5IDEwNTYgJiMxMDtRIDk1OSA3NTAgMTE2MSA1NzAgJiMxMDtRIDEzNjMgMzkxIDE3MDkgMzkxICYjMTA7USAyMTg4IDM5MSAyNDc3IDczMCAmIzEwO1EgMjc2NiAxMDY5IDI3NjYgMTYzMSAmIzEwO0wgMjc2NiAxNzU5ICYjMTA7TCAyMTk0IDE3NTkgJiMxMDt6JiMxMDtNIDMzNDEgMTk5NyAmIzEwO0wgMzM0MSAwICYjMTA7TCAyNzY2IDAgJiMxMDtMIDI3NjYgNTMxICYjMTA7USAyNTY5IDIxMyAyMjc1IDYxICYjMTA7USAxOTgxIC05MSAxNTU2IC05MSAmIzEwO1EgMTAxOSAtOTEgNzAxIDIxMSAmIzEwO1EgMzg0IDUxMyAzODQgMTAxOSAmIzEwO1EgMzg0IDE2MDkgNzc5IDE5MDkgJiMxMDtRIDExNzUgMjIwOSAxOTU5IDIyMDkgJiMxMDtMIDI3NjYgMjIwOSAmIzEwO0wgMjc2NiAyMjY2ICYjMTA7USAyNzY2IDI2NjMgMjUwNSAyODgwICYjMTA7USAyMjQ0IDMwOTcgMTc3MiAzMDk3ICYjMTA7USAxNDcyIDMwOTcgMTE4NyAzMDI1ICYjMTA7USA5MDMgMjk1MyA2NDEgMjgwOSAmIzEwO0wgNjQxIDMzNDEgJiMxMDtRIDk1NiAzNDYzIDEyNTMgMzUyMyAmIzEwO1EgMTU1MCAzNTg0IDE4MzEgMzU4NCAmIzEwO1EgMjU5MSAzNTg0IDI5NjYgMzE5MCAmIzEwO1EgMzM0MSAyNzk3IDMzNDEgMTk5NyAmIzEwO3oiIGlkPSJEZWphVnVTYW5zLTYxIi8+JiN4YTsgICAgICAgPHBhdGggdHJhbnNmb3JtPSJzY2FsZSgwLjAxNTYyNSkiIGQ9Ik0gMjkwNiAxNzkxICYjMTA7USAyOTA2IDI0MTYgMjY0OCAyNzU5ICYjMTA7USAyMzkxIDMxMDMgMTkyNSAzMTAzICYjMTA7USAxNDYzIDMxMDMgMTIwNSAyNzU5ICYjMTA7USA5NDcgMjQxNiA5NDcgMTc5MSAmIzEwO1EgOTQ3IDExNjkgMTIwNSA4MjUgJiMxMDtRIDE0NjMgNDgxIDE5MjUgNDgxICYjMTA7USAyMzkxIDQ4MSAyNjQ4IDgyNSAmIzEwO1EgMjkwNiAxMTY5IDI5MDYgMTc5MSAmIzEwO3omIzEwO00gMzQ4MSA0MzQgJiMxMDtRIDM0ODEgLTQ1OSAzMDg0IC04OTUgJiMxMDtRIDI2ODggLTEzMzEgMTg2OSAtMTMzMSAmIzEwO1EgMTU2NiAtMTMzMSAxMjk3IC0xMjg2ICYjMTA7USAxMDI4IC0xMjQxIDc3NSAtMTE0NyAmIzEwO0wgNzc1IC01ODggJiMxMDtRIDEwMjggLTcyNSAxMjc1IC03OTAgJiMxMDtRIDE1MjIgLTg1NiAxNzc4IC04NTYgJiMxMDtRIDIzNDQgLTg1NiAyNjI1IC01NjEgJiMxMDtRIDI5MDYgLTI2NiAyOTA2IDMzMSAmIzEwO0wgMjkwNiA2MTYgJiMxMDtRIDI3MjggMzA2IDI0NTAgMTUzICYjMTA7USAyMTcyIDAgMTc4NCAwICYjMTA7USAxMTQxIDAgNzQ3IDQ5MCAmIzEwO1EgMzUzIDk4MSAzNTMgMTc5MSAmIzEwO1EgMzUzIDI2MDMgNzQ3IDMwOTMgJiMxMDtRIDExNDEgMzU4NCAxNzg0IDM1ODQgJiMxMDtRIDIxNzIgMzU4NCAyNDUwIDM0MzEgJiMxMDtRIDI3MjggMzI3OCAyOTA2IDI5NjkgJiMxMDtMIDI5MDYgMzUwMCAmIzEwO0wgMzQ4MSAzNTAwICYjMTA7TCAzNDgxIDQzNCAmIzEwO3oiIGlkPSJEZWphVnVTYW5zLTY3Ii8+JiN4YTsgICAgICAgPHBhdGggdHJhbnNmb3JtPSJzY2FsZSgwLjAxNTYyNSkiIGQ9Ik0gMTk4NCA0ODU2ICYjMTA7USAxNTY2IDQxMzggMTM2MiAzNDM0ICYjMTA7USAxMTU5IDI3MzEgMTE1OSAyMDA5ICYjMTA7USAxMTU5IDEyODggMTM2NCA1ODAgJiMxMDtRIDE1NjkgLTEyOCAxOTg0IC04NDQgJiMxMDtMIDE0ODQgLTg0NCAmIzEwO1EgMTAxNiAtMTA5IDc4MyA2MDAgJiMxMDtRIDU1MCAxMzA5IDU1MCAyMDA5ICYjMTA7USA1NTAgMjcwNiA3ODEgMzQxMiAmIzEwO1EgMTAxMyA0MTE5IDE0ODQgNDg1NiAmIzEwO0wgMTk4NCA0ODU2ICYjMTA7eiIgaWQ9IkRlamFWdVNhbnMtMjgiLz4mI3hhOyAgICAgICA8cGF0aCB0cmFuc2Zvcm09InNjYWxlKDAuMDE1NjI1KSIgZD0iTSAxMjU5IDIyMjggJiMxMDtMIDEyNTkgNTE5ICYjMTA7TCAyMjcyIDUxOSAmIzEwO1EgMjc4MSA1MTkgMzAyNiA3MzAgJiMxMDtRIDMyNzIgOTQxIDMyNzIgMTM3NSAmIzEwO1EgMzI3MiAxODEzIDMwMjYgMjAyMCAmIzEwO1EgMjc4MSAyMjI4IDIyNzIgMjIyOCAmIzEwO0wgMTI1OSAyMjI4ICYjMTA7eiYjMTA7TSAxMjU5IDQxNDcgJiMxMDtMIDEyNTkgMjc0MSAmIzEwO0wgMjE5NCAyNzQxICYjMTA7USAyNjU2IDI3NDEgMjg4MiAyOTE0ICYjMTA7USAzMTA5IDMwODggMzEwOSAzNDQ0ICYjMTA7USAzMTA5IDM3OTcgMjg4MiAzOTcyICYjMTA7USAyNjU2IDQxNDcgMjE5NCA0MTQ3ICYjMTA7TCAxMjU5IDQxNDcgJiMxMDt6JiMxMDtNIDYyOCA0NjY2ICYjMTA7TCAyMjQxIDQ2NjYgJiMxMDtRIDI5NjMgNDY2NiAzMzUzIDQzNjYgJiMxMDtRIDM3NDQgNDA2NiAzNzQ0IDM1MTMgJiMxMDtRIDM3NDQgMzA4NCAzNTQ0IDI4MzEgJiMxMDtRIDMzNDQgMjU3OCAyOTU2IDI1MTYgJiMxMDtRIDM0MjIgMjQxNiAzNjgwIDIwOTggJiMxMDtRIDM5MzggMTc4MSAzOTM4IDEzMDYgJiMxMDtRIDM5MzggNjgxIDM1MTMgMzQwICYjMTA7USAzMDg4IDAgMjMwMyAwICYjMTA7TCA2MjggMCAmIzEwO0wgNjI4IDQ2NjYgJiMxMDt6IiBpZD0iRGVqYVZ1U2Fucy00MiIvPiYjeGE7ICAgICAgIDxwYXRoIHRyYW5zZm9ybT0ic2NhbGUoMC4wMTU2MjUpIiBkPSJNIDUxMyA0ODU2ICYjMTA7TCAxMDEzIDQ4NTYgJiMxMDtRIDE0ODEgNDExOSAxNzE0IDM0MTIgJiMxMDtRIDE5NDcgMjcwNiAxOTQ3IDIwMDkgJiMxMDtRIDE5NDcgMTMwOSAxNzE0IDYwMCAmIzEwO1EgMTQ4MSAtMTA5IDEwMTMgLTg0NCAmIzEwO0wgNTEzIC04NDQgJiMxMDtRIDkyOCAtMTI4IDExMzMgNTgwICYjMTA7USAxMzM4IDEyODggMTMzOCAyMDA5ICYjMTA7USAxMzM4IDI3MzEgMTEzMyAzNDM0ICYjMTA7USA5MjggNDEzOCA1MTMgNDg1NiAmIzEwO3oiIGlkPSJEZWphVnVTYW5zLTI5Ii8+JiN4YTsgICAgICA8L2RlZnM+JiN4YTsgICAgICA8dXNlIHhsaW5rOmhyZWY9IiNEZWphVnVTYW5zLTQ2Ii8+JiN4YTsgICAgICA8dXNlIHg9IjUwLjI2OTUzMSIgeGxpbms6aHJlZj0iI0RlamFWdVNhbnMtNjkiLz4mI3hhOyAgICAgIDx1c2UgeD0iNzguMDUyNzM0IiB4bGluazpocmVmPSIjRGVqYVZ1U2Fucy02YyIvPiYjeGE7ICAgICAgPHVzZSB4PSIxMDUuODM1OTM4IiB4bGluazpocmVmPSIjRGVqYVZ1U2Fucy02NSIvPiYjeGE7ICAgICAgPHVzZSB4PSIxNjcuMzU5Mzc1IiB4bGluazpocmVmPSIjRGVqYVZ1U2Fucy0yMCIvPiYjeGE7ICAgICAgPHVzZSB4PSIxOTkuMTQ2NDg0IiB4bGluazpocmVmPSIjRGVqYVZ1U2Fucy03MyIvPiYjeGE7ICAgICAgPHVzZSB4PSIyNTEuMjQ2MDk0IiB4bGluazpocmVmPSIjRGVqYVZ1U2Fucy02OSIvPiYjeGE7ICAgICAgPHVzZSB4PSIyNzkuMDI5Mjk3IiB4bGluazpocmVmPSIjRGVqYVZ1U2Fucy03YSIvPiYjeGE7ICAgICAgPHVzZSB4PSIzMzEuNTE5NTMxIiB4bGluazpocmVmPSIjRGVqYVZ1U2Fucy02NSIvPiYjeGE7ICAgICAgPHVzZSB4PSIzOTMuMDQyOTY5IiB4bGluazpocmVmPSIjRGVqYVZ1U2Fucy0yMCIvPiYjeGE7ICAgICAgPHVzZSB4PSI0MjQuODMwMDc4IiB4bGluazpocmVmPSIjRGVqYVZ1U2Fucy02OSIvPiYjeGE7ICAgICAgPHVzZSB4PSI0NTIuNjEzMjgxIiB4bGluazpocmVmPSIjRGVqYVZ1U2Fucy02ZSIvPiYjeGE7ICAgICAgPHVzZSB4PSI1MTUuOTkyMTg4IiB4bGluazpocmVmPSIjRGVqYVZ1U2Fucy0yMCIvPiYjeGE7ICAgICAgPHVzZSB4PSI1NDcuNzc5Mjk3IiB4bGluazpocmVmPSIjRGVqYVZ1U2Fucy03NCIvPiYjeGE7ICAgICAgPHVzZSB4PSI1ODYuOTg4MjgxIiB4bGluazpocmVmPSIjRGVqYVZ1U2Fucy02OCIvPiYjeGE7ICAgICAgPHVzZSB4PSI2NTAuMzY3MTg4IiB4bGluazpocmVmPSIjRGVqYVZ1U2Fucy02NSIvPiYjeGE7ICAgICAgPHVzZSB4PSI3MTEuODkwNjI1IiB4bGluazpocmVmPSIjRGVqYVZ1U2Fucy0yMCIvPiYjeGE7ICAgICAgPHVzZSB4PSI3NDMuNjc3NzM0IiB4bGluazpocmVmPSIjRGVqYVZ1U2Fucy02ZCIvPiYjeGE7ICAgICAgPHVzZSB4PSI4NDEuMDg5ODQ0IiB4bGluazpocmVmPSIjRGVqYVZ1U2Fucy02NSIvPiYjeGE7ICAgICAgPHVzZSB4PSI5MDIuNjEzMjgxIiB4bGluazpocmVmPSIjRGVqYVZ1U2Fucy03MyIvPiYjeGE7ICAgICAgPHVzZSB4PSI5NTQuNzEyODkxIiB4bGluazpocmVmPSIjRGVqYVZ1U2Fucy03MyIvPiYjeGE7ICAgICAgPHVzZSB4PSIxMDA2LjgxMjUiIHhsaW5rOmhyZWY9IiNEZWphVnVTYW5zLTYxIi8+JiN4YTsgICAgICA8dXNlIHg9IjEwNjguMDkxNzk3IiB4bGluazpocmVmPSIjRGVqYVZ1U2Fucy02NyIvPiYjeGE7ICAgICAgPHVzZSB4PSIxMTMxLjU2ODM1OSIgeGxpbms6aHJlZj0iI0RlamFWdVNhbnMtNjUiLz4mI3hhOyAgICAgIDx1c2UgeD0iMTE5My4wOTE3OTciIHhsaW5rOmhyZWY9IiNEZWphVnVTYW5zLTIwIi8+JiN4YTsgICAgICA8dXNlIHg9IjEyMjQuODc4OTA2IiB4bGluazpocmVmPSIjRGVqYVZ1U2Fucy0yOCIvPiYjeGE7ICAgICAgPHVzZSB4PSIxMjYzLjg5MjU3OCIgeGxpbms6aHJlZj0iI0RlamFWdVNhbnMtNGQiLz4mI3hhOyAgICAgIDx1c2UgeD0iMTM1MC4xNzE4NzUiIHhsaW5rOmhyZWY9IiNEZWphVnVTYW5zLTQyIi8+JiN4YTsgICAgICA8dXNlIHg9IjE0MTguNzc1MzkxIiB4bGluazpocmVmPSIjRGVqYVZ1U2Fucy0yOSIvPiYjeGE7ICAgICA8L2c+JiN4YTsgICAgPC9nPiYjeGE7ICAgPC9nPiYjeGE7ICAgPGcgaWQ9Im1hdHBsb3RsaWIuYXhpc18yIj4mI3hhOyAgICA8ZyBpZD0ieXRpY2tfMSI+JiN4YTsgICAgIDxnIGlkPSJsaW5lMmRfNyI+JiN4YTsgICAgICA8ZGVmcz4mI3hhOyAgICAgICA8cGF0aCBzdHlsZT0ic3Ryb2tlOiAjMDAwMDAwOyBzdHJva2Utd2lkdGg6IDAuOCIgZD0iTSAwIDAgJiMxMDtMIC0zLjUgMCIgaWQ9Im03NGFiMzgxODNlIi8+JiN4YTsgICAgICA8L2RlZnM+JiN4YTsgICAgICA8Zz4mI3hhOyAgICAgICA8dXNlIHN0eWxlPSJzdHJva2U6ICMwMDAwMDA7IHN0cm9rZS13aWR0aDogMC44IiB5PSIzMDcuNTg0IiB4PSI1Ny42IiB4bGluazpocmVmPSIjbTc0YWIzODE4M2UiLz4mI3hhOyAgICAgIDwvZz4mI3hhOyAgICAgPC9nPiYjeGE7ICAgICA8ZyBpZD0idGV4dF84Ij4mI3hhOyAgICAgICYjeGE7ICAgICAgPGcgdHJhbnNmb3JtPSJ0cmFuc2xhdGUoNDQuMjM3NSAzMTEuMzgzMjE5KSBzY2FsZSgwLjEgLTAuMSkiPiYjeGE7ICAgICAgIDx1c2UgeGxpbms6aHJlZj0iI0RlamFWdVNhbnMtMzAiLz4mI3hhOyAgICAgIDwvZz4mI3hhOyAgICAgPC9nPiYjeGE7ICAgIDwvZz4mI3hhOyAgICA8ZyBpZD0ieXRpY2tfMiI+JiN4YTsgICAgIDxnIGlkPSJsaW5lMmRfOCI+JiN4YTsgICAgICA8Zz4mI3hhOyAgICAgICA8dXNlIHN0eWxlPSJzdHJva2U6ICMwMDAwMDA7IHN0cm9rZS13aWR0aDogMC44IiB5PSIyNjEuNDc2NTg3IiB4PSI1Ny42IiB4bGluazpocmVmPSIjbTc0YWIzODE4M2UiLz4mI3hhOyAgICAgIDwvZz4mI3hhOyAgICAgPC9nPiYjeGE7ICAgICA8ZyBpZD0idGV4dF85Ij4mI3hhOyAgICAgICYjeGE7ICAgICAgPGcgdHJhbnNmb3JtPSJ0cmFuc2xhdGUoMzEuNTEyNSAyNjUuMjc1ODA2KSBzY2FsZSgwLjEgLTAuMSkiPiYjeGE7ICAgICAgIDx1c2UgeGxpbms6aHJlZj0iI0RlamFWdVNhbnMtMzIiLz4mI3hhOyAgICAgICA8dXNlIHg9IjYzLjYyMzA0NyIgeGxpbms6aHJlZj0iI0RlamFWdVNhbnMtMzAiLz4mI3hhOyAgICAgICA8dXNlIHg9IjEyNy4yNDYwOTQiIHhsaW5rOmhyZWY9IiNEZWphVnVTYW5zLTMwIi8+JiN4YTsgICAgICA8L2c+JiN4YTsgICAgIDwvZz4mI3hhOyAgICA8L2c+JiN4YTsgICAgPGcgaWQ9Inl0aWNrXzMiPiYjeGE7ICAgICA8ZyBpZD0ibGluZTJkXzkiPiYjeGE7ICAgICAgPGc+JiN4YTsgICAgICAgPHVzZSBzdHlsZT0ic3Ryb2tlOiAjMDAwMDAwOyBzdHJva2Utd2lkdGg6IDAuOCIgeT0iMjE1LjM2OTE3NCIgeD0iNTcuNiIgeGxpbms6aHJlZj0iI203NGFiMzgxODNlIi8+JiN4YTsgICAgICA8L2c+JiN4YTsgICAgIDwvZz4mI3hhOyAgICAgPGcgaWQ9InRleHRfMTAiPiYjeGE7ICAgICAgJiN4YTsgICAgICA8ZyB0cmFuc2Zvcm09InRyYW5zbGF0ZSgzMS41MTI1IDIxOS4xNjgzOTMpIHNjYWxlKDAuMSAtMC4xKSI+JiN4YTsgICAgICAgPHVzZSB4bGluazpocmVmPSIjRGVqYVZ1U2Fucy0zNCIvPiYjeGE7ICAgICAgIDx1c2UgeD0iNjMuNjIzMDQ3IiB4bGluazpocmVmPSIjRGVqYVZ1U2Fucy0zMCIvPiYjeGE7ICAgICAgIDx1c2UgeD0iMTI3LjI0NjA5NCIgeGxpbms6aHJlZj0iI0RlamFWdVNhbnMtMzAiLz4mI3hhOyAgICAgIDwvZz4mI3hhOyAgICAgPC9nPiYjeGE7ICAgIDwvZz4mI3hhOyAgICA8ZyBpZD0ieXRpY2tfNCI+JiN4YTsgICAgIDxnIGlkPSJsaW5lMmRfMTAiPiYjeGE7ICAgICAgPGc+JiN4YTsgICAgICAgPHVzZSBzdHlsZT0ic3Ryb2tlOiAjMDAwMDAwOyBzdHJva2Utd2lkdGg6IDAuOCIgeT0iMTY5LjI2MTc2MSIgeD0iNTcuNiIgeGxpbms6aHJlZj0iI203NGFiMzgxODNlIi8+JiN4YTsgICAgICA8L2c+JiN4YTsgICAgIDwvZz4mI3hhOyAgICAgPGcgaWQ9InRleHRfMTEiPiYjeGE7ICAgICAgJiN4YTsgICAgICA8ZyB0cmFuc2Zvcm09InRyYW5zbGF0ZSgzMS41MTI1IDE3My4wNjA5OCkgc2NhbGUoMC4xIC0wLjEpIj4mI3hhOyAgICAgICA8dXNlIHhsaW5rOmhyZWY9IiNEZWphVnVTYW5zLTM2Ii8+JiN4YTsgICAgICAgPHVzZSB4PSI2My42MjMwNDciIHhsaW5rOmhyZWY9IiNEZWphVnVTYW5zLTMwIi8+JiN4YTsgICAgICAgPHVzZSB4PSIxMjcuMjQ2MDk0IiB4bGluazpocmVmPSIjRGVqYVZ1U2Fucy0zMCIvPiYjeGE7ICAgICAgPC9nPiYjeGE7ICAgICA8L2c+JiN4YTsgICAgPC9nPiYjeGE7ICAgIDxnIGlkPSJ5dGlja181Ij4mI3hhOyAgICAgPGcgaWQ9ImxpbmUyZF8xMSI+JiN4YTsgICAgICA8Zz4mI3hhOyAgICAgICA8dXNlIHN0eWxlPSJzdHJva2U6ICMwMDAwMDA7IHN0cm9rZS13aWR0aDogMC44IiB5PSIxMjMuMTU0MzQ4IiB4PSI1Ny42IiB4bGluazpocmVmPSIjbTc0YWIzODE4M2UiLz4mI3hhOyAgICAgIDwvZz4mI3hhOyAgICAgPC9nPiYjeGE7ICAgICA8ZyBpZD0idGV4dF8xMiI+JiN4YTsgICAgICAmI3hhOyAgICAgIDxnIHRyYW5zZm9ybT0idHJhbnNsYXRlKDMxLjUxMjUgMTI2Ljk1MzU2Nykgc2NhbGUoMC4xIC0wLjEpIj4mI3hhOyAgICAgICA8dXNlIHhsaW5rOmhyZWY9IiNEZWphVnVTYW5zLTM4Ii8+JiN4YTsgICAgICAgPHVzZSB4PSI2My42MjMwNDciIHhsaW5rOmhyZWY9IiNEZWphVnVTYW5zLTMwIi8+JiN4YTsgICAgICAgPHVzZSB4PSIxMjcuMjQ2MDk0IiB4bGluazpocmVmPSIjRGVqYVZ1U2Fucy0zMCIvPiYjeGE7ICAgICAgPC9nPiYjeGE7ICAgICA8L2c+JiN4YTsgICAgPC9nPiYjeGE7ICAgIDxnIGlkPSJ5dGlja182Ij4mI3hhOyAgICAgPGcgaWQ9ImxpbmUyZF8xMiI+JiN4YTsgICAgICA8Zz4mI3hhOyAgICAgICA8dXNlIHN0eWxlPSJzdHJva2U6ICMwMDAwMDA7IHN0cm9rZS13aWR0aDogMC44IiB5PSI3Ny4wNDY5MzUiIHg9IjU3LjYiIHhsaW5rOmhyZWY9IiNtNzRhYjM4MTgzZSIvPiYjeGE7ICAgICAgPC9nPiYjeGE7ICAgICA8L2c+JiN4YTsgICAgIDxnIGlkPSJ0ZXh0XzEzIj4mI3hhOyAgICAgICYjeGE7ICAgICAgPGcgdHJhbnNmb3JtPSJ0cmFuc2xhdGUoMjUuMTUgODAuODQ2MTU0KSBzY2FsZSgwLjEgLTAuMSkiPiYjeGE7ICAgICAgIDx1c2UgeGxpbms6aHJlZj0iI0RlamFWdVNhbnMtMzEiLz4mI3hhOyAgICAgICA8dXNlIHg9IjYzLjYyMzA0NyIgeGxpbms6aHJlZj0iI0RlamFWdVNhbnMtMzAiLz4mI3hhOyAgICAgICA8dXNlIHg9IjEyNy4yNDYwOTQiIHhsaW5rOmhyZWY9IiNEZWphVnVTYW5zLTMwIi8+JiN4YTsgICAgICAgPHVzZSB4PSIxOTAuODY5MTQxIiB4bGluazpocmVmPSIjRGVqYVZ1U2Fucy0zMCIvPiYjeGE7ICAgICAgPC9nPiYjeGE7ICAgICA8L2c+JiN4YTsgICAgPC9nPiYjeGE7ICAgIDxnIGlkPSJ0ZXh0XzE0Ij4mI3hhOyAgICAgJiN4YTsgICAgIDxnIHRyYW5zZm9ybT0idHJhbnNsYXRlKDE5LjA3MDMxMiAyNDkuMjM5NzE5KSByb3RhdGUoLTkwKSBzY2FsZSgwLjEgLTAuMSkiPiYjeGE7ICAgICAgPGRlZnM+JiN4YTsgICAgICAgPHBhdGggdHJhbnNmb3JtPSJzY2FsZSgwLjAxNTYyNSkiIGQ9Ik0gNjI4IDQ2NjYgJiMxMDtMIDM1NzggNDY2NiAmIzEwO0wgMzU3OCA0MTM0ICYjMTA7TCAxMjU5IDQxMzQgJiMxMDtMIDEyNTkgMjc1MyAmIzEwO0wgMzQ4MSAyNzUzICYjMTA7TCAzNDgxIDIyMjIgJiMxMDtMIDEyNTkgMjIyMiAmIzEwO0wgMTI1OSA1MzEgJiMxMDtMIDM2MzQgNTMxICYjMTA7TCAzNjM0IDAgJiMxMDtMIDYyOCAwICYjMTA7TCA2MjggNDY2NiAmIzEwO3oiIGlkPSJEZWphVnVTYW5zLTQ1Ii8+JiN4YTsgICAgICAgPHBhdGggdHJhbnNmb3JtPSJzY2FsZSgwLjAxNTYyNSkiIGQ9Ik0gMzUxMyAzNTAwICYjMTA7TCAyMjQ3IDE3OTcgJiMxMDtMIDM1NzggMCAmIzEwO0wgMjkwMCAwICYjMTA7TCAxODgxIDEzNzUgJiMxMDtMIDg2MyAwICYjMTA7TCAxODQgMCAmIzEwO0wgMTU0NCAxODMxICYjMTA7TCAzMDAgMzUwMCAmIzEwO0wgOTc4IDM1MDAgJiMxMDtMIDE5MDYgMjI1MyAmIzEwO0wgMjgzNCAzNTAwICYjMTA7TCAzNTEzIDM1MDAgJiMxMDt6IiBpZD0iRGVqYVZ1U2Fucy03OCIvPiYjeGE7ICAgICAgIDxwYXRoIHRyYW5zZm9ybT0ic2NhbGUoMC4wMTU2MjUpIiBkPSJNIDMxMjIgMzM2NiAmIzEwO0wgMzEyMiAyODI4ICYjMTA7USAyODc4IDI5NjMgMjYzMyAzMDMwICYjMTA7USAyMzg4IDMwOTcgMjEzOCAzMDk3ICYjMTA7USAxNTc4IDMwOTcgMTI2OCAyNzQyICYjMTA7USA5NTkgMjM4OCA5NTkgMTc0NyAmIzEwO1EgOTU5IDExMDYgMTI2OCA3NTEgJiMxMDtRIDE1NzggMzk3IDIxMzggMzk3ICYjMTA7USAyMzg4IDM5NyAyNjMzIDQ2NCAmIzEwO1EgMjg3OCA1MzEgMzEyMiA2NjYgJiMxMDtMIDMxMjIgMTM0ICYjMTA7USAyODgxIDIyIDI2MjMgLTM0ICYjMTA7USAyMzY2IC05MSAyMDc1IC05MSAmIzEwO1EgMTI4NCAtOTEgODE4IDQwNiAmIzEwO1EgMzUzIDkwMyAzNTMgMTc0NyAmIzEwO1EgMzUzIDI2MDMgODIzIDMwOTMgJiMxMDtRIDEyOTQgMzU4NCAyMTEzIDM1ODQgJiMxMDtRIDIzNzggMzU4NCAyNjMxIDM1MjkgJiMxMDtRIDI4ODQgMzQ3NSAzMTIyIDMzNjYgJiMxMDt6IiBpZD0iRGVqYVZ1U2Fucy02MyIvPiYjeGE7ICAgICAgIDxwYXRoIHRyYW5zZm9ybT0ic2NhbGUoMC4wMTU2MjUpIiBkPSJNIDU0NCAxMzgxICYjMTA7TCA1NDQgMzUwMCAmIzEwO0wgMTExOSAzNTAwICYjMTA7TCAxMTE5IDE0MDMgJiMxMDtRIDExMTkgOTA2IDEzMTIgNjU3ICYjMTA7USAxNTA2IDQwOSAxODk0IDQwOSAmIzEwO1EgMjM1OSA0MDkgMjYyOSA3MDYgJiMxMDtRIDI5MDAgMTAwMyAyOTAwIDE1MTYgJiMxMDtMIDI5MDAgMzUwMCAmIzEwO0wgMzQ3NSAzNTAwICYjMTA7TCAzNDc1IDAgJiMxMDtMIDI5MDAgMCAmIzEwO0wgMjkwMCA1MzggJiMxMDtRIDI2OTEgMjE5IDI0MTQgNjQgJiMxMDtRIDIxMzggLTkxIDE3NzIgLTkxICYjMTA7USAxMTY5IC05MSA4NTYgMjg0ICYjMTA7USA1NDQgNjU5IDU0NCAxMzgxICYjMTA7eiYjMTA7TSAxOTkxIDM1ODQgJiMxMDtMIDE5OTEgMzU4NCAmIzEwO3oiIGlkPSJEZWphVnVTYW5zLTc1Ii8+JiN4YTsgICAgICAgPHBhdGggdHJhbnNmb3JtPSJzY2FsZSgwLjAxNTYyNSkiIGQ9Ik0gMTk1OSAzMDk3ICYjMTA7USAxNDk3IDMwOTcgMTIyOCAyNzM2ICYjMTA7USA5NTkgMjM3NSA5NTkgMTc0NyAmIzEwO1EgOTU5IDExMTkgMTIyNiA3NTggJiMxMDtRIDE0OTQgMzk3IDE5NTkgMzk3ICYjMTA7USAyNDE5IDM5NyAyNjg3IDc1OSAmIzEwO1EgMjk1NiAxMTIyIDI5NTYgMTc0NyAmIzEwO1EgMjk1NiAyMzY5IDI2ODcgMjczMyAmIzEwO1EgMjQxOSAzMDk3IDE5NTkgMzA5NyAmIzEwO3omIzEwO00gMTk1OSAzNTg0ICYjMTA7USAyNzA5IDM1ODQgMzEzNyAzMDk2ICYjMTA7USAzNTY2IDI2MDkgMzU2NiAxNzQ3ICYjMTA7USAzNTY2IDg4OCAzMTM3IDM5OCAmIzEwO1EgMjcwOSAtOTEgMTk1OSAtOTEgJiMxMDtRIDEyMDYgLTkxIDc3OSAzOTggJiMxMDtRIDM1MyA4ODggMzUzIDE3NDcgJiMxMDtRIDM1MyAyNjA5IDc3OSAzMDk2ICYjMTA7USAxMjA2IDM1ODQgMTk1OSAzNTg0ICYjMTA7eiIgaWQ9IkRlamFWdVNhbnMtNmYiLz4mI3hhOyAgICAgICA8cGF0aCB0cmFuc2Zvcm09InNjYWxlKDAuMDE1NjI1KSIgZD0iTSAtMTkgNDY2NiAmIzEwO0wgMzkyOCA0NjY2ICYjMTA7TCAzOTI4IDQxMzQgJiMxMDtMIDIyNzIgNDEzNCAmIzEwO0wgMjI3MiAwICYjMTA7TCAxNjM4IDAgJiMxMDtMIDE2MzggNDEzNCAmIzEwO0wgLTE5IDQxMzQgJiMxMDtMIC0xOSA0NjY2ICYjMTA7eiIgaWQ9IkRlamFWdVNhbnMtNTQiLz4mI3hhOyAgICAgICA8cGF0aCB0cmFuc2Zvcm09InNjYWxlKDAuMDE1NjI1KSIgZD0iTSAyOTA2IDI5NjkgJiMxMDtMIDI5MDYgNDg2MyAmIzEwO0wgMzQ4MSA0ODYzICYjMTA7TCAzNDgxIDAgJiMxMDtMIDI5MDYgMCAmIzEwO0wgMjkwNiA1MjUgJiMxMDtRIDI3MjUgMjEzIDI0NDggNjEgJiMxMDtRIDIxNzIgLTkxIDE3ODQgLTkxICYjMTA7USAxMTUwIC05MSA3NTEgNDE1ICYjMTA7USAzNTMgOTIyIDM1MyAxNzQ3ICYjMTA7USAzNTMgMjU3MiA3NTEgMzA3OCAmIzEwO1EgMTE1MCAzNTg0IDE3ODQgMzU4NCAmIzEwO1EgMjE3MiAzNTg0IDI0NDggMzQzMiAmIzEwO1EgMjcyNSAzMjgxIDI5MDYgMjk2OSAmIzEwO3omIzEwO00gOTQ3IDE3NDcgJiMxMDtRIDk0NyAxMTEzIDEyMDggNzUyICYjMTA7USAxNDY5IDM5MSAxOTI1IDM5MSAmIzEwO1EgMjM4MSAzOTEgMjY0MyA3NTIgJiMxMDtRIDI5MDYgMTExMyAyOTA2IDE3NDcgJiMxMDtRIDI5MDYgMjM4MSAyNjQzIDI3NDIgJiMxMDtRIDIzODEgMzEwMyAxOTI1IDMxMDMgJiMxMDtRIDE0NjkgMzEwMyAxMjA4IDI3NDIgJiMxMDtRIDk0NyAyMzgxIDk0NyAxNzQ3ICYjMTA7eiIgaWQ9IkRlamFWdVNhbnMtNjQiLz4mI3hhOyAgICAgIDwvZGVmcz4mI3hhOyAgICAgIDx1c2UgeGxpbms6aHJlZj0iI0RlamFWdVNhbnMtNDUiLz4mI3hhOyAgICAgIDx1c2UgeD0iNjMuMTgzNTk0IiB4bGluazpocmVmPSIjRGVqYVZ1U2Fucy03OCIvPiYjeGE7ICAgICAgPHVzZSB4PSIxMTkuMjM4MjgxIiB4bGluazpocmVmPSIjRGVqYVZ1U2Fucy02NSIvPiYjeGE7ICAgICAgPHVzZSB4PSIxODAuNzYxNzE5IiB4bGluazpocmVmPSIjRGVqYVZ1U2Fucy02MyIvPiYjeGE7ICAgICAgPHVzZSB4PSIyMzUuNzQyMTg4IiB4bGluazpocmVmPSIjRGVqYVZ1U2Fucy03NSIvPiYjeGE7ICAgICAgPHVzZSB4PSIyOTkuMTIxMDk0IiB4bGluazpocmVmPSIjRGVqYVZ1U2Fucy03NCIvPiYjeGE7ICAgICAgPHVzZSB4PSIzMzguMzMwMDc4IiB4bGluazpocmVmPSIjRGVqYVZ1U2Fucy02OSIvPiYjeGE7ICAgICAgPHVzZSB4PSIzNjYuMTEzMjgxIiB4bGluazpocmVmPSIjRGVqYVZ1U2Fucy02ZiIvPiYjeGE7ICAgICAgPHVzZSB4PSI0MjcuMjk0OTIyIiB4bGluazpocmVmPSIjRGVqYVZ1U2Fucy02ZSIvPiYjeGE7ICAgICAgPHVzZSB4PSI0OTAuNjczODI4IiB4bGluazpocmVmPSIjRGVqYVZ1U2Fucy0yMCIvPiYjeGE7ICAgICAgPHVzZSB4PSI1MjIuNDYwOTM4IiB4bGluazpocmVmPSIjRGVqYVZ1U2Fucy01NCIvPiYjeGE7ICAgICAgPHVzZSB4PSI1ODAuNDE5OTIyIiB4bGluazpocmVmPSIjRGVqYVZ1U2Fucy02OSIvPiYjeGE7ICAgICAgPHVzZSB4PSI2MDguMjAzMTI1IiB4bGluazpocmVmPSIjRGVqYVZ1U2Fucy02ZCIvPiYjeGE7ICAgICAgPHVzZSB4PSI3MDUuNjE1MjM0IiB4bGluazpocmVmPSIjRGVqYVZ1U2Fucy02NSIvPiYjeGE7ICAgICAgPHVzZSB4PSI3NjcuMTM4NjcyIiB4bGluazpocmVmPSIjRGVqYVZ1U2Fucy0yMCIvPiYjeGE7ICAgICAgPHVzZSB4PSI3OTguOTI1NzgxIiB4bGluazpocmVmPSIjRGVqYVZ1U2Fucy0yOCIvPiYjeGE7ICAgICAgPHVzZSB4PSI4MzcuOTM5NDUzIiB4bGluazpocmVmPSIjRGVqYVZ1U2Fucy02ZCIvPiYjeGE7ICAgICAgPHVzZSB4PSI5MzUuMzUxNTYyIiB4bGluazpocmVmPSIjRGVqYVZ1U2Fucy02OSIvPiYjeGE7ICAgICAgPHVzZSB4PSI5NjMuMTM0NzY2IiB4bGluazpocmVmPSIjRGVqYVZ1U2Fucy02YyIvPiYjeGE7ICAgICAgPHVzZSB4PSI5OTAuOTE3OTY5IiB4bGluazpocmVmPSIjRGVqYVZ1U2Fucy02YyIvPiYjeGE7ICAgICAgPHVzZSB4PSIxMDE4LjcwMTE3MiIgeGxpbms6aHJlZj0iI0RlamFWdVNhbnMtNjkiLz4mI3hhOyAgICAgIDx1c2UgeD0iMTA0Ni40ODQzNzUiIHhsaW5rOmhyZWY9IiNEZWphVnVTYW5zLTczIi8+JiN4YTsgICAgICA8dXNlIHg9IjEwOTguNTgzOTg0IiB4bGluazpocmVmPSIjRGVqYVZ1U2Fucy02NSIvPiYjeGE7ICAgICAgPHVzZSB4PSIxMTYwLjEwNzQyMiIgeGxpbms6aHJlZj0iI0RlamFWdVNhbnMtNjMiLz4mI3hhOyAgICAgIDx1c2UgeD0iMTIxNS4wODc4OTEiIHhsaW5rOmhyZWY9IiNEZWphVnVTYW5zLTZmIi8+JiN4YTsgICAgICA8dXNlIHg9IjEyNzYuMjY5NTMxIiB4bGluazpocmVmPSIjRGVqYVZ1U2Fucy02ZSIvPiYjeGE7ICAgICAgPHVzZSB4PSIxMzM5LjY0ODQzOCIgeGxpbms6aHJlZj0iI0RlamFWdVNhbnMtNjQiLz4mI3hhOyAgICAgIDx1c2UgeD0iMTQwMy4xMjUiIHhsaW5rOmhyZWY9IiNEZWphVnVTYW5zLTczIi8+JiN4YTsgICAgICA8dXNlIHg9IjE0NTUuMjI0NjA5IiB4bGluazpocmVmPSIjRGVqYVZ1U2Fucy0yOSIvPiYjeGE7ICAgICA8L2c+JiN4YTsgICAgPC9nPiYjeGE7ICAgPC9nPiYjeGE7ICAgPGcgaWQ9InBhdGNoXzkiPiYjeGE7ICAgIDxwYXRoIHN0eWxlPSJmaWxsOiBub25lOyBzdHJva2U6ICMwMDAwMDA7IHN0cm9rZS13aWR0aDogMC44OyBzdHJva2UtbGluZWpvaW46IG1pdGVyOyBzdHJva2UtbGluZWNhcDogc3F1YXJlIiBkPSJNIDU3LjYgMzA3LjU4NCAmIzEwO0wgNTcuNiA0MS40NzIiLz4mI3hhOyAgIDwvZz4mI3hhOyAgIDxnIGlkPSJwYXRjaF8xMCI+JiN4YTsgICAgPHBhdGggc3R5bGU9ImZpbGw6IG5vbmU7IHN0cm9rZTogIzAwMDAwMDsgc3Ryb2tlLXdpZHRoOiAwLjg7IHN0cm9rZS1saW5lam9pbjogbWl0ZXI7IHN0cm9rZS1saW5lY2FwOiBzcXVhcmUiIGQ9Ik0gNDE0LjcyIDMwNy41ODQgJiMxMDtMIDQxNC43MiA0MS40NzIiLz4mI3hhOyAgIDwvZz4mI3hhOyAgIDxnIGlkPSJwYXRjaF8xMSI+JiN4YTsgICAgPHBhdGggc3R5bGU9ImZpbGw6IG5vbmU7IHN0cm9rZTogIzAwMDAwMDsgc3Ryb2tlLXdpZHRoOiAwLjg7IHN0cm9rZS1saW5lam9pbjogbWl0ZXI7IHN0cm9rZS1saW5lY2FwOiBzcXVhcmUiIGQ9Ik0gNTcuNiAzMDcuNTg0ICYjMTA7TCA0MTQuNzIgMzA3LjU4NCIvPiYjeGE7ICAgPC9nPiYjeGE7ICAgPGcgaWQ9InBhdGNoXzEyIj4mI3hhOyAgICA8cGF0aCBzdHlsZT0iZmlsbDogbm9uZTsgc3Ryb2tlOiAjMDAwMDAwOyBzdHJva2Utd2lkdGg6IDAuODsgc3Ryb2tlLWxpbmVqb2luOiBtaXRlcjsgc3Ryb2tlLWxpbmVjYXA6IHNxdWFyZSIgZD0iTSA1Ny42IDQxLjQ3MiAmIzEwO0wgNDE0LjcyIDQxLjQ3MiIvPiYjeGE7ICAgPC9nPiYjeGE7ICAgPGcgaWQ9InRleHRfMTUiPiYjeGE7ICAgICYjeGE7ICAgIDxnIHRyYW5zZm9ybT0idHJhbnNsYXRlKDY1Ljc2MjAyMSAzMDAuOTEwMTcpIHNjYWxlKDAuMSAtMC4xKSI+JiN4YTsgICAgIDxkZWZzPiYjeGE7ICAgICAgPHBhdGggdHJhbnNmb3JtPSJzY2FsZSgwLjAxNTYyNSkiIGQ9Ik0gNzAzIDk3ICYjMTA7TCA3MDMgNjcyICYjMTA7USA5NDEgNTU5IDExODQgNTAwICYjMTA7USAxNDI4IDQ0MSAxNjYzIDQ0MSAmIzEwO1EgMjI4OCA0NDEgMjYxNyA4NjEgJiMxMDtRIDI5NDcgMTI4MSAyOTk0IDIxMzggJiMxMDtRIDI4MTMgMTg2OSAyNTM0IDE3MjUgJiMxMDtRIDIyNTYgMTU4MSAxOTE5IDE1ODEgJiMxMDtRIDEyMTkgMTU4MSA4MTEgMjAwNCAmIzEwO1EgNDAzIDI0MjggNDAzIDMxNjMgJiMxMDtRIDQwMyAzODgxIDgyOCA0MzE1ICYjMTA7USAxMjUzIDQ3NTAgMTk1OSA0NzUwICYjMTA7USAyNzY5IDQ3NTAgMzE5NSA0MTI5ICYjMTA7USAzNjIyIDM1MDkgMzYyMiAyMzI4ICYjMTA7USAzNjIyIDEyMjUgMzA5OCA1NjcgJiMxMDtRIDI1NzUgLTkxIDE2OTEgLTkxICYjMTA7USAxNDUzIC05MSAxMjA5IC00NCAmIzEwO1EgOTY2IDMgNzAzIDk3ICYjMTA7eiYjMTA7TSAxOTU5IDIwNzUgJiMxMDtRIDIzODQgMjA3NSAyNjMyIDIzNjUgJiMxMDtRIDI4ODEgMjY1NiAyODgxIDMxNjMgJiMxMDtRIDI4ODEgMzY2NiAyNjMyIDM5NTggJiMxMDtRIDIzODQgNDI1MCAxOTU5IDQyNTAgJiMxMDtRIDE1MzQgNDI1MCAxMjg2IDM5NTggJiMxMDtRIDEwMzggMzY2NiAxMDM4IDMxNjMgJiMxMDtRIDEwMzggMjY1NiAxMjg2IDIzNjUgJiMxMDtRIDE1MzQgMjA3NSAxOTU5IDIwNzUgJiMxMDt6IiBpZD0iRGVqYVZ1U2Fucy0zOSIvPiYjeGE7ICAgICAgPHBhdGggdHJhbnNmb3JtPSJzY2FsZSgwLjAxNTYyNSkiIGQ9Ik0gNjg0IDc5NCAmIzEwO0wgMTM0NCA3OTQgJiMxMDtMIDEzNDQgMCAmIzEwO0wgNjg0IDAgJiMxMDtMIDY4NCA3OTQgJiMxMDt6IiBpZD0iRGVqYVZ1U2Fucy0yZSIvPiYjeGE7ICAgICAgPHBhdGggdHJhbnNmb3JtPSJzY2FsZSgwLjAxNTYyNSkiIGQ9Ik0gMjU5NyAyNTE2ICYjMTA7USAzMDUwIDI0MTkgMzMwNCAyMTEyICYjMTA7USAzNTU5IDE4MDYgMzU1OSAxMzU2ICYjMTA7USAzNTU5IDY2NiAzMDg0IDI4NyAmIzEwO1EgMjYwOSAtOTEgMTczNCAtOTEgJiMxMDtRIDE0NDEgLTkxIDExMzAgLTMzICYjMTA7USA4MTkgMjUgNDg4IDE0MSAmIzEwO0wgNDg4IDc1MCAmIzEwO1EgNzUwIDU5NyAxMDYyIDUxOSAmIzEwO1EgMTM3NSA0NDEgMTcxNiA0NDEgJiMxMDtRIDIzMDkgNDQxIDI2MjAgNjc1ICYjMTA7USAyOTMxIDkwOSAyOTMxIDEzNTYgJiMxMDtRIDI5MzEgMTc2OSAyNjQyIDIwMDEgJiMxMDtRIDIzNTMgMjIzNCAxODM4IDIyMzQgJiMxMDtMIDEyOTQgMjIzNCAmIzEwO0wgMTI5NCAyNzUzICYjMTA7TCAxODYzIDI3NTMgJiMxMDtRIDIzMjggMjc1MyAyNTc1IDI5MzkgJiMxMDtRIDI4MjIgMzEyNSAyODIyIDM0NzUgJiMxMDtRIDI4MjIgMzgzNCAyNTY3IDQwMjYgJiMxMDtRIDIzMTMgNDIxOSAxODM4IDQyMTkgJiMxMDtRIDE1NzggNDIxOSAxMjgxIDQxNjIgJiMxMDtRIDk4NCA0MTA2IDYyOCAzOTg4ICYjMTA7TCA2MjggNDU1MCAmIzEwO1EgOTg4IDQ2NTAgMTMwMiA0NzAwICYjMTA7USAxNjE2IDQ3NTAgMTg5NCA0NzUwICYjMTA7USAyNjEzIDQ3NTAgMzAzMSA0NDIzICYjMTA7USAzNDUwIDQwOTcgMzQ1MCAzNTQxICYjMTA7USAzNDUwIDMxNTMgMzIyOCAyODg2ICYjMTA7USAzMDA2IDI2MTkgMjU5NyAyNTE2ICYjMTA7eiIgaWQ9IkRlamFWdVNhbnMtMzMiLz4mI3hhOyAgICAgPC9kZWZzPiYjeGE7ICAgICA8dXNlIHhsaW5rOmhyZWY9IiNEZWphVnVTYW5zLTMxIi8+JiN4YTsgICAgIDx1c2UgeD0iNjMuNjIzMDQ3IiB4bGluazpocmVmPSIjRGVqYVZ1U2Fucy0zOSIvPiYjeGE7ICAgICA8dXNlIHg9IjEyNy4yNDYwOTQiIHhsaW5rOmhyZWY9IiNEZWphVnVTYW5zLTJlIi8+JiN4YTsgICAgIDx1c2UgeD0iMTU5LjAzMzIwMyIgeGxpbms6aHJlZj0iI0RlamFWdVNhbnMtMzgiLz4mI3hhOyAgICAgPHVzZSB4PSIyMjIuNjU2MjUiIHhsaW5rOmhyZWY9IiNEZWphVnVTYW5zLTMzIi8+JiN4YTsgICAgPC9nPiYjeGE7ICAgPC9nPiYjeGE7ICAgPGcgaWQ9InRleHRfMTYiPiYjeGE7ICAgICYjeGE7ICAgIDxnIHRyYW5zZm9ybT0idHJhbnNsYXRlKDEyNS4wMTQzMzggMjQ3LjQ5NTE5Mykgc2NhbGUoMC4xIC0wLjEpIj4mI3hhOyAgICAgPGRlZnM+JiN4YTsgICAgICA8cGF0aCB0cmFuc2Zvcm09InNjYWxlKDAuMDE1NjI1KSIgZD0iTSA2OTEgNDY2NiAmIzEwO0wgMzE2OSA0NjY2ICYjMTA7TCAzMTY5IDQxMzQgJiMxMDtMIDEyNjkgNDEzNCAmIzEwO0wgMTI2OSAyOTkxICYjMTA7USAxNDA2IDMwMzggMTU0MyAzMDYxICYjMTA7USAxNjgxIDMwODQgMTgxOSAzMDg0ICYjMTA7USAyNjAwIDMwODQgMzA1NiAyNjU2ICYjMTA7USAzNTEzIDIyMjggMzUxMyAxNDk3ICYjMTA7USAzNTEzIDc0NCAzMDQ0IDMyNiAmIzEwO1EgMjU3NSAtOTEgMTcyMiAtOTEgJiMxMDtRIDE0MjggLTkxIDExMjMgLTQxICYjMTA7USA4MTkgOSA0OTQgMTA5ICYjMTA7TCA0OTQgNzQ0ICYjMTA7USA3NzUgNTkxIDEwNzUgNTE2ICYjMTA7USAxMzc1IDQ0MSAxNzA5IDQ0MSAmIzEwO1EgMjI1MCA0NDEgMjU2NSA3MjUgJiMxMDtRIDI4ODEgMTAwOSAyODgxIDE0OTcgJiMxMDtRIDI4ODEgMTk4NCAyNTY1IDIyNjggJiMxMDtRIDIyNTAgMjU1MyAxNzA5IDI1NTMgJiMxMDtRIDE0NTYgMjU1MyAxMjA0IDI0OTcgJiMxMDtRIDk1MyAyNDQxIDY5MSAyMzIyICYjMTA7TCA2OTEgNDY2NiAmIzEwO3oiIGlkPSJEZWphVnVTYW5zLTM1Ii8+JiN4YTsgICAgIDwvZGVmcz4mI3hhOyAgICAgPHVzZSB4bGluazpocmVmPSIjRGVqYVZ1U2Fucy0zMiIvPiYjeGE7ICAgICA8dXNlIHg9IjYzLjYyMzA0NyIgeGxpbms6aHJlZj0iI0RlamFWdVNhbnMtMzUiLz4mI3hhOyAgICAgPHVzZSB4PSIxMjcuMjQ2MDk0IiB4bGluazpocmVmPSIjRGVqYVZ1U2Fucy0zMSIvPiYjeGE7ICAgICA8dXNlIHg9IjE5MC44NjkxNDEiIHhsaW5rOmhyZWY9IiNEZWphVnVTYW5zLTJlIi8+JiN4YTsgICAgIDx1c2UgeD0iMjIyLjY1NjI1IiB4bGluazpocmVmPSIjRGVqYVZ1U2Fucy0zNSIvPiYjeGE7ICAgICA8dXNlIHg9IjI4Ni4yNzkyOTciIHhsaW5rOmhyZWY9IiNEZWphVnVTYW5zLTMzIi8+JiN4YTsgICAgPC9nPiYjeGE7ICAgPC9nPiYjeGE7ICAgPGcgaWQ9InRleHRfMTciPiYjeGE7ICAgICYjeGE7ICAgIDxnIHRyYW5zZm9ybT0idHJhbnNsYXRlKDE4Ny40NDc5MDQgMTkzLjIwODc4Nikgc2NhbGUoMC4xIC0wLjEpIj4mI3hhOyAgICAgPGRlZnM+JiN4YTsgICAgICA8cGF0aCB0cmFuc2Zvcm09InNjYWxlKDAuMDE1NjI1KSIgZD0iTSA1MjUgNDY2NiAmIzEwO0wgMzUyNSA0NjY2ICYjMTA7TCAzNTI1IDQzOTcgJiMxMDtMIDE4MzEgMCAmIzEwO0wgMTE3MiAwICYjMTA7TCAyNzY2IDQxMzQgJiMxMDtMIDUyNSA0MTM0ICYjMTA7TCA1MjUgNDY2NiAmIzEwO3oiIGlkPSJEZWphVnVTYW5zLTM3Ii8+JiN4YTsgICAgIDwvZGVmcz4mI3hhOyAgICAgPHVzZSB4bGluazpocmVmPSIjRGVqYVZ1U2Fucy0zNCIvPiYjeGE7ICAgICA8dXNlIHg9IjYzLjYyMzA0NyIgeGxpbms6aHJlZj0iI0RlamFWdVNhbnMtMzgiLz4mI3hhOyAgICAgPHVzZSB4PSIxMjcuMjQ2MDk0IiB4bGluazpocmVmPSIjRGVqYVZ1U2Fucy0zNyIvPiYjeGE7ICAgICA8dXNlIHg9IjE5MC44NjkxNDEiIHhsaW5rOmhyZWY9IiNEZWphVnVTYW5zLTJlIi8+JiN4YTsgICAgIDx1c2UgeD0iMjIyLjY1NjI1IiB4bGluazpocmVmPSIjRGVqYVZ1U2Fucy0zMCIvPiYjeGE7ICAgICA8dXNlIHg9IjI4Ni4yNzkyOTciIHhsaW5rOmhyZWY9IiNEZWphVnVTYW5zLTMwIi8+JiN4YTsgICAgPC9nPiYjeGE7ICAgPC9nPiYjeGE7ICAgPGcgaWQ9InRleHRfMTgiPiYjeGE7ICAgICYjeGE7ICAgIDxnIHRyYW5zZm9ybT0idHJhbnNsYXRlKDI0OS44ODE0NzEgMTQzLjk1Njg0OCkgc2NhbGUoMC4xIC0wLjEpIj4mI3hhOyAgICAgPHVzZSB4bGluazpocmVmPSIjRGVqYVZ1U2Fucy0zNyIvPiYjeGE7ICAgICA8dXNlIHg9IjYzLjYyMzA0NyIgeGxpbms6aHJlZj0iI0RlamFWdVNhbnMtMzAiLz4mI3hhOyAgICAgPHVzZSB4PSIxMjcuMjQ2MDk0IiB4bGluazpocmVmPSIjRGVqYVZ1U2Fucy0zMCIvPiYjeGE7ICAgICA8dXNlIHg9IjE5MC44NjkxNDEiIHhsaW5rOmhyZWY9IiNEZWphVnVTYW5zLTJlIi8+JiN4YTsgICAgIDx1c2UgeD0iMjIyLjY1NjI1IiB4bGluazpocmVmPSIjRGVqYVZ1U2Fucy0zNiIvPiYjeGE7ICAgICA8dXNlIHg9IjI4Ni4yNzkyOTciIHhsaW5rOmhyZWY9IiNEZWphVnVTYW5zLTM0Ii8+JiN4YTsgICAgPC9nPiYjeGE7ICAgPC9nPiYjeGE7ICAgPGcgaWQ9InRleHRfMTkiPiYjeGE7ICAgICYjeGE7ICAgIDxnIHRyYW5zZm9ybT0idHJhbnNsYXRlKDMxMi4zMTUwMzcgODYuODAzNDgyKSBzY2FsZSgwLjEgLTAuMSkiPiYjeGE7ICAgICA8dXNlIHhsaW5rOmhyZWY9IiNEZWphVnVTYW5zLTM5Ii8+JiN4YTsgICAgIDx1c2UgeD0iNjMuNjIzMDQ3IiB4bGluazpocmVmPSIjRGVqYVZ1U2Fucy0zNCIvPiYjeGE7ICAgICA8dXNlIHg9IjEyNy4yNDYwOTQiIHhsaW5rOmhyZWY9IiNEZWphVnVTYW5zLTM4Ii8+JiN4YTsgICAgIDx1c2UgeD0iMTkwLjg2OTE0MSIgeGxpbms6aHJlZj0iI0RlamFWdVNhbnMtMmUiLz4mI3hhOyAgICAgPHVzZSB4PSIyMjIuNjU2MjUiIHhsaW5rOmhyZWY9IiNEZWphVnVTYW5zLTM1Ii8+JiN4YTsgICAgIDx1c2UgeD0iMjg2LjI3OTI5NyIgeGxpbms6aHJlZj0iI0RlamFWdVNhbnMtMzYiLz4mI3hhOyAgICA8L2c+JiN4YTsgICA8L2c+JiN4YTsgICA8ZyBpZD0idGV4dF8yMCI+JiN4YTsgICAgJiN4YTsgICAgPGcgdHJhbnNmb3JtPSJ0cmFuc2xhdGUoMzcxLjU2NzM1NCA1Mi4wNDEyNTkpIHNjYWxlKDAuMSAtMC4xKSI+JiN4YTsgICAgIDx1c2UgeGxpbms6aHJlZj0iI0RlamFWdVNhbnMtMzEiLz4mI3hhOyAgICAgPHVzZSB4PSI2My42MjMwNDciIHhsaW5rOmhyZWY9IiNEZWphVnVTYW5zLTMwIi8+JiN4YTsgICAgIDx1c2UgeD0iMTI3LjI0NjA5NCIgeGxpbms6aHJlZj0iI0RlamFWdVNhbnMtMzkiLz4mI3hhOyAgICAgPHVzZSB4PSIxOTAuODY5MTQxIiB4bGluazpocmVmPSIjRGVqYVZ1U2Fucy0zOSIvPiYjeGE7ICAgICA8dXNlIHg9IjI1NC40OTIxODgiIHhsaW5rOmhyZWY9IiNEZWphVnVTYW5zLTJlIi8+JiN4YTsgICAgIDx1c2UgeD0iMjg2LjI3OTI5NyIgeGxpbms6aHJlZj0iI0RlamFWdVNhbnMtMzMiLz4mI3hhOyAgICAgPHVzZSB4PSIzNDkuOTAyMzQ0IiB4bGluazpocmVmPSIjRGVqYVZ1U2Fucy0zNSIvPiYjeGE7ICAgIDwvZz4mI3hhOyAgIDwvZz4mI3hhOyAgPC9nPiYjeGE7IDwvZz4mI3hhOyA8ZGVmcz4mI3hhOyAgPGNsaXBQYXRoIGlkPSJwNWYxNzgwY2M2NSI+JiN4YTsgICA8cmVjdCBoZWlnaHQ9IjI2Ni4xMTIiIHdpZHRoPSIzNTcuMTIiIHk9IjQxLjQ3MiIgeD0iNTcuNiIvPiYjeGE7ICA8L2NsaXBQYXRoPiYjeGE7IDwvZGVmcz4mI3hhOzwvc3ZnPg==;" vertex="1" parent="1">
          <mxGeometry x="123" y="70" width="364.4" height="273.5" as="geometry" />
        </mxCell>
        <mxCell id="zdAWJyBr2Lrx_bmOY1wT-1" value="" style="shape=image;verticalLabelPosition=bottom;labelBackgroundColor=default;verticalAlign=top;aspect=fixed;imageAspect=0;image=data:image/svg+xml,PHN2ZyB4bWxucz0iaHR0cDovL3d3dy53My5vcmcvMjAwMC9zdmciIHhtbG5zOnhsaW5rPSJodHRwOi8vd3d3LnczLm9yZy8xOTk5L3hsaW5rIiB2ZXJzaW9uPSIxLjEiIHZpZXdCb3g9IjAgMCAzMzYuOTYgMjY5LjI4IiBoZWlnaHQ9IjI2OS4yOHB0IiB3aWR0aD0iMzM2Ljk2cHQiPiYjeGE7IDxtZXRhZGF0YT4mI3hhOyAgJiN4YTsgICAmI3hhOyAgICAmI3hhOyAgICAyMDI0LTA0LTA0VDE3OjA0OjUyLjA4NDA0MSYjeGE7ICAgIGltYWdlL3N2Zyt4bWwmI3hhOyAgICAmI3hhOyAgICAgJiN4YTsgICAgICBNYXRwbG90bGliIHYzLjcuNSwgaHR0cHM6Ly9tYXRwbG90bGliLm9yZy8mI3hhOyAgICAgJiN4YTsgICAgJiN4YTsgICAmI3hhOyAgJiN4YTsgPC9tZXRhZGF0YT4mI3hhOyA8ZGVmcz4mI3hhOyAgPHN0eWxlIHR5cGU9InRleHQvY3NzIj4qe3N0cm9rZS1saW5lam9pbjogcm91bmQ7IHN0cm9rZS1saW5lY2FwOiBidXR0fTwvc3R5bGU+JiN4YTsgPC9kZWZzPiYjeGE7IDxnIGlkPSJmaWd1cmVfMSI+JiN4YTsgIDxnIGlkPSJwYXRjaF8xIj4mI3hhOyAgIDxwYXRoIHN0eWxlPSJmaWxsOiAjZmZmZmZmIiBkPSJNIDAgMjY5LjI4ICYjMTA7TCAzMzYuOTYgMjY5LjI4ICYjMTA7TCAzMzYuOTYgMCAmIzEwO0wgMCAwICYjMTA7eiIvPiYjeGE7ICA8L2c+JiN4YTsgIDxnIGlkPSJheGVzXzEiPiYjeGE7ICAgPGcgaWQ9InBhdGNoXzIiPiYjeGE7ICAgIDxwYXRoIHN0eWxlPSJmaWxsOiAjZmZmZmZmIiBkPSJNIDQyLjEyIDIzOS42NTkyICYjMTA7TCAzMDMuMjY0IDIzOS42NTkyICYjMTA7TCAzMDMuMjY0IDMyLjMxMzYgJiMxMDtMIDQyLjEyIDMyLjMxMzYgJiMxMDt6Ii8+JiN4YTsgICA8L2c+JiN4YTsgICA8ZyBpZD0icGF0Y2hfMyI+JiN4YTsgICAgPHBhdGggc3R5bGU9ImZpbGw6ICNmZmRmOTIiIGNsaXAtcGF0aD0idXJsKCNwZTM2YjdjNWFhMikiIGQ9Ik0gNTMuOTkwMTgyIDIzOS42NTkyICYjMTA7TCA2Ny45NTUxMDIgMjM5LjY1OTIgJiMxMDtMIDY3Ljk1NTEwMiAxOTQuODMwNDggJiMxMDtMIDUzLjk5MDE4MiAxOTQuODMwNDggJiMxMDt6Ii8+JiN4YTsgICA8L2c+JiN4YTsgICA8ZyBpZD0icGF0Y2hfNCI+JiN4YTsgICAgPHBhdGggc3R5bGU9ImZpbGw6ICNmZmRmOTIiIGNsaXAtcGF0aD0idXJsKCNwZTM2YjdjNWFhMikiIGQ9Ik0gMTIzLjgxNDc4MSAyMzkuNjU5MiAmIzEwO0wgMTM3Ljc3OTcwMSAyMzkuNjU5MiAmIzEwO0wgMTM3Ljc3OTcwMSAxNTYuMjM4MTYyICYjMTA7TCAxMjMuODE0NzgxIDE1Ni4yMzgxNjIgJiMxMDt6Ii8+JiN4YTsgICA8L2c+JiN4YTsgICA8ZyBpZD0icGF0Y2hfNSI+JiN4YTsgICAgPHBhdGggc3R5bGU9ImZpbGw6ICNmZmRmOTIiIGNsaXAtcGF0aD0idXJsKCNwZTM2YjdjNWFhMikiIGQ9Ik0gMTkzLjYzOTM4IDIzOS42NTkyICYjMTA7TCAyMDcuNjA0Mjk5IDIzOS42NTkyICYjMTA7TCAyMDcuNjA0Mjk5IDEyNS4yMDI5MDMgJiMxMDtMIDE5My42MzkzOCAxMjUuMjAyOTAzICYjMTA7eiIvPiYjeGE7ICAgPC9nPiYjeGE7ICAgPGcgaWQ9InBhdGNoXzYiPiYjeGE7ICAgIDxwYXRoIHN0eWxlPSJmaWxsOiAjZmZkZjkyIiBjbGlwLXBhdGg9InVybCgjcGUzNmI3YzVhYTIpIiBkPSJNIDI2My40NjM5NzkgMjM5LjY1OTIgJiMxMDtMIDI3Ny40Mjg4OTggMjM5LjY1OTIgJiMxMDtMIDI3Ny40Mjg4OTggNjguNzM1OTQ5ICYjMTA7TCAyNjMuNDYzOTc5IDY4LjczNTk0OSAmIzEwO3oiLz4mI3hhOyAgIDwvZz4mI3hhOyAgIDxnIGlkPSJwYXRjaF83Ij4mI3hhOyAgICA8cGF0aCBzdHlsZT0iZmlsbDogIzkwYmVlMCIgY2xpcC1wYXRoPSJ1cmwoI3BlMzZiN2M1YWEyKSIgZD0iTSA2Ny45NTUxMDIgMjM5LjY1OTIgJiMxMDtMIDgxLjkyMDAyMSAyMzkuNjU5MiAmIzEwO0wgODEuOTIwMDIxIDIwMC43MzY3MTkgJiMxMDtMIDY3Ljk1NTEwMiAyMDAuNzM2NzE5ICYjMTA7eiIvPiYjeGE7ICAgPC9nPiYjeGE7ICAgPGcgaWQ9InBhdGNoXzgiPiYjeGE7ICAgIDxwYXRoIHN0eWxlPSJmaWxsOiAjOTBiZWUwIiBjbGlwLXBhdGg9InVybCgjcGUzNmI3YzVhYTIpIiBkPSJNIDEzNy43Nzk3MDEgMjM5LjY1OTIgJiMxMDtMIDE1MS43NDQ2MiAyMzkuNjU5MiAmIzEwO0wgMTUxLjc0NDYyIDIwMS4yNDExMzQgJiMxMDtMIDEzNy43Nzk3MDEgMjAxLjI0MTEzNCAmIzEwO3oiLz4mI3hhOyAgIDwvZz4mI3hhOyAgIDxnIGlkPSJwYXRjaF85Ij4mI3hhOyAgICA8cGF0aCBzdHlsZT0iZmlsbDogIzkwYmVlMCIgY2xpcC1wYXRoPSJ1cmwoI3BlMzZiN2M1YWEyKSIgZD0iTSAyMDcuNjA0Mjk5IDIzOS42NTkyICYjMTA7TCAyMjEuNTY5MjE5IDIzOS42NTkyICYjMTA7TCAyMjEuNTY5MjE5IDIwNC42NjE5ODMgJiMxMDtMIDIwNy42MDQyOTkgMjA0LjY2MTk4MyAmIzEwO3oiLz4mI3hhOyAgIDwvZz4mI3hhOyAgIDxnIGlkPSJwYXRjaF8xMCI+JiN4YTsgICAgPHBhdGggc3R5bGU9ImZpbGw6ICM5MGJlZTAiIGNsaXAtcGF0aD0idXJsKCNwZTM2YjdjNWFhMikiIGQ9Ik0gMjc3LjQyODg5OCAyMzkuNjU5MiAmIzEwO0wgMjkxLjM5MzgxOCAyMzkuNjU5MiAmIzEwO0wgMjkxLjM5MzgxOCAyMDQuODE3ODkzICYjMTA7TCAyNzcuNDI4ODk4IDIwNC44MTc4OTMgJiMxMDt6Ii8+JiN4YTsgICA8L2c+JiN4YTsgICA8ZyBpZD0ibWF0cGxvdGxpYi5heGlzXzEiPiYjeGE7ICAgIDxnIGlkPSJ4dGlja18xIj4mI3hhOyAgICAgPGcgaWQ9ImxpbmUyZF8xIj4mI3hhOyAgICAgIDxkZWZzPiYjeGE7ICAgICAgIDxwYXRoIHN0eWxlPSJzdHJva2U6ICMwMDAwMDA7IHN0cm9rZS13aWR0aDogMC44IiBkPSJNIDAgMCAmIzEwO0wgMCAzLjUiIGlkPSJtOTUzODhhNjU1NyIvPiYjeGE7ICAgICAgPC9kZWZzPiYjeGE7ICAgICAgPGc+JiN4YTsgICAgICAgPHVzZSBzdHlsZT0ic3Ryb2tlOiAjMDAwMDAwOyBzdHJva2Utd2lkdGg6IDAuOCIgeT0iMjM5LjY1OTIiIHg9Ijc0LjkzNzU2MSIgeGxpbms6aHJlZj0iI205NTM4OGE2NTU3Ii8+JiN4YTsgICAgICA8L2c+JiN4YTsgICAgIDwvZz4mI3hhOyAgICAgPGcgaWQ9InRleHRfMSI+JiN4YTsgICAgICAmI3hhOyAgICAgIDxnIHRyYW5zZm9ybT0idHJhbnNsYXRlKDY1LjM5MzgxMSAyNTQuMjU3NjM4KSBzY2FsZSgwLjEgLTAuMSkiPiYjeGE7ICAgICAgIDxkZWZzPiYjeGE7ICAgICAgICA8cGF0aCB0cmFuc2Zvcm09InNjYWxlKDAuMDE1NjI1KSIgZD0iTSA3OTQgNTMxICYjMTA7TCAxODI1IDUzMSAmIzEwO0wgMTgyNSA0MDkxICYjMTA7TCA3MDMgMzg2NiAmIzEwO0wgNzAzIDQ0NDEgJiMxMDtMIDE4MTkgNDY2NiAmIzEwO0wgMjQ1MCA0NjY2ICYjMTA7TCAyNDUwIDUzMSAmIzEwO0wgMzQ4MSA1MzEgJiMxMDtMIDM0ODEgMCAmIzEwO0wgNzk0IDAgJiMxMDtMIDc5NCA1MzEgJiMxMDt6IiBpZD0iRGVqYVZ1U2Fucy0zMSIvPiYjeGE7ICAgICAgICA8cGF0aCB0cmFuc2Zvcm09InNjYWxlKDAuMDE1NjI1KSIgZD0iTSAyMDM0IDQyNTAgJiMxMDtRIDE1NDcgNDI1MCAxMzAxIDM3NzAgJiMxMDtRIDEwNTYgMzI5MSAxMDU2IDIzMjggJiMxMDtRIDEwNTYgMTM2OSAxMzAxIDg4OSAmIzEwO1EgMTU0NyA0MDkgMjAzNCA0MDkgJiMxMDtRIDI1MjUgNDA5IDI3NzAgODg5ICYjMTA7USAzMDE2IDEzNjkgMzAxNiAyMzI4ICYjMTA7USAzMDE2IDMyOTEgMjc3MCAzNzcwICYjMTA7USAyNTI1IDQyNTAgMjAzNCA0MjUwICYjMTA7eiYjMTA7TSAyMDM0IDQ3NTAgJiMxMDtRIDI4MTkgNDc1MCAzMjMzIDQxMjkgJiMxMDtRIDM2NDcgMzUwOSAzNjQ3IDIzMjggJiMxMDtRIDM2NDcgMTE1MCAzMjMzIDUyOSAmIzEwO1EgMjgxOSAtOTEgMjAzNCAtOTEgJiMxMDtRIDEyNTAgLTkxIDgzNiA1MjkgJiMxMDtRIDQyMiAxMTUwIDQyMiAyMzI4ICYjMTA7USA0MjIgMzUwOSA4MzYgNDEyOSAmIzEwO1EgMTI1MCA0NzUwIDIwMzQgNDc1MCAmIzEwO3oiIGlkPSJEZWphVnVTYW5zLTMwIi8+JiN4YTsgICAgICAgPC9kZWZzPiYjeGE7ICAgICAgIDx1c2UgeGxpbms6aHJlZj0iI0RlamFWdVNhbnMtMzEiLz4mI3hhOyAgICAgICA8dXNlIHg9IjYzLjYyMzA0NyIgeGxpbms6aHJlZj0iI0RlamFWdVNhbnMtMzAiLz4mI3hhOyAgICAgICA8dXNlIHg9IjEyNy4yNDYwOTQiIHhsaW5rOmhyZWY9IiNEZWphVnVTYW5zLTMwIi8+JiN4YTsgICAgICA8L2c+JiN4YTsgICAgIDwvZz4mI3hhOyAgICA8L2c+JiN4YTsgICAgPGcgaWQ9Inh0aWNrXzIiPiYjeGE7ICAgICA8ZyBpZD0ibGluZTJkXzIiPiYjeGE7ICAgICAgPGc+JiN4YTsgICAgICAgPHVzZSBzdHlsZT0ic3Ryb2tlOiAjMDAwMDAwOyBzdHJva2Utd2lkdGg6IDAuOCIgeT0iMjM5LjY1OTIiIHg9IjE0NC43NjIxNiIgeGxpbms6aHJlZj0iI205NTM4OGE2NTU3Ii8+JiN4YTsgICAgICA8L2c+JiN4YTsgICAgIDwvZz4mI3hhOyAgICAgPGcgaWQ9InRleHRfMiI+JiN4YTsgICAgICAmI3hhOyAgICAgIDxnIHRyYW5zZm9ybT0idHJhbnNsYXRlKDEzMi4wMzcxNiAyNTQuMjU3NjM4KSBzY2FsZSgwLjEgLTAuMSkiPiYjeGE7ICAgICAgIDxkZWZzPiYjeGE7ICAgICAgICA8cGF0aCB0cmFuc2Zvcm09InNjYWxlKDAuMDE1NjI1KSIgZD0iTSA2OTEgNDY2NiAmIzEwO0wgMzE2OSA0NjY2ICYjMTA7TCAzMTY5IDQxMzQgJiMxMDtMIDEyNjkgNDEzNCAmIzEwO0wgMTI2OSAyOTkxICYjMTA7USAxNDA2IDMwMzggMTU0MyAzMDYxICYjMTA7USAxNjgxIDMwODQgMTgxOSAzMDg0ICYjMTA7USAyNjAwIDMwODQgMzA1NiAyNjU2ICYjMTA7USAzNTEzIDIyMjggMzUxMyAxNDk3ICYjMTA7USAzNTEzIDc0NCAzMDQ0IDMyNiAmIzEwO1EgMjU3NSAtOTEgMTcyMiAtOTEgJiMxMDtRIDE0MjggLTkxIDExMjMgLTQxICYjMTA7USA4MTkgOSA0OTQgMTA5ICYjMTA7TCA0OTQgNzQ0ICYjMTA7USA3NzUgNTkxIDEwNzUgNTE2ICYjMTA7USAxMzc1IDQ0MSAxNzA5IDQ0MSAmIzEwO1EgMjI1MCA0NDEgMjU2NSA3MjUgJiMxMDtRIDI4ODEgMTAwOSAyODgxIDE0OTcgJiMxMDtRIDI4ODEgMTk4NCAyNTY1IDIyNjggJiMxMDtRIDIyNTAgMjU1MyAxNzA5IDI1NTMgJiMxMDtRIDE0NTYgMjU1MyAxMjA0IDI0OTcgJiMxMDtRIDk1MyAyNDQxIDY5MSAyMzIyICYjMTA7TCA2OTEgNDY2NiAmIzEwO3oiIGlkPSJEZWphVnVTYW5zLTM1Ii8+JiN4YTsgICAgICAgPC9kZWZzPiYjeGE7ICAgICAgIDx1c2UgeGxpbms6aHJlZj0iI0RlamFWdVNhbnMtMzUiLz4mI3hhOyAgICAgICA8dXNlIHg9IjYzLjYyMzA0NyIgeGxpbms6aHJlZj0iI0RlamFWdVNhbnMtMzAiLz4mI3hhOyAgICAgICA8dXNlIHg9IjEyNy4yNDYwOTQiIHhsaW5rOmhyZWY9IiNEZWphVnVTYW5zLTMwIi8+JiN4YTsgICAgICAgPHVzZSB4PSIxOTAuODY5MTQxIiB4bGluazpocmVmPSIjRGVqYVZ1U2Fucy0zMCIvPiYjeGE7ICAgICAgPC9nPiYjeGE7ICAgICA8L2c+JiN4YTsgICAgPC9nPiYjeGE7ICAgIDxnIGlkPSJ4dGlja18zIj4mI3hhOyAgICAgPGcgaWQ9ImxpbmUyZF8zIj4mI3hhOyAgICAgIDxnPiYjeGE7ICAgICAgIDx1c2Ugc3R5bGU9InN0cm9rZTogIzAwMDAwMDsgc3Ryb2tlLXdpZHRoOiAwLjgiIHk9IjIzOS42NTkyIiB4PSIyMTQuNTg2NzU5IiB4bGluazpocmVmPSIjbTk1Mzg4YTY1NTciLz4mI3hhOyAgICAgIDwvZz4mI3hhOyAgICAgPC9nPiYjeGE7ICAgICA8ZyBpZD0idGV4dF8zIj4mI3hhOyAgICAgICYjeGE7ICAgICAgPGcgdHJhbnNmb3JtPSJ0cmFuc2xhdGUoMTk4LjY4MDUwOSAyNTQuMjU3NjM4KSBzY2FsZSgwLjEgLTAuMSkiPiYjeGE7ICAgICAgIDx1c2UgeGxpbms6aHJlZj0iI0RlamFWdVNhbnMtMzEiLz4mI3hhOyAgICAgICA8dXNlIHg9IjYzLjYyMzA0NyIgeGxpbms6aHJlZj0iI0RlamFWdVNhbnMtMzAiLz4mI3hhOyAgICAgICA8dXNlIHg9IjEyNy4yNDYwOTQiIHhsaW5rOmhyZWY9IiNEZWphVnVTYW5zLTMwIi8+JiN4YTsgICAgICAgPHVzZSB4PSIxOTAuODY5MTQxIiB4bGluazpocmVmPSIjRGVqYVZ1U2Fucy0zMCIvPiYjeGE7ICAgICAgIDx1c2UgeD0iMjU0LjQ5MjE4OCIgeGxpbms6aHJlZj0iI0RlamFWdVNhbnMtMzAiLz4mI3hhOyAgICAgIDwvZz4mI3hhOyAgICAgPC9nPiYjeGE7ICAgIDwvZz4mI3hhOyAgICA8ZyBpZD0ieHRpY2tfNCI+JiN4YTsgICAgIDxnIGlkPSJsaW5lMmRfNCI+JiN4YTsgICAgICA8Zz4mI3hhOyAgICAgICA8dXNlIHN0eWxlPSJzdHJva2U6ICMwMDAwMDA7IHN0cm9rZS13aWR0aDogMC44IiB5PSIyMzkuNjU5MiIgeD0iMjg0LjQxMTM1OCIgeGxpbms6aHJlZj0iI205NTM4OGE2NTU3Ii8+JiN4YTsgICAgICA8L2c+JiN4YTsgICAgIDwvZz4mI3hhOyAgICAgPGcgaWQ9InRleHRfNCI+JiN4YTsgICAgICAmI3hhOyAgICAgIDxnIHRyYW5zZm9ybT0idHJhbnNsYXRlKDI2OC41MDUxMDggMjU0LjI1NzYzOCkgc2NhbGUoMC4xIC0wLjEpIj4mI3hhOyAgICAgICA8dXNlIHhsaW5rOmhyZWY9IiNEZWphVnVTYW5zLTMxIi8+JiN4YTsgICAgICAgPHVzZSB4PSI2My42MjMwNDciIHhsaW5rOmhyZWY9IiNEZWphVnVTYW5zLTM1Ii8+JiN4YTsgICAgICAgPHVzZSB4PSIxMjcuMjQ2MDk0IiB4bGluazpocmVmPSIjRGVqYVZ1U2Fucy0zMCIvPiYjeGE7ICAgICAgIDx1c2UgeD0iMTkwLjg2OTE0MSIgeGxpbms6aHJlZj0iI0RlamFWdVNhbnMtMzAiLz4mI3hhOyAgICAgICA8dXNlIHg9IjI1NC40OTIxODgiIHhsaW5rOmhyZWY9IiNEZWphVnVTYW5zLTMwIi8+JiN4YTsgICAgICA8L2c+JiN4YTsgICAgIDwvZz4mI3hhOyAgICA8L2c+JiN4YTsgICAgPGcgaWQ9InRleHRfNSI+JiN4YTsgICAgICYjeGE7ICAgICA8ZyB0cmFuc2Zvcm09InRyYW5zbGF0ZSg4Ny40NTQ1IDI2Ny45MzU3NjMpIHNjYWxlKDAuMSAtMC4xKSI+JiN4YTsgICAgICA8ZGVmcz4mI3hhOyAgICAgICA8cGF0aCB0cmFuc2Zvcm09InNjYWxlKDAuMDE1NjI1KSIgZD0iTSA2MjggNDY2NiAmIzEwO0wgMTQ3OCA0NjY2ICYjMTA7TCAzNTQ3IDc2MyAmIzEwO0wgMzU0NyA0NjY2ICYjMTA7TCA0MTU5IDQ2NjYgJiMxMDtMIDQxNTkgMCAmIzEwO0wgMzMwOSAwICYjMTA7TCAxMjQxIDM5MDMgJiMxMDtMIDEyNDEgMCAmIzEwO0wgNjI4IDAgJiMxMDtMIDYyOCA0NjY2ICYjMTA7eiIgaWQ9IkRlamFWdVNhbnMtNGUiLz4mI3hhOyAgICAgICA8cGF0aCB0cmFuc2Zvcm09InNjYWxlKDAuMDE1NjI1KSIgZD0iTSA1NDQgMTM4MSAmIzEwO0wgNTQ0IDM1MDAgJiMxMDtMIDExMTkgMzUwMCAmIzEwO0wgMTExOSAxNDAzICYjMTA7USAxMTE5IDkwNiAxMzEyIDY1NyAmIzEwO1EgMTUwNiA0MDkgMTg5NCA0MDkgJiMxMDtRIDIzNTkgNDA5IDI2MjkgNzA2ICYjMTA7USAyOTAwIDEwMDMgMjkwMCAxNTE2ICYjMTA7TCAyOTAwIDM1MDAgJiMxMDtMIDM0NzUgMzUwMCAmIzEwO0wgMzQ3NSAwICYjMTA7TCAyOTAwIDAgJiMxMDtMIDI5MDAgNTM4ICYjMTA7USAyNjkxIDIxOSAyNDE0IDY0ICYjMTA7USAyMTM4IC05MSAxNzcyIC05MSAmIzEwO1EgMTE2OSAtOTEgODU2IDI4NCAmIzEwO1EgNTQ0IDY1OSA1NDQgMTM4MSAmIzEwO3omIzEwO00gMTk5MSAzNTg0ICYjMTA7TCAxOTkxIDM1ODQgJiMxMDt6IiBpZD0iRGVqYVZ1U2Fucy03NSIvPiYjeGE7ICAgICAgIDxwYXRoIHRyYW5zZm9ybT0ic2NhbGUoMC4wMTU2MjUpIiBkPSJNIDMzMjggMjgyOCAmIzEwO1EgMzU0NCAzMjE2IDM4NDQgMzQwMCAmIzEwO1EgNDE0NCAzNTg0IDQ1NTAgMzU4NCAmIzEwO1EgNTA5NyAzNTg0IDUzOTQgMzIwMSAmIzEwO1EgNTY5MSAyODE5IDU2OTEgMjExMyAmIzEwO0wgNTY5MSAwICYjMTA7TCA1MTEzIDAgJiMxMDtMIDUxMTMgMjA5NCAmIzEwO1EgNTExMyAyNTk3IDQ5MzQgMjg0MCAmIzEwO1EgNDc1NiAzMDg0IDQzOTEgMzA4NCAmIzEwO1EgMzk0NCAzMDg0IDM2ODQgMjc4NyAmIzEwO1EgMzQyNSAyNDkxIDM0MjUgMTk3OCAmIzEwO0wgMzQyNSAwICYjMTA7TCAyODQ3IDAgJiMxMDtMIDI4NDcgMjA5NCAmIzEwO1EgMjg0NyAyNjAwIDI2NjkgMjg0MiAmIzEwO1EgMjQ5MSAzMDg0IDIxMTkgMzA4NCAmIzEwO1EgMTY3OCAzMDg0IDE0MTggMjc4NiAmIzEwO1EgMTE1OSAyNDg4IDExNTkgMTk3OCAmIzEwO0wgMTE1OSAwICYjMTA7TCA1ODEgMCAmIzEwO0wgNTgxIDM1MDAgJiMxMDtMIDExNTkgMzUwMCAmIzEwO0wgMTE1OSAyOTU2ICYjMTA7USAxMzU2IDMyNzggMTYzMSAzNDMxICYjMTA7USAxOTA2IDM1ODQgMjI4NCAzNTg0ICYjMTA7USAyNjY2IDM1ODQgMjkzMyAzMzkwICYjMTA7USAzMjAwIDMxOTcgMzMyOCAyODI4ICYjMTA7eiIgaWQ9IkRlamFWdVNhbnMtNmQiLz4mI3hhOyAgICAgICA8cGF0aCB0cmFuc2Zvcm09InNjYWxlKDAuMDE1NjI1KSIgZD0iTSAzMTE2IDE3NDcgJiMxMDtRIDMxMTYgMjM4MSAyODU1IDI3NDIgJiMxMDtRIDI1OTQgMzEwMyAyMTM4IDMxMDMgJiMxMDtRIDE2ODEgMzEwMyAxNDIwIDI3NDIgJiMxMDtRIDExNTkgMjM4MSAxMTU5IDE3NDcgJiMxMDtRIDExNTkgMTExMyAxNDIwIDc1MiAmIzEwO1EgMTY4MSAzOTEgMjEzOCAzOTEgJiMxMDtRIDI1OTQgMzkxIDI4NTUgNzUyICYjMTA7USAzMTE2IDExMTMgMzExNiAxNzQ3ICYjMTA7eiYjMTA7TSAxMTU5IDI5NjkgJiMxMDtRIDEzNDEgMzI4MSAxNjE3IDM0MzIgJiMxMDtRIDE4OTQgMzU4NCAyMjc4IDM1ODQgJiMxMDtRIDI5MTYgMzU4NCAzMzE0IDMwNzggJiMxMDtRIDM3MTMgMjU3MiAzNzEzIDE3NDcgJiMxMDtRIDM3MTMgOTIyIDMzMTQgNDE1ICYjMTA7USAyOTE2IC05MSAyMjc4IC05MSAmIzEwO1EgMTg5NCAtOTEgMTYxNyA2MSAmIzEwO1EgMTM0MSAyMTMgMTE1OSA1MjUgJiMxMDtMIDExNTkgMCAmIzEwO0wgNTgxIDAgJiMxMDtMIDU4MSA0ODYzICYjMTA7TCAxMTU5IDQ4NjMgJiMxMDtMIDExNTkgMjk2OSAmIzEwO3oiIGlkPSJEZWphVnVTYW5zLTYyIi8+JiN4YTsgICAgICAgPHBhdGggdHJhbnNmb3JtPSJzY2FsZSgwLjAxNTYyNSkiIGQ9Ik0gMzU5NyAxODk0ICYjMTA7TCAzNTk3IDE2MTMgJiMxMDtMIDk1MyAxNjEzICYjMTA7USA5OTEgMTAxOSAxMzExIDcwOCAmIzEwO1EgMTYzMSAzOTcgMjIwMyAzOTcgJiMxMDtRIDI1MzQgMzk3IDI4NDUgNDc4ICYjMTA7USAzMTU2IDU1OSAzNDYzIDcyMiAmIzEwO0wgMzQ2MyAxNzggJiMxMDtRIDMxNTMgNDcgMjgyOCAtMjIgJiMxMDtRIDI1MDMgLTkxIDIxNjkgLTkxICYjMTA7USAxMzMxIC05MSA4NDIgMzk2ICYjMTA7USAzNTMgODg0IDM1MyAxNzE2ICYjMTA7USAzNTMgMjU3NSA4MTcgMzA3OSAmIzEwO1EgMTI4MSAzNTg0IDIwNjkgMzU4NCAmIzEwO1EgMjc3NSAzNTg0IDMxODYgMzEyOSAmIzEwO1EgMzU5NyAyNjc1IDM1OTcgMTg5NCAmIzEwO3omIzEwO00gMzAyMiAyMDYzICYjMTA7USAzMDE2IDI1MzQgMjc1OCAyODE1ICYjMTA7USAyNTAwIDMwOTcgMjA3NSAzMDk3ICYjMTA7USAxNTk0IDMwOTcgMTMwNSAyODI1ICYjMTA7USAxMDE2IDI1NTMgOTcyIDIwNTkgJiMxMDtMIDMwMjIgMjA2MyAmIzEwO3oiIGlkPSJEZWphVnVTYW5zLTY1Ii8+JiN4YTsgICAgICAgPHBhdGggdHJhbnNmb3JtPSJzY2FsZSgwLjAxNTYyNSkiIGQ9Ik0gMjYzMSAyOTYzICYjMTA7USAyNTM0IDMwMTkgMjQyMCAzMDQ1ICYjMTA7USAyMzA2IDMwNzIgMjE2OSAzMDcyICYjMTA7USAxNjgxIDMwNzIgMTQyMCAyNzU1ICYjMTA7USAxMTU5IDI0MzggMTE1OSAxODQ0ICYjMTA7TCAxMTU5IDAgJiMxMDtMIDU4MSAwICYjMTA7TCA1ODEgMzUwMCAmIzEwO0wgMTE1OSAzNTAwICYjMTA7TCAxMTU5IDI5NTYgJiMxMDtRIDEzNDEgMzI3NSAxNjMxIDM0MjkgJiMxMDtRIDE5MjIgMzU4NCAyMzM4IDM1ODQgJiMxMDtRIDIzOTcgMzU4NCAyNDY5IDM1NzYgJiMxMDtRIDI1NDEgMzU2OSAyNjI4IDM1NTMgJiMxMDtMIDI2MzEgMjk2MyAmIzEwO3oiIGlkPSJEZWphVnVTYW5zLTcyIi8+JiN4YTsgICAgICAgPHBhdGggdHJhbnNmb3JtPSJzY2FsZSgwLjAxNTYyNSkiIGlkPSJEZWphVnVTYW5zLTIwIi8+JiN4YTsgICAgICAgPHBhdGggdHJhbnNmb3JtPSJzY2FsZSgwLjAxNTYyNSkiIGQ9Ik0gMTk1OSAzMDk3ICYjMTA7USAxNDk3IDMwOTcgMTIyOCAyNzM2ICYjMTA7USA5NTkgMjM3NSA5NTkgMTc0NyAmIzEwO1EgOTU5IDExMTkgMTIyNiA3NTggJiMxMDtRIDE0OTQgMzk3IDE5NTkgMzk3ICYjMTA7USAyNDE5IDM5NyAyNjg3IDc1OSAmIzEwO1EgMjk1NiAxMTIyIDI5NTYgMTc0NyAmIzEwO1EgMjk1NiAyMzY5IDI2ODcgMjczMyAmIzEwO1EgMjQxOSAzMDk3IDE5NTkgMzA5NyAmIzEwO3omIzEwO00gMTk1OSAzNTg0ICYjMTA7USAyNzA5IDM1ODQgMzEzNyAzMDk2ICYjMTA7USAzNTY2IDI2MDkgMzU2NiAxNzQ3ICYjMTA7USAzNTY2IDg4OCAzMTM3IDM5OCAmIzEwO1EgMjcwOSAtOTEgMTk1OSAtOTEgJiMxMDtRIDEyMDYgLTkxIDc3OSAzOTggJiMxMDtRIDM1MyA4ODggMzUzIDE3NDcgJiMxMDtRIDM1MyAyNjA5IDc3OSAzMDk2ICYjMTA7USAxMjA2IDM1ODQgMTk1OSAzNTg0ICYjMTA7eiIgaWQ9IkRlamFWdVNhbnMtNmYiLz4mI3hhOyAgICAgICA8cGF0aCB0cmFuc2Zvcm09InNjYWxlKDAuMDE1NjI1KSIgZD0iTSAyMzc1IDQ4NjMgJiMxMDtMIDIzNzUgNDM4NCAmIzEwO0wgMTgyNSA0Mzg0ICYjMTA7USAxNTE2IDQzODQgMTM5NSA0MjU5ICYjMTA7USAxMjc1IDQxMzQgMTI3NSAzODA5ICYjMTA7TCAxMjc1IDM1MDAgJiMxMDtMIDIyMjIgMzUwMCAmIzEwO0wgMjIyMiAzMDUzICYjMTA7TCAxMjc1IDMwNTMgJiMxMDtMIDEyNzUgMCAmIzEwO0wgNjk3IDAgJiMxMDtMIDY5NyAzMDUzICYjMTA7TCAxNDcgMzA1MyAmIzEwO0wgMTQ3IDM1MDAgJiMxMDtMIDY5NyAzNTAwICYjMTA7TCA2OTcgMzc0NCAmIzEwO1EgNjk3IDQzMjggOTY5IDQ1OTUgJiMxMDtRIDEyNDEgNDg2MyAxODMxIDQ4NjMgJiMxMDtMIDIzNzUgNDg2MyAmIzEwO3oiIGlkPSJEZWphVnVTYW5zLTY2Ii8+JiN4YTsgICAgICAgPHBhdGggdHJhbnNmb3JtPSJzY2FsZSgwLjAxNTYyNSkiIGQ9Ik0gMTgzMSAwICYjMTA7TCA1MCA0NjY2ICYjMTA7TCA3MDkgNDY2NiAmIzEwO0wgMjE4OCA3MzggJiMxMDtMIDM2NjkgNDY2NiAmIzEwO0wgNDMyNSA0NjY2ICYjMTA7TCAyNTQ3IDAgJiMxMDtMIDE4MzEgMCAmIzEwO3oiIGlkPSJEZWphVnVTYW5zLTU2Ii8+JiN4YTsgICAgICAgPHBhdGggdHJhbnNmb3JtPSJzY2FsZSgwLjAxNTYyNSkiIGQ9Ik0gMjE5NCAxNzU5ICYjMTA7USAxNDk3IDE3NTkgMTIyOCAxNjAwICYjMTA7USA5NTkgMTQ0MSA5NTkgMTA1NiAmIzEwO1EgOTU5IDc1MCAxMTYxIDU3MCAmIzEwO1EgMTM2MyAzOTEgMTcwOSAzOTEgJiMxMDtRIDIxODggMzkxIDI0NzcgNzMwICYjMTA7USAyNzY2IDEwNjkgMjc2NiAxNjMxICYjMTA7TCAyNzY2IDE3NTkgJiMxMDtMIDIxOTQgMTc1OSAmIzEwO3omIzEwO00gMzM0MSAxOTk3ICYjMTA7TCAzMzQxIDAgJiMxMDtMIDI3NjYgMCAmIzEwO0wgMjc2NiA1MzEgJiMxMDtRIDI1NjkgMjEzIDIyNzUgNjEgJiMxMDtRIDE5ODEgLTkxIDE1NTYgLTkxICYjMTA7USAxMDE5IC05MSA3MDEgMjExICYjMTA7USAzODQgNTEzIDM4NCAxMDE5ICYjMTA7USAzODQgMTYwOSA3NzkgMTkwOSAmIzEwO1EgMTE3NSAyMjA5IDE5NTkgMjIwOSAmIzEwO0wgMjc2NiAyMjA5ICYjMTA7TCAyNzY2IDIyNjYgJiMxMDtRIDI3NjYgMjY2MyAyNTA1IDI4ODAgJiMxMDtRIDIyNDQgMzA5NyAxNzcyIDMwOTcgJiMxMDtRIDE0NzIgMzA5NyAxMTg3IDMwMjUgJiMxMDtRIDkwMyAyOTUzIDY0MSAyODA5ICYjMTA7TCA2NDEgMzM0MSAmIzEwO1EgOTU2IDM0NjMgMTI1MyAzNTIzICYjMTA7USAxNTUwIDM1ODQgMTgzMSAzNTg0ICYjMTA7USAyNTkxIDM1ODQgMjk2NiAzMTkwICYjMTA7USAzMzQxIDI3OTcgMzM0MSAxOTk3ICYjMTA7eiIgaWQ9IkRlamFWdVNhbnMtNjEiLz4mI3hhOyAgICAgICA8cGF0aCB0cmFuc2Zvcm09InNjYWxlKDAuMDE1NjI1KSIgZD0iTSA2MDMgMzUwMCAmIzEwO0wgMTE3OCAzNTAwICYjMTA7TCAxMTc4IDAgJiMxMDtMIDYwMyAwICYjMTA7TCA2MDMgMzUwMCAmIzEwO3omIzEwO00gNjAzIDQ4NjMgJiMxMDtMIDExNzggNDg2MyAmIzEwO0wgMTE3OCA0MTM0ICYjMTA7TCA2MDMgNDEzNCAmIzEwO0wgNjAzIDQ4NjMgJiMxMDt6IiBpZD0iRGVqYVZ1U2Fucy02OSIvPiYjeGE7ICAgICAgIDxwYXRoIHRyYW5zZm9ybT0ic2NhbGUoMC4wMTU2MjUpIiBkPSJNIDYwMyA0ODYzICYjMTA7TCAxMTc4IDQ4NjMgJiMxMDtMIDExNzggMCAmIzEwO0wgNjAzIDAgJiMxMDtMIDYwMyA0ODYzICYjMTA7eiIgaWQ9IkRlamFWdVNhbnMtNmMiLz4mI3hhOyAgICAgICA8cGF0aCB0cmFuc2Zvcm09InNjYWxlKDAuMDE1NjI1KSIgZD0iTSAyODM0IDMzOTcgJiMxMDtMIDI4MzQgMjg1MyAmIzEwO1EgMjU5MSAyOTc4IDIzMjggMzA0MCAmIzEwO1EgMjA2NiAzMTAzIDE3ODQgMzEwMyAmIzEwO1EgMTM1NiAzMTAzIDExNDIgMjk3MiAmIzEwO1EgOTI4IDI4NDEgOTI4IDI1NzggJiMxMDtRIDkyOCAyMzc4IDEwODEgMjI2NCAmIzEwO1EgMTIzNCAyMTUwIDE2OTcgMjA0NyAmIzEwO0wgMTg5NCAyMDAzICYjMTA7USAyNTA2IDE4NzIgMjc2NCAxNjMzICYjMTA7USAzMDIyIDEzOTQgMzAyMiA5NjYgJiMxMDtRIDMwMjIgNDc4IDI2MzYgMTkzICYjMTA7USAyMjUwIC05MSAxNTc1IC05MSAmIzEwO1EgMTI5NCAtOTEgOTg5IC0zNiAmIzEwO1EgNjg0IDE5IDM0NyAxMjggJiMxMDtMIDM0NyA3MjIgJiMxMDtRIDY2NiA1NTYgOTc1IDQ3MyAmIzEwO1EgMTI4NCAzOTEgMTU4OCAzOTEgJiMxMDtRIDE5OTQgMzkxIDIyMTIgNTMwICYjMTA7USAyNDMxIDY2OSAyNDMxIDkyMiAmIzEwO1EgMjQzMSAxMTU2IDIyNzMgMTI4MSAmIzEwO1EgMjExNiAxNDA2IDE1ODEgMTUyMiAmIzEwO0wgMTM4MSAxNTY5ICYjMTA7USA4NDcgMTY4MSA2MDkgMTkxNCAmIzEwO1EgMzcyIDIxNDcgMzcyIDI1NTMgJiMxMDtRIDM3MiAzMDQ3IDcyMiAzMzE1ICYjMTA7USAxMDcyIDM1ODQgMTcxNiAzNTg0ICYjMTA7USAyMDM0IDM1ODQgMjMxNSAzNTM3ICYjMTA7USAyNTk3IDM0OTEgMjgzNCAzMzk3ICYjMTA7eiIgaWQ9IkRlamFWdVNhbnMtNzMiLz4mI3hhOyAgICAgICA8cGF0aCB0cmFuc2Zvcm09InNjYWxlKDAuMDE1NjI1KSIgZD0iTSAzNTEzIDIxMTMgJiMxMDtMIDM1MTMgMCAmIzEwO0wgMjkzOCAwICYjMTA7TCAyOTM4IDIwOTQgJiMxMDtRIDI5MzggMjU5MSAyNzQ0IDI4MzcgJiMxMDtRIDI1NTAgMzA4NCAyMTYzIDMwODQgJiMxMDtRIDE2OTcgMzA4NCAxNDI4IDI3ODcgJiMxMDtRIDExNTkgMjQ5MSAxMTU5IDE5NzggJiMxMDtMIDExNTkgMCAmIzEwO0wgNTgxIDAgJiMxMDtMIDU4MSAzNTAwICYjMTA7TCAxMTU5IDM1MDAgJiMxMDtMIDExNTkgMjk1NiAmIzEwO1EgMTM2NiAzMjcyIDE2NDUgMzQyOCAmIzEwO1EgMTkyNSAzNTg0IDIyOTEgMzU4NCAmIzEwO1EgMjg5NCAzNTg0IDMyMDMgMzIxMSAmIzEwO1EgMzUxMyAyODM4IDM1MTMgMjExMyAmIzEwO3oiIGlkPSJEZWphVnVTYW5zLTZlIi8+JiN4YTsgICAgICAgPHBhdGggdHJhbnNmb3JtPSJzY2FsZSgwLjAxNTYyNSkiIGQ9Ik0gNjI4IDQ2NjYgJiMxMDtMIDE1NjkgNDY2NiAmIzEwO0wgMjc1OSAxNDkxICYjMTA7TCAzOTU2IDQ2NjYgJiMxMDtMIDQ4OTcgNDY2NiAmIzEwO0wgNDg5NyAwICYjMTA7TCA0MjgxIDAgJiMxMDtMIDQyODEgNDA5NyAmIzEwO0wgMzA3OCA4OTcgJiMxMDtMIDI0NDQgODk3ICYjMTA7TCAxMjQxIDQwOTcgJiMxMDtMIDEyNDEgMCAmIzEwO0wgNjI4IDAgJiMxMDtMIDYyOCA0NjY2ICYjMTA7eiIgaWQ9IkRlamFWdVNhbnMtNGQiLz4mI3hhOyAgICAgICA8cGF0aCB0cmFuc2Zvcm09InNjYWxlKDAuMDE1NjI1KSIgZD0iTSAyOTA2IDE3OTEgJiMxMDtRIDI5MDYgMjQxNiAyNjQ4IDI3NTkgJiMxMDtRIDIzOTEgMzEwMyAxOTI1IDMxMDMgJiMxMDtRIDE0NjMgMzEwMyAxMjA1IDI3NTkgJiMxMDtRIDk0NyAyNDE2IDk0NyAxNzkxICYjMTA7USA5NDcgMTE2OSAxMjA1IDgyNSAmIzEwO1EgMTQ2MyA0ODEgMTkyNSA0ODEgJiMxMDtRIDIzOTEgNDgxIDI2NDggODI1ICYjMTA7USAyOTA2IDExNjkgMjkwNiAxNzkxICYjMTA7eiYjMTA7TSAzNDgxIDQzNCAmIzEwO1EgMzQ4MSAtNDU5IDMwODQgLTg5NSAmIzEwO1EgMjY4OCAtMTMzMSAxODY5IC0xMzMxICYjMTA7USAxNTY2IC0xMzMxIDEyOTcgLTEyODYgJiMxMDtRIDEwMjggLTEyNDEgNzc1IC0xMTQ3ICYjMTA7TCA3NzUgLTU4OCAmIzEwO1EgMTAyOCAtNzI1IDEyNzUgLTc5MCAmIzEwO1EgMTUyMiAtODU2IDE3NzggLTg1NiAmIzEwO1EgMjM0NCAtODU2IDI2MjUgLTU2MSAmIzEwO1EgMjkwNiAtMjY2IDI5MDYgMzMxICYjMTA7TCAyOTA2IDYxNiAmIzEwO1EgMjcyOCAzMDYgMjQ1MCAxNTMgJiMxMDtRIDIxNzIgMCAxNzg0IDAgJiMxMDtRIDExNDEgMCA3NDcgNDkwICYjMTA7USAzNTMgOTgxIDM1MyAxNzkxICYjMTA7USAzNTMgMjYwMyA3NDcgMzA5MyAmIzEwO1EgMTE0MSAzNTg0IDE3ODQgMzU4NCAmIzEwO1EgMjE3MiAzNTg0IDI0NTAgMzQzMSAmIzEwO1EgMjcyOCAzMjc4IDI5MDYgMjk2OSAmIzEwO0wgMjkwNiAzNTAwICYjMTA7TCAzNDgxIDM1MDAgJiMxMDtMIDM0ODEgNDM0ICYjMTA7eiIgaWQ9IkRlamFWdVNhbnMtNjciLz4mI3hhOyAgICAgIDwvZGVmcz4mI3hhOyAgICAgIDx1c2UgeGxpbms6aHJlZj0iI0RlamFWdVNhbnMtNGUiLz4mI3hhOyAgICAgIDx1c2UgeD0iNzQuODA0Njg4IiB4bGluazpocmVmPSIjRGVqYVZ1U2Fucy03NSIvPiYjeGE7ICAgICAgPHVzZSB4PSIxMzguMTgzNTk0IiB4bGluazpocmVmPSIjRGVqYVZ1U2Fucy02ZCIvPiYjeGE7ICAgICAgPHVzZSB4PSIyMzUuNTk1NzAzIiB4bGluazpocmVmPSIjRGVqYVZ1U2Fucy02MiIvPiYjeGE7ICAgICAgPHVzZSB4PSIyOTkuMDcyMjY2IiB4bGluazpocmVmPSIjRGVqYVZ1U2Fucy02NSIvPiYjeGE7ICAgICAgPHVzZSB4PSIzNjAuNTk1NzAzIiB4bGluazpocmVmPSIjRGVqYVZ1U2Fucy03MiIvPiYjeGE7ICAgICAgPHVzZSB4PSI0MDEuNzA4OTg0IiB4bGluazpocmVmPSIjRGVqYVZ1U2Fucy0yMCIvPiYjeGE7ICAgICAgPHVzZSB4PSI0MzMuNDk2MDk0IiB4bGluazpocmVmPSIjRGVqYVZ1U2Fucy02ZiIvPiYjeGE7ICAgICAgPHVzZSB4PSI0OTQuNjc3NzM0IiB4bGluazpocmVmPSIjRGVqYVZ1U2Fucy02NiIvPiYjeGE7ICAgICAgPHVzZSB4PSI1MjkuODgyODEyIiB4bGluazpocmVmPSIjRGVqYVZ1U2Fucy0yMCIvPiYjeGE7ICAgICAgPHVzZSB4PSI1NjEuNjY5OTIyIiB4bGluazpocmVmPSIjRGVqYVZ1U2Fucy01NiIvPiYjeGE7ICAgICAgPHVzZSB4PSI2MjIuMzI4MTI1IiB4bGluazpocmVmPSIjRGVqYVZ1U2Fucy02MSIvPiYjeGE7ICAgICAgPHVzZSB4PSI2ODMuNjA3NDIyIiB4bGluazpocmVmPSIjRGVqYVZ1U2Fucy03MiIvPiYjeGE7ICAgICAgPHVzZSB4PSI3MjQuNzIwNzAzIiB4bGluazpocmVmPSIjRGVqYVZ1U2Fucy02OSIvPiYjeGE7ICAgICAgPHVzZSB4PSI3NTIuNTAzOTA2IiB4bGluazpocmVmPSIjRGVqYVZ1U2Fucy02MSIvPiYjeGE7ICAgICAgPHVzZSB4PSI4MTMuNzgzMjAzIiB4bGluazpocmVmPSIjRGVqYVZ1U2Fucy02MiIvPiYjeGE7ICAgICAgPHVzZSB4PSI4NzcuMjU5NzY2IiB4bGluazpocmVmPSIjRGVqYVZ1U2Fucy02YyIvPiYjeGE7ICAgICAgPHVzZSB4PSI5MDUuMDQyOTY5IiB4bGluazpocmVmPSIjRGVqYVZ1U2Fucy02NSIvPiYjeGE7ICAgICAgPHVzZSB4PSI5NjYuNTY2NDA2IiB4bGluazpocmVmPSIjRGVqYVZ1U2Fucy03MyIvPiYjeGE7ICAgICAgPHVzZSB4PSIxMDE4LjY2NjAxNiIgeGxpbms6aHJlZj0iI0RlamFWdVNhbnMtMjAiLz4mI3hhOyAgICAgIDx1c2UgeD0iMTA1MC40NTMxMjUiIHhsaW5rOmhyZWY9IiNEZWphVnVTYW5zLTY5Ii8+JiN4YTsgICAgICA8dXNlIHg9IjEwNzguMjM2MzI4IiB4bGluazpocmVmPSIjRGVqYVZ1U2Fucy02ZSIvPiYjeGE7ICAgICAgPHVzZSB4PSIxMTQxLjYxNTIzNCIgeGxpbms6aHJlZj0iI0RlamFWdVNhbnMtMjAiLz4mI3hhOyAgICAgIDx1c2UgeD0iMTE3My40MDIzNDQiIHhsaW5rOmhyZWY9IiNEZWphVnVTYW5zLTYxIi8+JiN4YTsgICAgICA8dXNlIHg9IjEyMzQuNjgxNjQxIiB4bGluazpocmVmPSIjRGVqYVZ1U2Fucy0yMCIvPiYjeGE7ICAgICAgPHVzZSB4PSIxMjY2LjQ2ODc1IiB4bGluazpocmVmPSIjRGVqYVZ1U2Fucy00ZCIvPiYjeGE7ICAgICAgPHVzZSB4PSIxMzUyLjc0ODA0NyIgeGxpbms6aHJlZj0iI0RlamFWdVNhbnMtNjUiLz4mI3hhOyAgICAgIDx1c2UgeD0iMTQxNC4yNzE0ODQiIHhsaW5rOmhyZWY9IiNEZWphVnVTYW5zLTczIi8+JiN4YTsgICAgICA8dXNlIHg9IjE0NjYuMzcxMDk0IiB4bGluazpocmVmPSIjRGVqYVZ1U2Fucy03MyIvPiYjeGE7ICAgICAgPHVzZSB4PSIxNTE4LjQ3MDcwMyIgeGxpbms6aHJlZj0iI0RlamFWdVNhbnMtNjEiLz4mI3hhOyAgICAgIDx1c2UgeD0iMTU3OS43NSIgeGxpbms6aHJlZj0iI0RlamFWdVNhbnMtNjciLz4mI3hhOyAgICAgIDx1c2UgeD0iMTY0My4yMjY1NjIiIHhsaW5rOmhyZWY9IiNEZWphVnVTYW5zLTY1Ii8+JiN4YTsgICAgIDwvZz4mI3hhOyAgICA8L2c+JiN4YTsgICA8L2c+JiN4YTsgICA8ZyBpZD0ibWF0cGxvdGxpYi5heGlzXzIiPiYjeGE7ICAgIDxnIGlkPSJ5dGlja18xIj4mI3hhOyAgICAgPGcgaWQ9ImxpbmUyZF81Ij4mI3hhOyAgICAgIDxkZWZzPiYjeGE7ICAgICAgIDxwYXRoIHN0eWxlPSJzdHJva2U6ICMwMDAwMDA7IHN0cm9rZS13aWR0aDogMC44IiBkPSJNIDAgMCAmIzEwO0wgLTMuNSAwIiBpZD0ibWM3NTM4MDg2YTAiLz4mI3hhOyAgICAgIDwvZGVmcz4mI3hhOyAgICAgIDxnPiYjeGE7ICAgICAgIDx1c2Ugc3R5bGU9InN0cm9rZTogIzAwMDAwMDsgc3Ryb2tlLXdpZHRoOiAwLjgiIHk9IjIzOS42NTkyIiB4PSI0Mi4xMiIgeGxpbms6aHJlZj0iI21jNzUzODA4NmEwIi8+JiN4YTsgICAgICA8L2c+JiN4YTsgICAgIDwvZz4mI3hhOyAgICAgPGcgaWQ9InRleHRfNiI+JiN4YTsgICAgICAmI3hhOyAgICAgIDxnIHRyYW5zZm9ybT0idHJhbnNsYXRlKDI4Ljc1NzUgMjQzLjQ1ODQxOSkgc2NhbGUoMC4xIC0wLjEpIj4mI3hhOyAgICAgICA8dXNlIHhsaW5rOmhyZWY9IiNEZWphVnVTYW5zLTMwIi8+JiN4YTsgICAgICA8L2c+JiN4YTsgICAgIDwvZz4mI3hhOyAgICA8L2c+JiN4YTsgICAgPGcgaWQ9Inl0aWNrXzIiPiYjeGE7ICAgICA8ZyBpZD0ibGluZTJkXzYiPiYjeGE7ICAgICAgPGc+JiN4YTsgICAgICAgPHVzZSBzdHlsZT0ic3Ryb2tlOiAjMDAwMDAwOyBzdHJva2Utd2lkdGg6IDAuOCIgeT0iMTkzLjgwMzMwOCIgeD0iNDIuMTIiIHhsaW5rOmhyZWY9IiNtYzc1MzgwODZhMCIvPiYjeGE7ICAgICAgPC9nPiYjeGE7ICAgICA8L2c+JiN4YTsgICAgIDxnIGlkPSJ0ZXh0XzciPiYjeGE7ICAgICAgJiN4YTsgICAgICA8ZyB0cmFuc2Zvcm09InRyYW5zbGF0ZSgyMi4zOTUgMTk3LjYwMjUyNykgc2NhbGUoMC4xIC0wLjEpIj4mI3hhOyAgICAgICA8dXNlIHhsaW5rOmhyZWY9IiNEZWphVnVTYW5zLTMxIi8+JiN4YTsgICAgICAgPHVzZSB4PSI2My42MjMwNDciIHhsaW5rOmhyZWY9IiNEZWphVnVTYW5zLTMwIi8+JiN4YTsgICAgICA8L2c+JiN4YTsgICAgIDwvZz4mI3hhOyAgICA8L2c+JiN4YTsgICAgPGcgaWQ9Inl0aWNrXzMiPiYjeGE7ICAgICA8ZyBpZD0ibGluZTJkXzciPiYjeGE7ICAgICAgPGc+JiN4YTsgICAgICAgPHVzZSBzdHlsZT0ic3Ryb2tlOiAjMDAwMDAwOyBzdHJva2Utd2lkdGg6IDAuOCIgeT0iMTQ3Ljk0NzQxNyIgeD0iNDIuMTIiIHhsaW5rOmhyZWY9IiNtYzc1MzgwODZhMCIvPiYjeGE7ICAgICAgPC9nPiYjeGE7ICAgICA8L2c+JiN4YTsgICAgIDxnIGlkPSJ0ZXh0XzgiPiYjeGE7ICAgICAgJiN4YTsgICAgICA8ZyB0cmFuc2Zvcm09InRyYW5zbGF0ZSgyMi4zOTUgMTUxLjc0NjYzNSkgc2NhbGUoMC4xIC0wLjEpIj4mI3hhOyAgICAgICA8ZGVmcz4mI3hhOyAgICAgICAgPHBhdGggdHJhbnNmb3JtPSJzY2FsZSgwLjAxNTYyNSkiIGQ9Ik0gMTIyOCA1MzEgJiMxMDtMIDM0MzEgNTMxICYjMTA7TCAzNDMxIDAgJiMxMDtMIDQ2OSAwICYjMTA7TCA0NjkgNTMxICYjMTA7USA4MjggOTAzIDE0NDggMTUyOSAmIzEwO1EgMjA2OSAyMTU2IDIyMjggMjMzOCAmIzEwO1EgMjUzMSAyNjc4IDI2NTEgMjkxNCAmIzEwO1EgMjc3MiAzMTUwIDI3NzIgMzM3OCAmIzEwO1EgMjc3MiAzNzUwIDI1MTEgMzk4NCAmIzEwO1EgMjI1MCA0MjE5IDE4MzEgNDIxOSAmIzEwO1EgMTUzNCA0MjE5IDEyMDQgNDExNiAmIzEwO1EgODc1IDQwMTMgNTAwIDM4MDMgJiMxMDtMIDUwMCA0NDQxICYjMTA7USA4ODEgNDU5NCAxMjEyIDQ2NzIgJiMxMDtRIDE1NDQgNDc1MCAxODE5IDQ3NTAgJiMxMDtRIDI1NDQgNDc1MCAyOTc1IDQzODcgJiMxMDtRIDM0MDYgNDAyNSAzNDA2IDM0MTkgJiMxMDtRIDM0MDYgMzEzMSAzMjk4IDI4NzMgJiMxMDtRIDMxOTEgMjYxNiAyOTA2IDIyNjYgJiMxMDtRIDI4MjggMjE3NSAyNDA5IDE3NDIgJiMxMDtRIDE5OTEgMTMwOSAxMjI4IDUzMSAmIzEwO3oiIGlkPSJEZWphVnVTYW5zLTMyIi8+JiN4YTsgICAgICAgPC9kZWZzPiYjeGE7ICAgICAgIDx1c2UgeGxpbms6aHJlZj0iI0RlamFWdVNhbnMtMzIiLz4mI3hhOyAgICAgICA8dXNlIHg9IjYzLjYyMzA0NyIgeGxpbms6aHJlZj0iI0RlamFWdVNhbnMtMzAiLz4mI3hhOyAgICAgIDwvZz4mI3hhOyAgICAgPC9nPiYjeGE7ICAgIDwvZz4mI3hhOyAgICA8ZyBpZD0ieXRpY2tfNCI+JiN4YTsgICAgIDxnIGlkPSJsaW5lMmRfOCI+JiN4YTsgICAgICA8Zz4mI3hhOyAgICAgICA8dXNlIHN0eWxlPSJzdHJva2U6ICMwMDAwMDA7IHN0cm9rZS13aWR0aDogMC44IiB5PSIxMDIuMDkxNTI1IiB4PSI0Mi4xMiIgeGxpbms6aHJlZj0iI21jNzUzODA4NmEwIi8+JiN4YTsgICAgICA8L2c+JiN4YTsgICAgIDwvZz4mI3hhOyAgICAgPGcgaWQ9InRleHRfOSI+JiN4YTsgICAgICAmI3hhOyAgICAgIDxnIHRyYW5zZm9ybT0idHJhbnNsYXRlKDIyLjM5NSAxMDUuODkwNzQ0KSBzY2FsZSgwLjEgLTAuMSkiPiYjeGE7ICAgICAgIDxkZWZzPiYjeGE7ICAgICAgICA8cGF0aCB0cmFuc2Zvcm09InNjYWxlKDAuMDE1NjI1KSIgZD0iTSAyNTk3IDI1MTYgJiMxMDtRIDMwNTAgMjQxOSAzMzA0IDIxMTIgJiMxMDtRIDM1NTkgMTgwNiAzNTU5IDEzNTYgJiMxMDtRIDM1NTkgNjY2IDMwODQgMjg3ICYjMTA7USAyNjA5IC05MSAxNzM0IC05MSAmIzEwO1EgMTQ0MSAtOTEgMTEzMCAtMzMgJiMxMDtRIDgxOSAyNSA0ODggMTQxICYjMTA7TCA0ODggNzUwICYjMTA7USA3NTAgNTk3IDEwNjIgNTE5ICYjMTA7USAxMzc1IDQ0MSAxNzE2IDQ0MSAmIzEwO1EgMjMwOSA0NDEgMjYyMCA2NzUgJiMxMDtRIDI5MzEgOTA5IDI5MzEgMTM1NiAmIzEwO1EgMjkzMSAxNzY5IDI2NDIgMjAwMSAmIzEwO1EgMjM1MyAyMjM0IDE4MzggMjIzNCAmIzEwO0wgMTI5NCAyMjM0ICYjMTA7TCAxMjk0IDI3NTMgJiMxMDtMIDE4NjMgMjc1MyAmIzEwO1EgMjMyOCAyNzUzIDI1NzUgMjkzOSAmIzEwO1EgMjgyMiAzMTI1IDI4MjIgMzQ3NSAmIzEwO1EgMjgyMiAzODM0IDI1NjcgNDAyNiAmIzEwO1EgMjMxMyA0MjE5IDE4MzggNDIxOSAmIzEwO1EgMTU3OCA0MjE5IDEyODEgNDE2MiAmIzEwO1EgOTg0IDQxMDYgNjI4IDM5ODggJiMxMDtMIDYyOCA0NTUwICYjMTA7USA5ODggNDY1MCAxMzAyIDQ3MDAgJiMxMDtRIDE2MTYgNDc1MCAxODk0IDQ3NTAgJiMxMDtRIDI2MTMgNDc1MCAzMDMxIDQ0MjMgJiMxMDtRIDM0NTAgNDA5NyAzNDUwIDM1NDEgJiMxMDtRIDM0NTAgMzE1MyAzMjI4IDI4ODYgJiMxMDtRIDMwMDYgMjYxOSAyNTk3IDI1MTYgJiMxMDt6IiBpZD0iRGVqYVZ1U2Fucy0zMyIvPiYjeGE7ICAgICAgIDwvZGVmcz4mI3hhOyAgICAgICA8dXNlIHhsaW5rOmhyZWY9IiNEZWphVnVTYW5zLTMzIi8+JiN4YTsgICAgICAgPHVzZSB4PSI2My42MjMwNDciIHhsaW5rOmhyZWY9IiNEZWphVnVTYW5zLTMwIi8+JiN4YTsgICAgICA8L2c+JiN4YTsgICAgIDwvZz4mI3hhOyAgICA8L2c+JiN4YTsgICAgPGcgaWQ9Inl0aWNrXzUiPiYjeGE7ICAgICA8ZyBpZD0ibGluZTJkXzkiPiYjeGE7ICAgICAgPGc+JiN4YTsgICAgICAgPHVzZSBzdHlsZT0ic3Ryb2tlOiAjMDAwMDAwOyBzdHJva2Utd2lkdGg6IDAuOCIgeT0iNTYuMjM1NjMzIiB4PSI0Mi4xMiIgeGxpbms6aHJlZj0iI21jNzUzODA4NmEwIi8+JiN4YTsgICAgICA8L2c+JiN4YTsgICAgIDwvZz4mI3hhOyAgICAgPGcgaWQ9InRleHRfMTAiPiYjeGE7ICAgICAgJiN4YTsgICAgICA8ZyB0cmFuc2Zvcm09InRyYW5zbGF0ZSgyMi4zOTUgNjAuMDM0ODUyKSBzY2FsZSgwLjEgLTAuMSkiPiYjeGE7ICAgICAgIDxkZWZzPiYjeGE7ICAgICAgICA8cGF0aCB0cmFuc2Zvcm09InNjYWxlKDAuMDE1NjI1KSIgZD0iTSAyNDE5IDQxMTYgJiMxMDtMIDgyNSAxNjI1ICYjMTA7TCAyNDE5IDE2MjUgJiMxMDtMIDI0MTkgNDExNiAmIzEwO3omIzEwO00gMjI1MyA0NjY2ICYjMTA7TCAzMDQ3IDQ2NjYgJiMxMDtMIDMwNDcgMTYyNSAmIzEwO0wgMzcxMyAxNjI1ICYjMTA7TCAzNzEzIDExMDAgJiMxMDtMIDMwNDcgMTEwMCAmIzEwO0wgMzA0NyAwICYjMTA7TCAyNDE5IDAgJiMxMDtMIDI0MTkgMTEwMCAmIzEwO0wgMzEzIDExMDAgJiMxMDtMIDMxMyAxNzA5ICYjMTA7TCAyMjUzIDQ2NjYgJiMxMDt6IiBpZD0iRGVqYVZ1U2Fucy0zNCIvPiYjeGE7ICAgICAgIDwvZGVmcz4mI3hhOyAgICAgICA8dXNlIHhsaW5rOmhyZWY9IiNEZWphVnVTYW5zLTM0Ii8+JiN4YTsgICAgICAgPHVzZSB4PSI2My42MjMwNDciIHhsaW5rOmhyZWY9IiNEZWphVnVTYW5zLTMwIi8+JiN4YTsgICAgICA8L2c+JiN4YTsgICAgIDwvZz4mI3hhOyAgICA8L2c+JiN4YTsgICAgPGcgaWQ9InRleHRfMTEiPiYjeGE7ICAgICAmI3hhOyAgICAgPGcgdHJhbnNmb3JtPSJ0cmFuc2xhdGUoMTYuMzE1MzEyIDIxMC42OTgxMTkpIHJvdGF0ZSgtOTApIHNjYWxlKDAuMSAtMC4xKSI+JiN4YTsgICAgICA8ZGVmcz4mI3hhOyAgICAgICA8cGF0aCB0cmFuc2Zvcm09InNjYWxlKDAuMDE1NjI1KSIgZD0iTSA2MjggNDY2NiAmIzEwO0wgMzU3OCA0NjY2ICYjMTA7TCAzNTc4IDQxMzQgJiMxMDtMIDEyNTkgNDEzNCAmIzEwO0wgMTI1OSAyNzUzICYjMTA7TCAzNDgxIDI3NTMgJiMxMDtMIDM0ODEgMjIyMiAmIzEwO0wgMTI1OSAyMjIyICYjMTA7TCAxMjU5IDUzMSAmIzEwO0wgMzYzNCA1MzEgJiMxMDtMIDM2MzQgMCAmIzEwO0wgNjI4IDAgJiMxMDtMIDYyOCA0NjY2ICYjMTA7eiIgaWQ9IkRlamFWdVNhbnMtNDUiLz4mI3hhOyAgICAgICA8cGF0aCB0cmFuc2Zvcm09InNjYWxlKDAuMDE1NjI1KSIgZD0iTSAzNTEzIDM1MDAgJiMxMDtMIDIyNDcgMTc5NyAmIzEwO0wgMzU3OCAwICYjMTA7TCAyOTAwIDAgJiMxMDtMIDE4ODEgMTM3NSAmIzEwO0wgODYzIDAgJiMxMDtMIDE4NCAwICYjMTA7TCAxNTQ0IDE4MzEgJiMxMDtMIDMwMCAzNTAwICYjMTA7TCA5NzggMzUwMCAmIzEwO0wgMTkwNiAyMjUzICYjMTA7TCAyODM0IDM1MDAgJiMxMDtMIDM1MTMgMzUwMCAmIzEwO3oiIGlkPSJEZWphVnVTYW5zLTc4Ii8+JiN4YTsgICAgICAgPHBhdGggdHJhbnNmb3JtPSJzY2FsZSgwLjAxNTYyNSkiIGQ9Ik0gMzEyMiAzMzY2ICYjMTA7TCAzMTIyIDI4MjggJiMxMDtRIDI4NzggMjk2MyAyNjMzIDMwMzAgJiMxMDtRIDIzODggMzA5NyAyMTM4IDMwOTcgJiMxMDtRIDE1NzggMzA5NyAxMjY4IDI3NDIgJiMxMDtRIDk1OSAyMzg4IDk1OSAxNzQ3ICYjMTA7USA5NTkgMTEwNiAxMjY4IDc1MSAmIzEwO1EgMTU3OCAzOTcgMjEzOCAzOTcgJiMxMDtRIDIzODggMzk3IDI2MzMgNDY0ICYjMTA7USAyODc4IDUzMSAzMTIyIDY2NiAmIzEwO0wgMzEyMiAxMzQgJiMxMDtRIDI4ODEgMjIgMjYyMyAtMzQgJiMxMDtRIDIzNjYgLTkxIDIwNzUgLTkxICYjMTA7USAxMjg0IC05MSA4MTggNDA2ICYjMTA7USAzNTMgOTAzIDM1MyAxNzQ3ICYjMTA7USAzNTMgMjYwMyA4MjMgMzA5MyAmIzEwO1EgMTI5NCAzNTg0IDIxMTMgMzU4NCAmIzEwO1EgMjM3OCAzNTg0IDI2MzEgMzUyOSAmIzEwO1EgMjg4NCAzNDc1IDMxMjIgMzM2NiAmIzEwO3oiIGlkPSJEZWphVnVTYW5zLTYzIi8+JiN4YTsgICAgICAgPHBhdGggdHJhbnNmb3JtPSJzY2FsZSgwLjAxNTYyNSkiIGQ9Ik0gMTE3MiA0NDk0ICYjMTA7TCAxMTcyIDM1MDAgJiMxMDtMIDIzNTYgMzUwMCAmIzEwO0wgMjM1NiAzMDUzICYjMTA7TCAxMTcyIDMwNTMgJiMxMDtMIDExNzIgMTE1MyAmIzEwO1EgMTE3MiA3MjUgMTI4OSA2MDMgJiMxMDtRIDE0MDYgNDgxIDE3NjYgNDgxICYjMTA7TCAyMzU2IDQ4MSAmIzEwO0wgMjM1NiAwICYjMTA7TCAxNzY2IDAgJiMxMDtRIDExMDAgMCA4NDcgMjQ4ICYjMTA7USA1OTQgNDk3IDU5NCAxMTUzICYjMTA7TCA1OTQgMzA1MyAmIzEwO0wgMTcyIDMwNTMgJiMxMDtMIDE3MiAzNTAwICYjMTA7TCA1OTQgMzUwMCAmIzEwO0wgNTk0IDQ0OTQgJiMxMDtMIDExNzIgNDQ5NCAmIzEwO3oiIGlkPSJEZWphVnVTYW5zLTc0Ii8+JiN4YTsgICAgICAgPHBhdGggdHJhbnNmb3JtPSJzY2FsZSgwLjAxNTYyNSkiIGQ9Ik0gLTE5IDQ2NjYgJiMxMDtMIDM5MjggNDY2NiAmIzEwO0wgMzkyOCA0MTM0ICYjMTA7TCAyMjcyIDQxMzQgJiMxMDtMIDIyNzIgMCAmIzEwO0wgMTYzOCAwICYjMTA7TCAxNjM4IDQxMzQgJiMxMDtMIC0xOSA0MTM0ICYjMTA7TCAtMTkgNDY2NiAmIzEwO3oiIGlkPSJEZWphVnVTYW5zLTU0Ii8+JiN4YTsgICAgICAgPHBhdGggdHJhbnNmb3JtPSJzY2FsZSgwLjAxNTYyNSkiIGQ9Ik0gMTk4NCA0ODU2ICYjMTA7USAxNTY2IDQxMzggMTM2MiAzNDM0ICYjMTA7USAxMTU5IDI3MzEgMTE1OSAyMDA5ICYjMTA7USAxMTU5IDEyODggMTM2NCA1ODAgJiMxMDtRIDE1NjkgLTEyOCAxOTg0IC04NDQgJiMxMDtMIDE0ODQgLTg0NCAmIzEwO1EgMTAxNiAtMTA5IDc4MyA2MDAgJiMxMDtRIDU1MCAxMzA5IDU1MCAyMDA5ICYjMTA7USA1NTAgMjcwNiA3ODEgMzQxMiAmIzEwO1EgMTAxMyA0MTE5IDE0ODQgNDg1NiAmIzEwO0wgMTk4NCA0ODU2ICYjMTA7eiIgaWQ9IkRlamFWdVNhbnMtMjgiLz4mI3hhOyAgICAgICA8cGF0aCB0cmFuc2Zvcm09InNjYWxlKDAuMDE1NjI1KSIgZD0iTSAyOTA2IDI5NjkgJiMxMDtMIDI5MDYgNDg2MyAmIzEwO0wgMzQ4MSA0ODYzICYjMTA7TCAzNDgxIDAgJiMxMDtMIDI5MDYgMCAmIzEwO0wgMjkwNiA1MjUgJiMxMDtRIDI3MjUgMjEzIDI0NDggNjEgJiMxMDtRIDIxNzIgLTkxIDE3ODQgLTkxICYjMTA7USAxMTUwIC05MSA3NTEgNDE1ICYjMTA7USAzNTMgOTIyIDM1MyAxNzQ3ICYjMTA7USAzNTMgMjU3MiA3NTEgMzA3OCAmIzEwO1EgMTE1MCAzNTg0IDE3ODQgMzU4NCAmIzEwO1EgMjE3MiAzNTg0IDI0NDggMzQzMiAmIzEwO1EgMjcyNSAzMjgxIDI5MDYgMjk2OSAmIzEwO3omIzEwO00gOTQ3IDE3NDcgJiMxMDtRIDk0NyAxMTEzIDEyMDggNzUyICYjMTA7USAxNDY5IDM5MSAxOTI1IDM5MSAmIzEwO1EgMjM4MSAzOTEgMjY0MyA3NTIgJiMxMDtRIDI5MDYgMTExMyAyOTA2IDE3NDcgJiMxMDtRIDI5MDYgMjM4MSAyNjQzIDI3NDIgJiMxMDtRIDIzODEgMzEwMyAxOTI1IDMxMDMgJiMxMDtRIDE0NjkgMzEwMyAxMjA4IDI3NDIgJiMxMDtRIDk0NyAyMzgxIDk0NyAxNzQ3ICYjMTA7eiIgaWQ9IkRlamFWdVNhbnMtNjQiLz4mI3hhOyAgICAgICA8cGF0aCB0cmFuc2Zvcm09InNjYWxlKDAuMDE1NjI1KSIgZD0iTSA1MTMgNDg1NiAmIzEwO0wgMTAxMyA0ODU2ICYjMTA7USAxNDgxIDQxMTkgMTcxNCAzNDEyICYjMTA7USAxOTQ3IDI3MDYgMTk0NyAyMDA5ICYjMTA7USAxOTQ3IDEzMDkgMTcxNCA2MDAgJiMxMDtRIDE0ODEgLTEwOSAxMDEzIC04NDQgJiMxMDtMIDUxMyAtODQ0ICYjMTA7USA5MjggLTEyOCAxMTMzIDU4MCAmIzEwO1EgMTMzOCAxMjg4IDEzMzggMjAwOSAmIzEwO1EgMTMzOCAyNzMxIDExMzMgMzQzNCAmIzEwO1EgOTI4IDQxMzggNTEzIDQ4NTYgJiMxMDt6IiBpZD0iRGVqYVZ1U2Fucy0yOSIvPiYjeGE7ICAgICAgPC9kZWZzPiYjeGE7ICAgICAgPHVzZSB4bGluazpocmVmPSIjRGVqYVZ1U2Fucy00NSIvPiYjeGE7ICAgICAgPHVzZSB4PSI2My4xODM1OTQiIHhsaW5rOmhyZWY9IiNEZWphVnVTYW5zLTc4Ii8+JiN4YTsgICAgICA8dXNlIHg9IjExOS4yMzgyODEiIHhsaW5rOmhyZWY9IiNEZWphVnVTYW5zLTY1Ii8+JiN4YTsgICAgICA8dXNlIHg9IjE4MC43NjE3MTkiIHhsaW5rOmhyZWY9IiNEZWphVnVTYW5zLTYzIi8+JiN4YTsgICAgICA8dXNlIHg9IjIzNS43NDIxODgiIHhsaW5rOmhyZWY9IiNEZWphVnVTYW5zLTc1Ii8+JiN4YTsgICAgICA8dXNlIHg9IjI5OS4xMjEwOTQiIHhsaW5rOmhyZWY9IiNEZWphVnVTYW5zLTc0Ii8+JiN4YTsgICAgICA8dXNlIHg9IjMzOC4zMzAwNzgiIHhsaW5rOmhyZWY9IiNEZWphVnVTYW5zLTY5Ii8+JiN4YTsgICAgICA8dXNlIHg9IjM2Ni4xMTMyODEiIHhsaW5rOmhyZWY9IiNEZWphVnVTYW5zLTZmIi8+JiN4YTsgICAgICA8dXNlIHg9IjQyNy4yOTQ5MjIiIHhsaW5rOmhyZWY9IiNEZWphVnVTYW5zLTZlIi8+JiN4YTsgICAgICA8dXNlIHg9IjQ5MC42NzM4MjgiIHhsaW5rOmhyZWY9IiNEZWphVnVTYW5zLTIwIi8+JiN4YTsgICAgICA8dXNlIHg9IjUyMi40NjA5MzgiIHhsaW5rOmhyZWY9IiNEZWphVnVTYW5zLTU0Ii8+JiN4YTsgICAgICA8dXNlIHg9IjU4MC40MTk5MjIiIHhsaW5rOmhyZWY9IiNEZWphVnVTYW5zLTY5Ii8+JiN4YTsgICAgICA8dXNlIHg9IjYwOC4yMDMxMjUiIHhsaW5rOmhyZWY9IiNEZWphVnVTYW5zLTZkIi8+JiN4YTsgICAgICA8dXNlIHg9IjcwNS42MTUyMzQiIHhsaW5rOmhyZWY9IiNEZWphVnVTYW5zLTY1Ii8+JiN4YTsgICAgICA8dXNlIHg9Ijc2Ny4xMzg2NzIiIHhsaW5rOmhyZWY9IiNEZWphVnVTYW5zLTIwIi8+JiN4YTsgICAgICA8dXNlIHg9Ijc5OC45MjU3ODEiIHhsaW5rOmhyZWY9IiNEZWphVnVTYW5zLTI4Ii8+JiN4YTsgICAgICA8dXNlIHg9IjgzNy45Mzk0NTMiIHhsaW5rOmhyZWY9IiNEZWphVnVTYW5zLTZkIi8+JiN4YTsgICAgICA8dXNlIHg9IjkzNS4zNTE1NjIiIHhsaW5rOmhyZWY9IiNEZWphVnVTYW5zLTY5Ii8+JiN4YTsgICAgICA8dXNlIHg9Ijk2My4xMzQ3NjYiIHhsaW5rOmhyZWY9IiNEZWphVnVTYW5zLTZjIi8+JiN4YTsgICAgICA8dXNlIHg9Ijk5MC45MTc5NjkiIHhsaW5rOmhyZWY9IiNEZWphVnVTYW5zLTZjIi8+JiN4YTsgICAgICA8dXNlIHg9IjEwMTguNzAxMTcyIiB4bGluazpocmVmPSIjRGVqYVZ1U2Fucy02OSIvPiYjeGE7ICAgICAgPHVzZSB4PSIxMDQ2LjQ4NDM3NSIgeGxpbms6aHJlZj0iI0RlamFWdVNhbnMtNzMiLz4mI3hhOyAgICAgIDx1c2UgeD0iMTA5OC41ODM5ODQiIHhsaW5rOmhyZWY9IiNEZWphVnVTYW5zLTY1Ii8+JiN4YTsgICAgICA8dXNlIHg9IjExNjAuMTA3NDIyIiB4bGluazpocmVmPSIjRGVqYVZ1U2Fucy02MyIvPiYjeGE7ICAgICAgPHVzZSB4PSIxMjE1LjA4Nzg5MSIgeGxpbms6aHJlZj0iI0RlamFWdVNhbnMtNmYiLz4mI3hhOyAgICAgIDx1c2UgeD0iMTI3Ni4yNjk1MzEiIHhsaW5rOmhyZWY9IiNEZWphVnVTYW5zLTZlIi8+JiN4YTsgICAgICA8dXNlIHg9IjEzMzkuNjQ4NDM4IiB4bGluazpocmVmPSIjRGVqYVZ1U2Fucy02NCIvPiYjeGE7ICAgICAgPHVzZSB4PSIxNDAzLjEyNSIgeGxpbms6aHJlZj0iI0RlamFWdVNhbnMtNzMiLz4mI3hhOyAgICAgIDx1c2UgeD0iMTQ1NS4yMjQ2MDkiIHhsaW5rOmhyZWY9IiNEZWphVnVTYW5zLTI5Ii8+JiN4YTsgICAgIDwvZz4mI3hhOyAgICA8L2c+JiN4YTsgICA8L2c+JiN4YTsgICA8ZyBpZD0iTGluZUNvbGxlY3Rpb25fMSI+JiN4YTsgICAgPHBhdGggc3R5bGU9ImZpbGw6IG5vbmU7IHN0cm9rZTogIzAwMDAwMDsgc3Ryb2tlLXdpZHRoOiAxLjUiIGNsaXAtcGF0aD0idXJsKCNwZTM2YjdjNWFhMikiIGQ9Ik0gNjAuOTcyNjQyIDIwOS41OTU2NjcgJiMxMDtMIDYwLjk3MjY0MiAxODAuMDY1MjkzIi8+JiN4YTsgICAgPHBhdGggc3R5bGU9ImZpbGw6IG5vbmU7IHN0cm9rZTogIzAwMDAwMDsgc3Ryb2tlLXdpZHRoOiAxLjUiIGNsaXAtcGF0aD0idXJsKCNwZTM2YjdjNWFhMikiIGQ9Ik0gMTMwLjc5NzI0MSAxNjguNjk5NDQxICYjMTA7TCAxMzAuNzk3MjQxIDE0My43NzY4ODIiLz4mI3hhOyAgICA8cGF0aCBzdHlsZT0iZmlsbDogbm9uZTsgc3Ryb2tlOiAjMDAwMDAwOyBzdHJva2Utd2lkdGg6IDEuNSIgY2xpcC1wYXRoPSJ1cmwoI3BlMzZiN2M1YWEyKSIgZD0iTSAyMDAuNjIxODQgMTQ4Ljg3NjgwNSAmIzEwO0wgMjAwLjYyMTg0IDEwMS41MjkwMDIiLz4mI3hhOyAgICA8cGF0aCBzdHlsZT0iZmlsbDogbm9uZTsgc3Ryb2tlOiAjMDAwMDAwOyBzdHJva2Utd2lkdGg6IDEuNSIgY2xpcC1wYXRoPSJ1cmwoI3BlMzZiN2M1YWEyKSIgZD0iTSAyNzAuNDQ2NDM5IDk1LjI4NDY5OCAmIzEwO0wgMjcwLjQ0NjQzOSA0Mi4xODcyIi8+JiN4YTsgICA8L2c+JiN4YTsgICA8ZyBpZD0ibGluZTJkXzEwIj4mI3hhOyAgICA8ZGVmcz4mI3hhOyAgICAgPHBhdGggc3R5bGU9InN0cm9rZTogIzAwMDAwMCIgZD0iTSA3IDAgJiMxMDtMIC03IC0wIiBpZD0ibTE4ZWNkOGIzYzEiLz4mI3hhOyAgICA8L2RlZnM+JiN4YTsgICAgPGcgY2xpcC1wYXRoPSJ1cmwoI3BlMzZiN2M1YWEyKSI+JiN4YTsgICAgIDx1c2Ugc3R5bGU9InN0cm9rZTogIzAwMDAwMCIgeT0iMjA5LjU5NTY2NyIgeD0iNjAuOTcyNjQyIiB4bGluazpocmVmPSIjbTE4ZWNkOGIzYzEiLz4mI3hhOyAgICAgPHVzZSBzdHlsZT0ic3Ryb2tlOiAjMDAwMDAwIiB5PSIxNjguNjk5NDQxIiB4PSIxMzAuNzk3MjQxIiB4bGluazpocmVmPSIjbTE4ZWNkOGIzYzEiLz4mI3hhOyAgICAgPHVzZSBzdHlsZT0ic3Ryb2tlOiAjMDAwMDAwIiB5PSIxNDguODc2ODA1IiB4PSIyMDAuNjIxODQiIHhsaW5rOmhyZWY9IiNtMThlY2Q4YjNjMSIvPiYjeGE7ICAgICA8dXNlIHN0eWxlPSJzdHJva2U6ICMwMDAwMDAiIHk9Ijk1LjI4NDY5OCIgeD0iMjcwLjQ0NjQzOSIgeGxpbms6aHJlZj0iI20xOGVjZDhiM2MxIi8+JiN4YTsgICAgPC9nPiYjeGE7ICAgPC9nPiYjeGE7ICAgPGcgaWQ9ImxpbmUyZF8xMSI+JiN4YTsgICAgPGcgY2xpcC1wYXRoPSJ1cmwoI3BlMzZiN2M1YWEyKSI+JiN4YTsgICAgIDx1c2Ugc3R5bGU9InN0cm9rZTogIzAwMDAwMCIgeT0iMTgwLjA2NTI5MyIgeD0iNjAuOTcyNjQyIiB4bGluazpocmVmPSIjbTE4ZWNkOGIzYzEiLz4mI3hhOyAgICAgPHVzZSBzdHlsZT0ic3Ryb2tlOiAjMDAwMDAwIiB5PSIxNDMuNzc2ODgyIiB4PSIxMzAuNzk3MjQxIiB4bGluazpocmVmPSIjbTE4ZWNkOGIzYzEiLz4mI3hhOyAgICAgPHVzZSBzdHlsZT0ic3Ryb2tlOiAjMDAwMDAwIiB5PSIxMDEuNTI5MDAyIiB4PSIyMDAuNjIxODQiIHhsaW5rOmhyZWY9IiNtMThlY2Q4YjNjMSIvPiYjeGE7ICAgICA8dXNlIHN0eWxlPSJzdHJva2U6ICMwMDAwMDAiIHk9IjQyLjE4NzIiIHg9IjI3MC40NDY0MzkiIHhsaW5rOmhyZWY9IiNtMThlY2Q4YjNjMSIvPiYjeGE7ICAgIDwvZz4mI3hhOyAgIDwvZz4mI3hhOyAgIDxnIGlkPSJMaW5lQ29sbGVjdGlvbl8yIj4mI3hhOyAgICA8cGF0aCBzdHlsZT0iZmlsbDogbm9uZTsgc3Ryb2tlOiAjMDAwMDAwOyBzdHJva2Utd2lkdGg6IDEuNSIgY2xpcC1wYXRoPSJ1cmwoI3BlMzZiN2M1YWEyKSIgZD0iTSA3NC45Mzc1NjEgMjA3LjA2MDYwNCAmIzEwO0wgNzQuOTM3NTYxIDE5NC40MTI4MzQiLz4mI3hhOyAgICA8cGF0aCBzdHlsZT0iZmlsbDogbm9uZTsgc3Ryb2tlOiAjMDAwMDAwOyBzdHJva2Utd2lkdGg6IDEuNSIgY2xpcC1wYXRoPSJ1cmwoI3BlMzZiN2M1YWEyKSIgZD0iTSAxNDQuNzYyMTYgMjA5LjMzNzkzNCAmIzEwO0wgMTQ0Ljc2MjE2IDE5My4xNDQzMzQiLz4mI3hhOyAgICA8cGF0aCBzdHlsZT0iZmlsbDogbm9uZTsgc3Ryb2tlOiAjMDAwMDAwOyBzdHJva2Utd2lkdGg6IDEuNSIgY2xpcC1wYXRoPSJ1cmwoI3BlMzZiN2M1YWEyKSIgZD0iTSAyMTQuNTg2NzU5IDIxNC4wODcwOTkgJiMxMDtMIDIxNC41ODY3NTkgMTk1LjIzNjg2NyIvPiYjeGE7ICAgIDxwYXRoIHN0eWxlPSJmaWxsOiBub25lOyBzdHJva2U6ICMwMDAwMDA7IHN0cm9rZS13aWR0aDogMS41IiBjbGlwLXBhdGg9InVybCgjcGUzNmI3YzVhYTIpIiBkPSJNIDI4NC40MTEzNTggMjExLjEyNDM2NCAmIzEwO0wgMjg0LjQxMTM1OCAxOTguNTExNDIzIi8+JiN4YTsgICA8L2c+JiN4YTsgICA8ZyBpZD0ibGluZTJkXzEyIj4mI3hhOyAgICA8ZyBjbGlwLXBhdGg9InVybCgjcGUzNmI3YzVhYTIpIj4mI3hhOyAgICAgPHVzZSBzdHlsZT0ic3Ryb2tlOiAjMDAwMDAwIiB5PSIyMDcuMDYwNjA0IiB4PSI3NC45Mzc1NjEiIHhsaW5rOmhyZWY9IiNtMThlY2Q4YjNjMSIvPiYjeGE7ICAgICA8dXNlIHN0eWxlPSJzdHJva2U6ICMwMDAwMDAiIHk9IjIwOS4zMzc5MzQiIHg9IjE0NC43NjIxNiIgeGxpbms6aHJlZj0iI20xOGVjZDhiM2MxIi8+JiN4YTsgICAgIDx1c2Ugc3R5bGU9InN0cm9rZTogIzAwMDAwMCIgeT0iMjE0LjA4NzA5OSIgeD0iMjE0LjU4Njc1OSIgeGxpbms6aHJlZj0iI20xOGVjZDhiM2MxIi8+JiN4YTsgICAgIDx1c2Ugc3R5bGU9InN0cm9rZTogIzAwMDAwMCIgeT0iMjExLjEyNDM2NCIgeD0iMjg0LjQxMTM1OCIgeGxpbms6aHJlZj0iI20xOGVjZDhiM2MxIi8+JiN4YTsgICAgPC9nPiYjeGE7ICAgPC9nPiYjeGE7ICAgPGcgaWQ9ImxpbmUyZF8xMyI+JiN4YTsgICAgPGcgY2xpcC1wYXRoPSJ1cmwoI3BlMzZiN2M1YWEyKSI+JiN4YTsgICAgIDx1c2Ugc3R5bGU9InN0cm9rZTogIzAwMDAwMCIgeT0iMTk0LjQxMjgzNCIgeD0iNzQuOTM3NTYxIiB4bGluazpocmVmPSIjbTE4ZWNkOGIzYzEiLz4mI3hhOyAgICAgPHVzZSBzdHlsZT0ic3Ryb2tlOiAjMDAwMDAwIiB5PSIxOTMuMTQ0MzM0IiB4PSIxNDQuNzYyMTYiIHhsaW5rOmhyZWY9IiNtMThlY2Q4YjNjMSIvPiYjeGE7ICAgICA8dXNlIHN0eWxlPSJzdHJva2U6ICMwMDAwMDAiIHk9IjE5NS4yMzY4NjciIHg9IjIxNC41ODY3NTkiIHhsaW5rOmhyZWY9IiNtMThlY2Q4YjNjMSIvPiYjeGE7ICAgICA8dXNlIHN0eWxlPSJzdHJva2U6ICMwMDAwMDAiIHk9IjE5OC41MTE0MjMiIHg9IjI4NC40MTEzNTgiIHhsaW5rOmhyZWY9IiNtMThlY2Q4YjNjMSIvPiYjeGE7ICAgIDwvZz4mI3hhOyAgIDwvZz4mI3hhOyAgIDxnIGlkPSJwYXRjaF8xMSI+JiN4YTsgICAgPHBhdGggc3R5bGU9ImZpbGw6IG5vbmU7IHN0cm9rZTogIzAwMDAwMDsgc3Ryb2tlLXdpZHRoOiAwLjg7IHN0cm9rZS1saW5lam9pbjogbWl0ZXI7IHN0cm9rZS1saW5lY2FwOiBzcXVhcmUiIGQ9Ik0gNDIuMTIgMjM5LjY1OTIgJiMxMDtMIDQyLjEyIDMyLjMxMzYiLz4mI3hhOyAgIDwvZz4mI3hhOyAgIDxnIGlkPSJwYXRjaF8xMiI+JiN4YTsgICAgPHBhdGggc3R5bGU9ImZpbGw6IG5vbmU7IHN0cm9rZTogIzAwMDAwMDsgc3Ryb2tlLXdpZHRoOiAwLjg7IHN0cm9rZS1saW5lam9pbjogbWl0ZXI7IHN0cm9rZS1saW5lY2FwOiBzcXVhcmUiIGQ9Ik0gMzAzLjI2NCAyMzkuNjU5MiAmIzEwO0wgMzAzLjI2NCAzMi4zMTM2Ii8+JiN4YTsgICA8L2c+JiN4YTsgICA8ZyBpZD0icGF0Y2hfMTMiPiYjeGE7ICAgIDxwYXRoIHN0eWxlPSJmaWxsOiBub25lOyBzdHJva2U6ICMwMDAwMDA7IHN0cm9rZS13aWR0aDogMC44OyBzdHJva2UtbGluZWpvaW46IG1pdGVyOyBzdHJva2UtbGluZWNhcDogc3F1YXJlIiBkPSJNIDQyLjEyIDIzOS42NTkyICYjMTA7TCAzMDMuMjY0IDIzOS42NTkyIi8+JiN4YTsgICA8L2c+JiN4YTsgICA8ZyBpZD0icGF0Y2hfMTQiPiYjeGE7ICAgIDxwYXRoIHN0eWxlPSJmaWxsOiBub25lOyBzdHJva2U6ICMwMDAwMDA7IHN0cm9rZS13aWR0aDogMC44OyBzdHJva2UtbGluZWpvaW46IG1pdGVyOyBzdHJva2UtbGluZWNhcDogc3F1YXJlIiBkPSJNIDQyLjEyIDMyLjMxMzYgJiMxMDtMIDMwMy4yNjQgMzIuMzEzNiIvPiYjeGE7ICAgPC9nPiYjeGE7ICAgPGcgaWQ9ImxlZ2VuZF8xIj4mI3hhOyAgICA8ZyBpZD0icGF0Y2hfMTUiPiYjeGE7ICAgICA8cGF0aCBzdHlsZT0iZmlsbDogI2ZmZmZmZjsgb3BhY2l0eTogMC44OyBzdHJva2U6ICNjY2NjY2M7IHN0cm9rZS1saW5lam9pbjogbWl0ZXIiIGQ9Ik0gNDkuMTIgNjkuNjY5ODUgJiMxMDtMIDIwMy4wNyA2OS42Njk4NSAmIzEwO1EgMjA1LjA3IDY5LjY2OTg1IDIwNS4wNyA2Ny42Njk4NSAmIzEwO0wgMjA1LjA3IDM5LjMxMzYgJiMxMDtRIDIwNS4wNyAzNy4zMTM2IDIwMy4wNyAzNy4zMTM2ICYjMTA7TCA0OS4xMiAzNy4zMTM2ICYjMTA7USA0Ny4xMiAzNy4zMTM2IDQ3LjEyIDM5LjMxMzYgJiMxMDtMIDQ3LjEyIDY3LjY2OTg1ICYjMTA7USA0Ny4xMiA2OS42Njk4NSA0OS4xMiA2OS42Njk4NSAmIzEwO3oiLz4mI3hhOyAgICA8L2c+JiN4YTsgICAgPGcgaWQ9InBhdGNoXzE2Ij4mI3hhOyAgICAgPHBhdGggc3R5bGU9ImZpbGw6ICNmZmRmOTIiIGQ9Ik0gNTEuMTIgNDguOTEyMDM4ICYjMTA7TCA3MS4xMiA0OC45MTIwMzggJiMxMDtMIDcxLjEyIDQxLjkxMjAzOCAmIzEwO0wgNTEuMTIgNDEuOTEyMDM4ICYjMTA7eiIvPiYjeGE7ICAgIDwvZz4mI3hhOyAgICA8ZyBpZD0idGV4dF8xMiI+JiN4YTsgICAgICYjeGE7ICAgICA8ZyB0cmFuc2Zvcm09InRyYW5zbGF0ZSg3OS4xMiA0OC45MTIwMzgpIHNjYWxlKDAuMSAtMC4xKSI+JiN4YTsgICAgICA8ZGVmcz4mI3hhOyAgICAgICA8cGF0aCB0cmFuc2Zvcm09InNjYWxlKDAuMDE1NjI1KSIgZD0iTSA2MjggNDY2NiAmIzEwO0wgMzMwOSA0NjY2ICYjMTA7TCAzMzA5IDQxMzQgJiMxMDtMIDEyNTkgNDEzNCAmIzEwO0wgMTI1OSAyNzU5ICYjMTA7TCAzMTA5IDI3NTkgJiMxMDtMIDMxMDkgMjIyOCAmIzEwO0wgMTI1OSAyMjI4ICYjMTA7TCAxMjU5IDAgJiMxMDtMIDYyOCAwICYjMTA7TCA2MjggNDY2NiAmIzEwO3oiIGlkPSJEZWphVnVTYW5zLTQ2Ii8+JiN4YTsgICAgICAgPHBhdGggdHJhbnNmb3JtPSJzY2FsZSgwLjAxNTYyNSkiIGQ9Ik0gMjA1OSAtMzI1ICYjMTA7USAxODE2IC05NTAgMTU4NCAtMTE0MCAmIzEwO1EgMTM1MyAtMTMzMSA5NjYgLTEzMzEgJiMxMDtMIDUwNiAtMTMzMSAmIzEwO0wgNTA2IC04NTAgJiMxMDtMIDg0NCAtODUwICYjMTA7USAxMDgxIC04NTAgMTIxMiAtNzM3ICYjMTA7USAxMzQ0IC02MjUgMTUwMyAtMjA2ICYjMTA7TCAxNjA2IDU2ICYjMTA7TCAxOTEgMzUwMCAmIzEwO0wgODAwIDM1MDAgJiMxMDtMIDE4OTQgNzYzICYjMTA7TCAyOTg4IDM1MDAgJiMxMDtMIDM1OTcgMzUwMCAmIzEwO0wgMjA1OSAtMzI1ICYjMTA7eiIgaWQ9IkRlamFWdVNhbnMtNzkiLz4mI3hhOyAgICAgICA8cGF0aCB0cmFuc2Zvcm09InNjYWxlKDAuMDE1NjI1KSIgZD0iTSAxMTU5IDUyNSAmIzEwO0wgMTE1OSAtMTMzMSAmIzEwO0wgNTgxIC0xMzMxICYjMTA7TCA1ODEgMzUwMCAmIzEwO0wgMTE1OSAzNTAwICYjMTA7TCAxMTU5IDI5NjkgJiMxMDtRIDEzNDEgMzI4MSAxNjE3IDM0MzIgJiMxMDtRIDE4OTQgMzU4NCAyMjc4IDM1ODQgJiMxMDtRIDI5MTYgMzU4NCAzMzE0IDMwNzggJiMxMDtRIDM3MTMgMjU3MiAzNzEzIDE3NDcgJiMxMDtRIDM3MTMgOTIyIDMzMTQgNDE1ICYjMTA7USAyOTE2IC05MSAyMjc4IC05MSAmIzEwO1EgMTg5NCAtOTEgMTYxNyA2MSAmIzEwO1EgMTM0MSAyMTMgMTE1OSA1MjUgJiMxMDt6JiMxMDtNIDMxMTYgMTc0NyAmIzEwO1EgMzExNiAyMzgxIDI4NTUgMjc0MiAmIzEwO1EgMjU5NCAzMTAzIDIxMzggMzEwMyAmIzEwO1EgMTY4MSAzMTAzIDE0MjAgMjc0MiAmIzEwO1EgMTE1OSAyMzgxIDExNTkgMTc0NyAmIzEwO1EgMTE1OSAxMTEzIDE0MjAgNzUyICYjMTA7USAxNjgxIDM5MSAyMTM4IDM5MSAmIzEwO1EgMjU5NCAzOTEgMjg1NSA3NTIgJiMxMDtRIDMxMTYgMTExMyAzMTE2IDE3NDcgJiMxMDt6IiBpZD0iRGVqYVZ1U2Fucy03MCIvPiYjeGE7ICAgICAgIDxwYXRoIHRyYW5zZm9ybT0ic2NhbGUoMC4wMTU2MjUpIiBkPSJNIDM1MTMgMjExMyAmIzEwO0wgMzUxMyAwICYjMTA7TCAyOTM4IDAgJiMxMDtMIDI5MzggMjA5NCAmIzEwO1EgMjkzOCAyNTkxIDI3NDQgMjgzNyAmIzEwO1EgMjU1MCAzMDg0IDIxNjMgMzA4NCAmIzEwO1EgMTY5NyAzMDg0IDE0MjggMjc4NyAmIzEwO1EgMTE1OSAyNDkxIDExNTkgMTk3OCAmIzEwO0wgMTE1OSAwICYjMTA7TCA1ODEgMCAmIzEwO0wgNTgxIDQ4NjMgJiMxMDtMIDExNTkgNDg2MyAmIzEwO0wgMTE1OSAyOTU2ICYjMTA7USAxMzY2IDMyNzIgMTY0NSAzNDI4ICYjMTA7USAxOTI1IDM1ODQgMjI5MSAzNTg0ICYjMTA7USAyODk0IDM1ODQgMzIwMyAzMjExICYjMTA7USAzNTEzIDI4MzggMzUxMyAyMTEzICYjMTA7eiIgaWQ9IkRlamFWdVNhbnMtNjgiLz4mI3hhOyAgICAgIDwvZGVmcz4mI3hhOyAgICAgIDx1c2UgeGxpbms6aHJlZj0iI0RlamFWdVNhbnMtNDYiLz4mI3hhOyAgICAgIDx1c2UgeD0iNTAuMjY5NTMxIiB4bGluazpocmVmPSIjRGVqYVZ1U2Fucy02OSIvPiYjeGE7ICAgICAgPHVzZSB4PSI3OC4wNTI3MzQiIHhsaW5rOmhyZWY9IiNEZWphVnVTYW5zLTcyIi8+JiN4YTsgICAgICA8dXNlIHg9IjExNi45MTYwMTYiIHhsaW5rOmhyZWY9IiNEZWphVnVTYW5zLTY1Ii8+JiN4YTsgICAgICA8dXNlIHg9IjE3OC40Mzk0NTMiIHhsaW5rOmhyZWY9IiNEZWphVnVTYW5zLTY2Ii8+JiN4YTsgICAgICA8dXNlIHg9IjIxMy42NDQ1MzEiIHhsaW5rOmhyZWY9IiNEZWphVnVTYW5zLTZjIi8+JiN4YTsgICAgICA8dXNlIHg9IjI0MS40Mjc3MzQiIHhsaW5rOmhyZWY9IiNEZWphVnVTYW5zLTc5Ii8+JiN4YTsgICAgICA8dXNlIHg9IjMwMC42MDc0MjIiIHhsaW5rOmhyZWY9IiNEZWphVnVTYW5zLTIwIi8+JiN4YTsgICAgICA8dXNlIHg9IjMzMi4zOTQ1MzEiIHhsaW5rOmhyZWY9IiNEZWphVnVTYW5zLTZkIi8+JiN4YTsgICAgICA8dXNlIHg9IjQyOS44MDY2NDEiIHhsaW5rOmhyZWY9IiNEZWphVnVTYW5zLTY1Ii8+JiN4YTsgICAgICA8dXNlIHg9IjQ5MS4zMzAwNzgiIHhsaW5rOmhyZWY9IiNEZWphVnVTYW5zLTczIi8+JiN4YTsgICAgICA8dXNlIHg9IjU0My40Mjk2ODgiIHhsaW5rOmhyZWY9IiNEZWphVnVTYW5zLTczIi8+JiN4YTsgICAgICA8dXNlIHg9IjU5NS41MjkyOTciIHhsaW5rOmhyZWY9IiNEZWphVnVTYW5zLTYxIi8+JiN4YTsgICAgICA8dXNlIHg9IjY1Ni44MDg1OTQiIHhsaW5rOmhyZWY9IiNEZWphVnVTYW5zLTY3Ii8+JiN4YTsgICAgICA8dXNlIHg9IjcyMC4yODUxNTYiIHhsaW5rOmhyZWY9IiNEZWphVnVTYW5zLTY1Ii8+JiN4YTsgICAgICA8dXNlIHg9Ijc4MS44MDg1OTQiIHhsaW5rOmhyZWY9IiNEZWphVnVTYW5zLTIwIi8+JiN4YTsgICAgICA8dXNlIHg9IjgxMy41OTU3MDMiIHhsaW5rOmhyZWY9IiNEZWphVnVTYW5zLTcwIi8+JiN4YTsgICAgICA8dXNlIHg9Ijg3Ny4wNzIyNjYiIHhsaW5rOmhyZWY9IiNEZWphVnVTYW5zLTY4Ii8+JiN4YTsgICAgICA8dXNlIHg9Ijk0MC40NTExNzIiIHhsaW5rOmhyZWY9IiNEZWphVnVTYW5zLTYxIi8+JiN4YTsgICAgICA8dXNlIHg9IjEwMDEuNzMwNDY5IiB4bGluazpocmVmPSIjRGVqYVZ1U2Fucy03MyIvPiYjeGE7ICAgICAgPHVzZSB4PSIxMDUzLjgzMDA3OCIgeGxpbms6aHJlZj0iI0RlamFWdVNhbnMtNjUiLz4mI3hhOyAgICAgPC9nPiYjeGE7ICAgIDwvZz4mI3hhOyAgICA8ZyBpZD0icGF0Y2hfMTciPiYjeGE7ICAgICA8cGF0aCBzdHlsZT0iZmlsbDogIzkwYmVlMCIgZD0iTSA1MS4xMiA2My41OTAxNjMgJiMxMDtMIDcxLjEyIDYzLjU5MDE2MyAmIzEwO0wgNzEuMTIgNTYuNTkwMTYzICYjMTA7TCA1MS4xMiA1Ni41OTAxNjMgJiMxMDt6Ii8+JiN4YTsgICAgPC9nPiYjeGE7ICAgIDxnIGlkPSJ0ZXh0XzEzIj4mI3hhOyAgICAgJiN4YTsgICAgIDxnIHRyYW5zZm9ybT0idHJhbnNsYXRlKDc5LjEyIDYzLjU5MDE2Mykgc2NhbGUoMC4xIC0wLjEpIj4mI3hhOyAgICAgIDxkZWZzPiYjeGE7ICAgICAgIDxwYXRoIHRyYW5zZm9ybT0ic2NhbGUoMC4wMTU2MjUpIiBkPSJNIDQxMjIgNDMwNiAmIzEwO0wgNDEyMiAzNjQxICYjMTA7USAzODAzIDM5MzggMzQ0MiA0MDg0ICYjMTA7USAzMDgxIDQyMzEgMjY3NSA0MjMxICYjMTA7USAxODc1IDQyMzEgMTQ1MCAzNzQyICYjMTA7USAxMDI1IDMyNTMgMTAyNSAyMzI4ICYjMTA7USAxMDI1IDE0MDYgMTQ1MCA5MTcgJiMxMDtRIDE4NzUgNDI4IDI2NzUgNDI4ICYjMTA7USAzMDgxIDQyOCAzNDQyIDU3NSAmIzEwO1EgMzgwMyA3MjIgNDEyMiAxMDE5ICYjMTA7TCA0MTIyIDM1OSAmIzEwO1EgMzc5MSAxMzQgMzQyMCAyMSAmIzEwO1EgMzA1MCAtOTEgMjYzOCAtOTEgJiMxMDtRIDE1NzggLTkxIDk2OCA1NTcgJiMxMDtRIDM1OSAxMjA2IDM1OSAyMzI4ICYjMTA7USAzNTkgMzQ1MyA5NjggNDEwMSAmIzEwO1EgMTU3OCA0NzUwIDI2MzggNDc1MCAmIzEwO1EgMzA1NiA0NzUwIDM0MjYgNDYzOSAmIzEwO1EgMzc5NyA0NTI4IDQxMjIgNDMwNiAmIzEwO3oiIGlkPSJEZWphVnVTYW5zLTQzIi8+JiN4YTsgICAgICAgPHBhdGggdHJhbnNmb3JtPSJzY2FsZSgwLjAxNTYyNSkiIGQ9Ik0gMTkxIDM1MDAgJiMxMDtMIDgwMCAzNTAwICYjMTA7TCAxODk0IDU2MyAmIzEwO0wgMjk4OCAzNTAwICYjMTA7TCAzNTk3IDM1MDAgJiMxMDtMIDIyODQgMCAmIzEwO0wgMTUwMyAwICYjMTA7TCAxOTEgMzUwMCAmIzEwO3oiIGlkPSJEZWphVnVTYW5zLTc2Ii8+JiN4YTsgICAgICAgPHBhdGggdHJhbnNmb3JtPSJzY2FsZSgwLjAxNTYyNSkiIGQ9Ik0gNTgxIDQ4NjMgJiMxMDtMIDExNTkgNDg2MyAmIzEwO0wgMTE1OSAxOTkxICYjMTA7TCAyODc1IDM1MDAgJiMxMDtMIDM2MDkgMzUwMCAmIzEwO0wgMTc1MyAxODYzICYjMTA7TCAzNjg4IDAgJiMxMDtMIDI5MzggMCAmIzEwO0wgMTE1OSAxNzA5ICYjMTA7TCAxMTU5IDAgJiMxMDtMIDU4MSAwICYjMTA7TCA1ODEgNDg2MyAmIzEwO3oiIGlkPSJEZWphVnVTYW5zLTZiIi8+JiN4YTsgICAgICA8L2RlZnM+JiN4YTsgICAgICA8dXNlIHhsaW5rOmhyZWY9IiNEZWphVnVTYW5zLTQzIi8+JiN4YTsgICAgICA8dXNlIHg9IjY5LjgyNDIxOSIgeGxpbms6aHJlZj0iI0RlamFWdVNhbnMtNjgiLz4mI3hhOyAgICAgIDx1c2UgeD0iMTMzLjIwMzEyNSIgeGxpbms6aHJlZj0iI0RlamFWdVNhbnMtNjEiLz4mI3hhOyAgICAgIDx1c2UgeD0iMTk0LjQ4MjQyMiIgeGxpbms6aHJlZj0iI0RlamFWdVNhbnMtNjkiLz4mI3hhOyAgICAgIDx1c2UgeD0iMjIyLjI2NTYyNSIgeGxpbms6aHJlZj0iI0RlamFWdVNhbnMtNmUiLz4mI3hhOyAgICAgIDx1c2UgeD0iMjg1LjY0NDUzMSIgeGxpbms6aHJlZj0iI0RlamFWdVNhbnMtNjMiLz4mI3hhOyAgICAgIDx1c2UgeD0iMzQwLjYyNSIgeGxpbms6aHJlZj0iI0RlamFWdVNhbnMtNmYiLz4mI3hhOyAgICAgIDx1c2UgeD0iNDAxLjgwNjY0MSIgeGxpbms6aHJlZj0iI0RlamFWdVNhbnMtNjQiLz4mI3hhOyAgICAgIDx1c2UgeD0iNDY1LjI4MzIwMyIgeGxpbms6aHJlZj0iI0RlamFWdVNhbnMtNjUiLz4mI3hhOyAgICAgIDx1c2UgeD0iNTI2LjgwNjY0MSIgeGxpbms6aHJlZj0iI0RlamFWdVNhbnMtMjAiLz4mI3hhOyAgICAgIDx1c2UgeD0iNTU4LjU5Mzc1IiB4bGluazpocmVmPSIjRGVqYVZ1U2Fucy02OSIvPiYjeGE7ICAgICAgPHVzZSB4PSI1ODYuMzc2OTUzIiB4bGluazpocmVmPSIjRGVqYVZ1U2Fucy02ZSIvPiYjeGE7ICAgICAgPHVzZSB4PSI2NDkuNzU1ODU5IiB4bGluazpocmVmPSIjRGVqYVZ1U2Fucy03NiIvPiYjeGE7ICAgICAgPHVzZSB4PSI3MDguOTM1NTQ3IiB4bGluazpocmVmPSIjRGVqYVZ1U2Fucy02ZiIvPiYjeGE7ICAgICAgPHVzZSB4PSI3NzAuMTE3MTg4IiB4bGluazpocmVmPSIjRGVqYVZ1U2Fucy02YiIvPiYjeGE7ICAgICAgPHVzZSB4PSI4MjQuNDAyMzQ0IiB4bGluazpocmVmPSIjRGVqYVZ1U2Fucy02NSIvPiYjeGE7ICAgICAgPHVzZSB4PSI4ODUuOTI1NzgxIiB4bGluazpocmVmPSIjRGVqYVZ1U2Fucy0yMCIvPiYjeGE7ICAgICAgPHVzZSB4PSI5MTcuNzEyODkxIiB4bGluazpocmVmPSIjRGVqYVZ1U2Fucy03MCIvPiYjeGE7ICAgICAgPHVzZSB4PSI5ODEuMTg5NDUzIiB4bGluazpocmVmPSIjRGVqYVZ1U2Fucy02OCIvPiYjeGE7ICAgICAgPHVzZSB4PSIxMDQ0LjU2ODM1OSIgeGxpbms6aHJlZj0iI0RlamFWdVNhbnMtNjEiLz4mI3hhOyAgICAgIDx1c2UgeD0iMTEwNS44NDc2NTYiIHhsaW5rOmhyZWY9IiNEZWphVnVTYW5zLTczIi8+JiN4YTsgICAgICA8dXNlIHg9IjExNTcuOTQ3MjY2IiB4bGluazpocmVmPSIjRGVqYVZ1U2Fucy02NSIvPiYjeGE7ICAgICA8L2c+JiN4YTsgICAgPC9nPiYjeGE7ICAgPC9nPiYjeGE7ICA8L2c+JiN4YTsgPC9nPiYjeGE7IDxkZWZzPiYjeGE7ICA8Y2xpcFBhdGggaWQ9InBlMzZiN2M1YWEyIj4mI3hhOyAgIDxyZWN0IGhlaWdodD0iMjA3LjM0NTYiIHdpZHRoPSIyNjEuMTQ0IiB5PSIzMi4zMTM2IiB4PSI0Mi4xMiIvPiYjeGE7ICA8L2NsaXBQYXRoPiYjeGE7IDwvZGVmcz4mI3hhOzwvc3ZnPg==;" parent="1" vertex="1">
          <mxGeometry x="454.3" y="74.5" width="337" height="269" as="geometry" />
        </mxCell>
      </root>
    </mxGraphModel>
  </diagram>
</mxfile>
